SplineFontDB: 3.2
FontName: Estedad-Thin
FullName: Estedad Thin
FamilyName: Estedad Thin
Weight: Thin
Copyright: Copyright 2022 The Estedad Project Authors (https://github.com/aminabedi68/Estedad)
Version: 7.0
ItalicAngle: 0
UnderlinePosition: -750
UnderlineWidth: 150
Ascent: 1638
Descent: 410
InvalidEm: 0
sfntRevision: 0x00070000
LayerCount: 2
Layer: 0 0 "Back" 1
Layer: 1 0 "Fore" 0
StyleMap: 0x0040
FSType: 0
OS2Version: 4
OS2_WeightWidthSlopeOnly: 0
OS2_UseTypoMetrics: 1
CreationTime: 1595063989
ModificationTime: 1653078251
PfmFamily: 17
TTFWeight: 100
TTFWidth: 5
LineGap: 0
VLineGap: 0
Panose: 2 0 2 3 0 0 0 0 0 0
OS2TypoAscent: 2400
OS2TypoAOffset: 0
OS2TypoDescent: -1200
OS2TypoDOffset: 0
OS2TypoLinegap: 0
OS2WinAscent: 2421
OS2WinAOffset: 0
OS2WinDescent: 1217
OS2WinDOffset: 0
HheadAscent: 2400
HheadAOffset: 0
HheadDescent: -1200
HheadDOffset: 0
OS2SubXSize: 1331
OS2SubYSize: 1433
OS2SubXOff: 0
OS2SubYOff: 286
OS2SupXSize: 1331
OS2SupYSize: 1433
OS2SupXOff: 0
OS2SupYOff: 983
OS2StrikeYSize: 102
OS2StrikeYPos: 530
OS2CapHeight: 1500
OS2XHeight: 1090
OS2Vendor: 'amin'
OS2CodePages: 000000d3.00000000
OS2UnicodeRanges: a000207f.9000207b.00000008.00000000
Lookup: 1 1 0 "Single Substitution lookup 179" { "SingleSubstitutionlookup179 subtable"  } []
Lookup: 1 9 0 "Single Substitution lookup 178" { "Single Substitution lookup 178 subtable"  } []
Lookup: 6 9 0 "'ccmp' Glyph Composition/Decomposition in Arabic lookup 73" { "'ccmp' Glyph Composition/Decomposition in Arabic lookup 73 contextual 0"  "'ccmp' Glyph Composition/Decomposition in Arabic lookup 73 contextual 1"  "'ccmp' Glyph Composition/Decomposition in Arabic lookup 73 contextual 2"  } ['ccmp' ('arab' <'FAR ' 'KUR ' 'URD ' 'dflt' > ) ]

StartChar: exclam
Encoding: 33 33 1
Width: 641
GlyphClass: 2
Flags: HMW
LayerCount: 2
Fore
SplineSet
352 379 m 1
 290 379 l 1
 289 1331 l 1
 352 1331 l 1
 352 379 l 1
EndSplineSet
Refer: 14 46 N 1 0 0 1 33 0 2
EndChar

StartChar: numbersign
Encoding: 35 35 3
Width: 1629
GlyphClass: 2
Flags: HMW
LayerCount: 2
Fore
SplineSet
1100 902 m 1
 670 902 l 1
 546 450 l 1
 975 450 l 1
 1100 902 l 1
418 -16 m 1
 358 -16 l 1
 472 395 l 1
 167 395 l 1
 167 450 l 1
 487 450 l 1
 611 902 l 1
 286 902 l 1
 286 955 l 1
 626 955 l 1
 734 1348 l 1
 794 1348 l 1
 687 955 l 1
 1115 955 l 1
 1223 1348 l 1
 1281 1348 l 1
 1175 955 l 1
 1465 955 l 1
 1465 902 l 1
 1158 902 l 1
 1036 450 l 1
 1346 450 l 1
 1346 395 l 1
 1021 395 l 1
 907 -16 l 1
 845 -16 l 1
 958 395 l 1
 532 395 l 1
 418 -16 l 1
EndSplineSet
EndChar

StartChar: ampersand
Encoding: 38 38 6
Width: 1290
GlyphClass: 2
Flags: HMW
LayerCount: 2
Fore
SplineSet
218 1050 m 0
 218 1193 323 1342 534 1342 c 0
 722 1342 845 1217 845 1060 c 0
 845 871 690 772 528 682 c 1
 959 258 l 1
 1024 342 1060 442 1060 542 c 1
 1117 542 l 1
 1117 433 1075 316 998 219 c 1
 1192 30 l 1
 1151 -11 l 1
 963 177 l 1
 860 68 709 -9 522 -9 c 0
 293 -9 107 96 107 304 c 0
 107 489 269 603 438 694 c 1
 360 769 l 2
 276 850 218 940 218 1050 c 0
490 721 m 1
 645 805 783 890 783 1054 c 0
 783 1194 684 1289 533 1289 c 0
 367 1289 279 1174 279 1060 c 0
 279 954 333 878 407 804 c 2
 490 721 l 1
922 216 m 1
 478 655 l 1
 319 567 167 467 167 312 c 0
 167 129 334 51 522 51 c 0
 687 51 826 118 922 216 c 1
EndSplineSet
EndChar

StartChar: quotesingle
Encoding: 39 39 7
Width: 443
GlyphClass: 2
Flags: HMW
LayerCount: 2
Fore
SplineSet
185 1331 m 1
 259 1331 l 1
 259 1126 l 1
 249 920 l 1
 195 920 l 1
 185 1126 l 1
 185 1331 l 1
EndSplineSet
EndChar

StartChar: parenleft
Encoding: 40 40 8
Width: 655
GlyphClass: 2
Flags: HMW
LayerCount: 2
Fore
SplineSet
476 1442 m 1
 526 1411 l 1
 334 1149 240 833 240 444 c 0
 240 56 332 -257 526 -520 c 1
 476 -552 l 1
 275 -280 180 41 180 444 c 0
 180 847 276 1171 476 1442 c 1
EndSplineSet
Position2: "SinglePositioning1 subtable" dx=0 dy=0 dh=200 dv=0
EndChar

StartChar: parenright
Encoding: 41 41 9
Width: 655
GlyphClass: 2
Flags: HMW
LayerCount: 2
Fore
SplineSet
180 -552 m 1
 130 -521 l 1
 323 -259 416 57 416 446 c 0
 416 834 324 1147 130 1410 c 1
 180 1442 l 1
 381 1170 476 849 476 446 c 0
 476 43 380 -281 180 -552 c 1
EndSplineSet
Position2: "SinglePositioning1 subtable" dx=0 dy=0 dh=200 dv=0
EndChar

StartChar: asterisk
Encoding: 42 42 10
Width: 1261
GlyphClass: 2
Flags: HMW
LayerCount: 2
Fore
SplineSet
607 1347 m 1
 656 1347 l 1
 655 959 l 1
 664 954 l 1
 1031 1074 l 1
 1046 1026 l 1
 678 908 l 1
 676 898 l 1
 903 587 l 1
 862 557 l 1
 637 870 l 1
 627 870 l 1
 400 557 l 1
 360 587 l 1
 587 898 l 1
 584 907 l 1
 217 1026 l 1
 232 1074 l 1
 599 953 l 1
 607 960 l 1
 607 1347 l 1
EndSplineSet
EndChar

StartChar: plus
Encoding: 43 43 11
Width: 1181
GlyphClass: 2
Flags: HMW
LayerCount: 2
Fore
SplineSet
1002 616 m 1
 1002 556 l 1
 621 556 l 1
 621 175 l 1
 561 175 l 1
 561 556 l 1
 180 556 l 1
 180 616 l 1
 561 616 l 1
 561 998 l 1
 621 998 l 1
 621 616 l 1
 1002 616 l 1
EndSplineSet
Substitution2: "'tnum' Tabular Numbers lookup 22 subtable" plus.tnum
EndChar

StartChar: comma
Encoding: 44 44 12
Width: 521
GlyphClass: 2
Flags: HMW
LayerCount: 2
Fore
SplineSet
214 193 m 1
 297 193 l 1
 169 -220 l 1
 123 -204 l 1
 214 193 l 1
EndSplineSet
EndChar

StartChar: hyphen
Encoding: 45 45 13
Width: 1181
GlyphClass: 2
Flags: HMW
LayerCount: 2
Fore
SplineSet
1002 616 m 1
 1002 556 l 1
 180 556 l 1
 180 616 l 1
 1002 616 l 1
EndSplineSet
Substitution2: "'tnum' Tabular Numbers lookup 22 subtable" hyphen.tnum
EndChar

StartChar: period
Encoding: 46 46 14
Width: 576
GlyphClass: 2
Flags: HMW
LayerCount: 2
Fore
SplineSet
200 78 m 0
 200 127 235 165 288 165 c 0
 341 165 376 127 376 78 c 0
 376 29 341 -11 288 -11 c 0
 235 -11 200 29 200 78 c 0
EndSplineSet
EndChar

StartChar: slash
Encoding: 47 47 15
Width: 1180
GlyphClass: 2
Flags: HMW
LayerCount: 2
Fore
SplineSet
884 1331 m 1
 940 1331 l 1
 300 0 l 1
 242 0 l 1
 884 1331 l 1
EndSplineSet
Substitution2: "'tnum' Tabular Numbers lookup 22 subtable" slash.tnum
Substitution2: "'smcp' Lowercase to Small Capitals in Latin lookup 0 subtable" slash.sc
EndChar

StartChar: zero
Encoding: 48 48 16
Width: 1044
GlyphClass: 2
Flags: HMW
LayerCount: 2
Fore
SplineSet
521 1342 m 0
 777 1342 934 1084 934 665 c 0
 934 246 777 -11 522 -11 c 0
 267 -11 111 245 111 665 c 0
 111 1086 266 1342 521 1342 c 0
521 1289 m 0
 300 1289 172 1059 172 665 c 0
 172 272 301 42 522 42 c 0
 743 42 873 272 873 665 c 0
 873 1057 742 1289 521 1289 c 0
EndSplineSet
Substitution2: "'onum' Oldstyle Figures lookup 23 subtable" zero.onum
Substitution2: "'tnum' Tabular Numbers lookup 22 subtable" zero.tnum
Substitution2: "'zero' Slashed Zero lookup 19 subtable" zero.slashed
Substitution2: "'sups' Superscript lookup 0 subtable" uni2070
Substitution2: "'subs' Subscript lookup 0 subtable" uni2080
Substitution2: "'sinf' Scientific Inferiors lookup 20 subtable" uni2080
Substitution2: "'smcp' Lowercase to Small Capitals in Latin lookup 0 subtable" zero.SC
EndChar

StartChar: one
Encoding: 49 49 17
Width: 640
GlyphClass: 2
Flags: HMW
LayerCount: 2
Fore
SplineSet
402 1128 m 1
 344 1033 246 999 50 999 c 1
 50 1053 l 1
 306 1053 402 1097 402 1331 c 1
 461 1331 l 1
 461 0 l 1
 402 0 l 1
 402 1128 l 1
EndSplineSet
Substitution2: "'onum' Oldstyle Figures lookup 23 subtable" one.onum
Substitution2: "'tnum' Tabular Numbers lookup 22 subtable" one.tnum
Substitution2: "'sups' Superscript lookup 0 subtable" uni00B9
Substitution2: "'subs' Subscript lookup 0 subtable" uni2081
Substitution2: "'sinf' Scientific Inferiors lookup 20 subtable" uni2081
Substitution2: "'smcp' Lowercase to Small Capitals in Latin lookup 0 subtable" one.SC
EndChar

StartChar: two
Encoding: 50 50 18
Width: 1053
GlyphClass: 2
Flags: HMW
LayerCount: 2
Fore
SplineSet
149 974 m 1
 149 1217 325 1342 545 1342 c 0
 772 1342 949 1200 949 949 c 0
 949 744 815 641 593 503 c 0
 390 377 171 208 170 53 c 1
 969 53 l 1
 969 0 l 1
 117 0 l 1
 116 10 116 19 116 28 c 0
 116 265 412 450 571 549 c 0
 784 681 899 773 899 956 c 0
 899 1167 746 1289 543 1289 c 0
 356 1289 200 1187 200 974 c 1
 149 974 l 1
EndSplineSet
Substitution2: "'onum' Oldstyle Figures lookup 23 subtable" two.onum
Substitution2: "'tnum' Tabular Numbers lookup 22 subtable" two.tnum
Substitution2: "'sups' Superscript lookup 0 subtable" uni00B2
Substitution2: "'subs' Subscript lookup 0 subtable" uni2082
Substitution2: "'sinf' Scientific Inferiors lookup 20 subtable" uni2082
Substitution2: "'smcp' Lowercase to Small Capitals in Latin lookup 0 subtable" two.SC
EndChar

StartChar: three
Encoding: 51 51 19
Width: 1119
GlyphClass: 2
Flags: HMW
LayerCount: 2
Fore
SplineSet
564 1342 m 0
 800 1342 955 1208 955 1006 c 0
 955 871 891 756 733 718 c 1
 733 708 l 1
 925 658 998 530 998 367 c 0
 998 132 837 -11 570 -11 c 0
 299 -11 122 135 122 357 c 1
 182 357 l 1
 182 163 330 42 568 42 c 0
 803 42 935 160 935 369 c 0
 935 578 803 685 548 685 c 2
 484 685 l 1
 484 741 l 1
 548 741 l 2
 775 741 892 830 892 1004 c 0
 892 1182 770 1289 567 1289 c 0
 369 1289 247 1187 247 1020 c 1
 186 1020 l 1
 186 1216 335 1342 564 1342 c 0
EndSplineSet
Substitution2: "'onum' Oldstyle Figures lookup 23 subtable" three.onum
Substitution2: "'tnum' Tabular Numbers lookup 22 subtable" three.tnum
Substitution2: "'sups' Superscript lookup 0 subtable" uni00B3
Substitution2: "'subs' Subscript lookup 0 subtable" uni2083
Substitution2: "'sinf' Scientific Inferiors lookup 20 subtable" uni2083
Substitution2: "'smcp' Lowercase to Small Capitals in Latin lookup 0 subtable" three.SC
EndChar

StartChar: four
Encoding: 52 52 20
Width: 1134
GlyphClass: 2
Flags: HMW
LayerCount: 2
Fore
SplineSet
778 374 m 1
 778 1257 l 1
 165 374 l 1
 778 374 l 1
778 318 m 1
 106 318 l 1
 106 376 l 1
 770 1331 l 1
 837 1331 l 1
 837 374 l 1
 1083 374 l 1
 1083 318 l 1
 837 318 l 1
 837 0 l 1
 778 0 l 1
 778 318 l 1
EndSplineSet
Substitution2: "'onum' Oldstyle Figures lookup 23 subtable" four.onum
Substitution2: "'tnum' Tabular Numbers lookup 22 subtable" four.tnum
Substitution2: "'sups' Superscript lookup 0 subtable" uni2074
Substitution2: "'subs' Subscript lookup 0 subtable" uni2084
Substitution2: "'sinf' Scientific Inferiors lookup 20 subtable" uni2084
Substitution2: "'smcp' Lowercase to Small Capitals in Latin lookup 0 subtable" four.SC
EndChar

StartChar: five
Encoding: 53 53 21
Width: 1016
GlyphClass: 2
Flags: HMW
LayerCount: 2
Fore
SplineSet
187 1331 m 1
 912 1331 l 1
 912 1278 l 1
 243 1278 l 1
 196 763 l 1
 206 763 l 1
 273 837 389 882 510 882 c 0
 760 882 901 717 901 427 c 0
 901 154 751 -11 504 -11 c 0
 273 -11 117 134 117 348 c 1
 178 348 l 1
 178 157 303 42 509 42 c 0
 721 42 841 181 841 427 c 0
 841 688 725 828 508 828 c 0
 382 828 295 791 207 702 c 1
 135 702 l 1
 187 1331 l 1
EndSplineSet
Substitution2: "'onum' Oldstyle Figures lookup 23 subtable" five.onum
Substitution2: "'tnum' Tabular Numbers lookup 22 subtable" five.tnum
Substitution2: "'sups' Superscript lookup 0 subtable" uni2075
Substitution2: "'subs' Subscript lookup 0 subtable" uni2085
Substitution2: "'sinf' Scientific Inferiors lookup 20 subtable" uni2085
Substitution2: "'smcp' Lowercase to Small Capitals in Latin lookup 0 subtable" five.SC
EndChar

StartChar: six
Encoding: 54 54 22
Width: 1056
GlyphClass: 2
Flags: HMW
LayerCount: 2
Fore
SplineSet
551 792 m 0
 347 792 202 636 202 416 c 0
 202 198 348 42 551 42 c 0
 749 42 871 185 871 416 c 0
 871 650 750 792 551 792 c 0
551 845 m 0
 780 845 931 675 931 416 c 0
 931 160 780 -11 552 -11 c 0
 267 -11 127 192 127 612 c 0
 127 1101 275 1342 550 1342 c 0
 746 1342 889 1219 911 1034 c 1
 856 1034 l 1
 834 1193 718 1289 549 1289 c 0
 279 1289 158 1009 175 557 c 1
 185 557 l 1
 234 754 384 845 551 845 c 0
EndSplineSet
Substitution2: "'onum' Oldstyle Figures lookup 23 subtable" six.onum
Substitution2: "'tnum' Tabular Numbers lookup 22 subtable" six.tnum
Substitution2: "'sups' Superscript lookup 0 subtable" uni2076
Substitution2: "'subs' Subscript lookup 0 subtable" uni2086
Substitution2: "'sinf' Scientific Inferiors lookup 20 subtable" uni2086
Substitution2: "'smcp' Lowercase to Small Capitals in Latin lookup 0 subtable" six.SC
EndChar

StartChar: seven
Encoding: 55 55 23
Width: 1123
GlyphClass: 2
Flags: HMW
LayerCount: 2
Fore
SplineSet
1019 1281 m 1
 782 973 541 491 541 0 c 1
 479 0 l 1
 479 486 729 1001 956 1278 c 1
 122 1278 l 1
 122 1331 l 1
 1004 1331 l 1
 1019 1281 l 1
EndSplineSet
Substitution2: "'onum' Oldstyle Figures lookup 23 subtable" seven.onum
Substitution2: "'tnum' Tabular Numbers lookup 22 subtable" seven.tnum
Substitution2: "'sups' Superscript lookup 0 subtable" uni2077
Substitution2: "'subs' Subscript lookup 0 subtable" uni2087
Substitution2: "'sinf' Scientific Inferiors lookup 20 subtable" uni2087
Substitution2: "'smcp' Lowercase to Small Capitals in Latin lookup 0 subtable" seven.SC
EndChar

StartChar: eight
Encoding: 56 56 24
Width: 1051
GlyphClass: 2
Flags: HMW
LayerCount: 2
Fore
SplineSet
527 1342 m 0
 735 1342 875 1208 875 1012 c 0
 875 872 802 751 683 697 c 1
 683 687 l 1
 843 616 941 483 941 331 c 0
 941 126 773 -12 527 -12 c 0
 280 -12 111 128 111 335 c 0
 111 488 207 622 366 688 c 1
 366 698 l 1
 249 752 175 873 175 1011 c 0
 175 1207 318 1342 527 1342 c 0
527 1289 m 0
 351 1289 235 1175 235 1003 c 0
 235 828 351 713 526 713 c 0
 701 713 815 828 815 1003 c 0
 815 1176 700 1289 527 1289 c 0
522 661 m 0
 319 661 174 520 174 329 c 0
 174 148 304 40 526 40 c 0
 748 40 880 148 880 327 c 0
 880 518 727 661 522 661 c 0
EndSplineSet
Substitution2: "'onum' Oldstyle Figures lookup 23 subtable" eight.onum
Substitution2: "'tnum' Tabular Numbers lookup 22 subtable" eight.tnum
Substitution2: "'sups' Superscript lookup 0 subtable" uni2078
Substitution2: "'subs' Subscript lookup 0 subtable" uni2088
Substitution2: "'sinf' Scientific Inferiors lookup 20 subtable" uni2088
Substitution2: "'smcp' Lowercase to Small Capitals in Latin lookup 0 subtable" eight.SC
EndChar

StartChar: less
Encoding: 60 60 28
Width: 716
GlyphClass: 2
Flags: HMW
LayerCount: 2
Fore
SplineSet
577 1066 m 1
 617 1027 l 1
 172 622 l 1
 617 217 l 1
 577 178 l 1
 100 622 l 1
 577 1066 l 1
EndSplineSet
Position2: "SinglePositioning1 subtable" dx=0 dy=0 dh=200 dv=0
EndChar

StartChar: greater
Encoding: 62 62 30
Width: 716
GlyphClass: 2
Flags: HMW
LayerCount: 2
Fore
SplineSet
140 178 m 1
 100 217 l 1
 545 622 l 1
 100 1027 l 1
 140 1066 l 1
 617 622 l 1
 140 178 l 1
EndSplineSet
EndChar

StartChar: question
Encoding: 63 63 31
Width: 1054
GlyphClass: 2
Flags: HMW
LayerCount: 2
Fore
SplineSet
464 378 m 1
 464 556 562 644 655 725 c 0
 734 794 809 861 809 976 c 0
 809 1124 696 1244 515 1244 c 0
 362 1244 240 1158 240 1011 c 0
 240 1004 240 996 241 988 c 1
 180 988 l 1
 179 996 179 1004 179 1012 c 0
 179 1185 313 1299 512 1299 c 0
 749 1299 875 1138 875 977 c 0
 875 836 791 759 705 684 c 0
 617 607 530 528 530 378 c 1
 464 378 l 1
404 78 m 0
 404 127 439 165 492 165 c 0
 545 165 581 127 581 78 c 0
 581 29 545 -11 492 -11 c 0
 439 -11 404 29 404 78 c 0
EndSplineSet
EndChar

StartChar: at
Encoding: 64 64 32
Width: 1947
GlyphClass: 2
Flags: HMW
LayerCount: 2
Fore
SplineSet
992 816 m 0
 803 816 610 693 610 396 c 0
 610 117 780 54 915 54 c 0
 1042 54 1192 144 1216 420 c 2
 1249 728 l 1
 1188 778 1121 816 992 816 c 0
992 868 m 0
 1154 868 1233 815 1311 751 c 1
 1262 276 l 2
 1261 260 1260 245 1260 234 c 0
 1260 118 1328 51 1437 51 c 0
 1613 51 1709 244 1709 478 c 0
 1709 844 1415 1204 1021 1204 c 0
 615 1204 240 885 240 408 c 0
 240 -29 513 -291 965 -291 c 0
 1035 -291 1105 -278 1171 -260 c 1
 1192 -313 l 1
 1119 -332 1043 -344 964 -344 c 0
 468 -344 180 -51 180 411 c 0
 180 908 566 1257 1009 1257 c 0
 1464 1257 1768 866 1768 478 c 0
 1768 239 1658 -5 1440 -5 c 0
 1315 -5 1225 55 1213 204 c 1
 1161 57 1020 -5 915 -5 c 0
 733 -5 551 109 551 396 c 0
 551 706 753 868 992 868 c 0
EndSplineSet
EndChar

StartChar: A
Encoding: 65 65 33
Width: 1146
GlyphClass: 2
Flags: HMW
AnchorPoint: "down_II" 1092 0 basechar 0
AnchorPoint: "down_I" 573 0 basechar 0
AnchorPoint: "up_I" 573 1331 basechar 0
LayerCount: 2
Fore
SplineSet
241 411 m 1
 86 0 l 1
 22 0 l 1
 530 1331 l 1
 618 1331 l 1
 1125 0 l 1
 1061 0 l 1
 906 411 l 1
 241 411 l 1
569 1292 m 5
 261 466 l 5
 885 466 l 5
 579 1292 l 5
 569 1292 l 5
EndSplineSet
Substitution2: "'c2sc' Capitals to Small Capitals in Latin lookup 0 subtable" uni1D00
EndChar

StartChar: B
Encoding: 66 66 34
Width: 1149
GlyphClass: 2
Flags: HMW
AnchorPoint: "down_I" 535 0 basechar 0
AnchorPoint: "up_I" 535 1331 basechar 0
LayerCount: 2
Fore
SplineSet
794 676 m 1
 947 635 1046 517 1046 347 c 0
 1046 132 891 0 671 0 c 2
 169 0 l 1
 169 1331 l 1
 609 1331 l 2
 829 1331 985 1205 985 990 c 0
 985 844 911 738 794 686 c 1
 794 676 l 1
229 1278 m 1
 229 696 l 1
 609 696 l 2
 806 696 924 810 924 989 c 0
 924 1168 806 1278 609 1278 c 2
 229 1278 l 1
229 644 m 1
 229 52 l 1
 671 52 l 2
 868 52 987 167 987 346 c 0
 987 525 868 644 671 644 c 2
 229 644 l 1
EndSplineSet
Substitution2: "'c2sc' Capitals to Small Capitals in Latin lookup 0 subtable" uni0299
EndChar

StartChar: C
Encoding: 67 67 35
Width: 1307
GlyphClass: 2
Flags: HMW
AnchorPoint: "down_I" 696 -11 basechar 0
AnchorPoint: "up_I" 696 1342 basechar 0
LayerCount: 2
Fore
SplineSet
193 665 m 0
 193 300 356 42 694 42 c 0
 937 42 1071 202 1122 346 c 1
 1176 327 l 1
 1120 174 971 -11 696 -11 c 0
 336 -11 133 247 133 665 c 0
 133 1083 336 1342 696 1342 c 0
 971 1342 1120 1157 1176 1004 c 1
 1122 985 l 1
 1071 1129 937 1289 694 1289 c 0
 356 1289 193 1030 193 665 c 0
EndSplineSet
Substitution2: "'c2sc' Capitals to Small Capitals in Latin lookup 0 subtable" uni1D04
EndChar

StartChar: D
Encoding: 68 68 36
Width: 1331
GlyphClass: 2
Flags: HMW
AnchorPoint: "down_I" 594 0 basechar 0
AnchorPoint: "up_I" 594 1331 basechar 0
LayerCount: 2
Fore
SplineSet
1175 665 m 0
 1175 272 971 0 594 0 c 2
 228 0 l 1
 228 1331 l 1
 594 1331 l 2
 971 1331 1175 1058 1175 665 c 0
1114 665 m 0
 1114 1006 949 1278 594 1278 c 2
 288 1278 l 1
 288 52 l 1
 594 52 l 2
 949 52 1114 325 1114 665 c 0
EndSplineSet
Substitution2: "'c2sc' Capitals to Small Capitals in Latin lookup 0 subtable" uni1D05
EndChar

StartChar: E
Encoding: 69 69 37
Width: 1053
GlyphClass: 2
Flags: HMW
AnchorPoint: "down_II" 785 0 basechar 0
AnchorPoint: "down_I" 620 0 basechar 0
AnchorPoint: "up_I" 620 1331 basechar 0
LayerCount: 2
Fore
SplineSet
970 52 m 1
 970 0 l 1
 228 0 l 1
 228 1331 l 1
 970 1331 l 1
 970 1278 l 1
 288 1278 l 1
 288 693 l 1
 915 693 l 1
 915 636 l 1
 288 636 l 1
 288 52 l 1
 970 52 l 1
EndSplineSet
Substitution2: "'c2sc' Capitals to Small Capitals in Latin lookup 0 subtable" uni1D07
EndChar

StartChar: F
Encoding: 70 70 38
Width: 1042
GlyphClass: 2
Flags: HMW
AnchorPoint: "down_I" 620 0 basechar 0
AnchorPoint: "up_I" 620 1331 basechar 0
LayerCount: 2
Fore
SplineSet
288 0 m 1
 228 0 l 1
 228 1331 l 1
 970 1331 l 1
 970 1278 l 1
 288 1278 l 1
 288 643 l 1
 932 643 l 1
 932 589 l 1
 288 589 l 1
 288 0 l 1
EndSplineSet
Substitution2: "'c2sc' Capitals to Small Capitals in Latin lookup 0 subtable" uniA730
EndChar

StartChar: G
Encoding: 71 71 39
Width: 1299
GlyphClass: 2
Flags: HMW
AnchorPoint: "down_I" 702 -11 basechar 0
AnchorPoint: "up_I" 676 1342 basechar 0
LayerCount: 2
Fore
SplineSet
677 643 m 1
 1190 643 l 1
 1190 166 l 1
 1101 57 887 -11 702 -11 c 0
 319 -11 111 225 111 659 c 0
 111 1086 323 1342 676 1342 c 0
 894 1342 1079 1212 1155 1004 c 1
 1102 985 l 1
 1036 1172 871 1289 673 1289 c 0
 359 1289 173 1055 173 659 c 0
 173 256 356 42 703 42 c 0
 852 42 1053 107 1130 180 c 1
 1130 589 l 1
 677 589 l 1
 677 643 l 1
EndSplineSet
Substitution2: "'c2sc' Capitals to Small Capitals in Latin lookup 0 subtable" uni0262
EndChar

StartChar: H
Encoding: 72 72 40
Width: 1381
GlyphClass: 2
Flags: HMW
AnchorPoint: "down_I" 691 0 basechar 0
AnchorPoint: "up_I" 691 1331 basechar 0
LayerCount: 2
Fore
SplineSet
1094 1331 m 1
 1154 1331 l 1
 1154 0 l 1
 1094 0 l 1
 1094 636 l 1
 289 636 l 1
 289 0 l 1
 228 0 l 1
 228 1331 l 1
 289 1331 l 1
 289 695 l 1
 1094 695 l 1
 1094 1331 l 1
EndSplineSet
Substitution2: "'c2sc' Capitals to Small Capitals in Latin lookup 0 subtable" uni029C
EndChar

StartChar: I
Encoding: 73 73 41
Width: 609
GlyphClass: 2
Flags: HMW
AnchorPoint: "down_II" 305 0 basechar 0
AnchorPoint: "down_I" 305 0 basechar 0
AnchorPoint: "up_I" 305 1331 basechar 0
LayerCount: 2
Fore
SplineSet
335 0 m 1
 275 0 l 1
 275 1331 l 1
 335 1331 l 1
 335 0 l 1
EndSplineSet
Substitution2: "'c2sc' Capitals to Small Capitals in Latin lookup 0 subtable" uni026A
EndChar

StartChar: J
Encoding: 74 74 42
Width: 691
GlyphClass: 2
Flags: HMW
AnchorPoint: "down_I" 217 -11 basechar 0
AnchorPoint: "up_I" 436 1331 basechar 0
LayerCount: 2
Fore
SplineSet
95 5 m 1
 107 54 l 1
 131 49 175 42 218 42 c 0
 342 42 406 100 406 227 c 2
 406 1331 l 1
 465 1331 l 1
 465 222 l 2
 465 58 363 -11 217 -11 c 0
 175 -11 133 -5 95 5 c 1
EndSplineSet
Substitution2: "'c2sc' Capitals to Small Capitals in Latin lookup 0 subtable" uni1D0A
EndChar

StartChar: K
Encoding: 75 75 43
Width: 1144
GlyphClass: 2
Flags: HMW
AnchorPoint: "down_I" 630 0 basechar 0
AnchorPoint: "up_I" 630 1331 basechar 0
LayerCount: 2
Fore
SplineSet
1024 1331 m 1
 1104 1331 l 1
 521 666 l 1
 1104 0 l 1
 1024 0 l 1
 468 628 l 1
 288 628 l 1
 288 0 l 1
 228 0 l 1
 228 1331 l 1
 288 1331 l 1
 288 691 l 1
 465 691 l 1
 1024 1331 l 1
EndSplineSet
Substitution2: "'c2sc' Capitals to Small Capitals in Latin lookup 0 subtable" uni1D0B
EndChar

StartChar: L
Encoding: 76 76 44
Width: 1009
GlyphClass: 2
Flags: HMW
AnchorPoint: "down_II" 909 0 basechar 0
AnchorPoint: "middle_dot_I" 650 744 basechar 0
AnchorPoint: "down_I" 650 0 basechar 0
AnchorPoint: "up_II" 568 1331 basechar 0
AnchorPoint: "up_I" 650 1331 basechar 0
LayerCount: 2
Fore
SplineSet
947 52 m 1
 947 0 l 1
 228 0 l 1
 228 1331 l 1
 288 1331 l 1
 288 52 l 1
 947 52 l 1
EndSplineSet
Substitution2: "'c2sc' Capitals to Small Capitals in Latin lookup 0 subtable" uni029F
EndChar

StartChar: M
Encoding: 77 77 45
Width: 1816
GlyphClass: 2
Flags: HMW
AnchorPoint: "down_I" 876 0 basechar 0
AnchorPoint: "up_I" 876 1331 basechar 0
LayerCount: 2
Fore
SplineSet
288 0 m 1
 228 0 l 1
 228 1331 l 1
 351 1331 l 1
 876 30 l 1
 1468 1331 l 1
 1592 1331 l 1
 1592 0 l 1
 1531 0 l 1
 1531 1302 l 1
 1521 1302 l 1
 930 0 l 1
 820 0 l 1
 298 1295 l 1
 288 1295 l 1
 288 0 l 1
EndSplineSet
Substitution2: "'c2sc' Capitals to Small Capitals in Latin lookup 0 subtable" uni1D0D
EndChar

StartChar: N
Encoding: 78 78 46
Width: 1396
GlyphClass: 2
Flags: HMW
AnchorPoint: "down_I" 670 0 basechar 0
AnchorPoint: "up_I" 740 1331 basechar 0
LayerCount: 2
Fore
SplineSet
1109 1331 m 1
 1169 1331 l 1
 1169 0 l 1
 1064 0 l 1
 298 1282 l 1
 288 1282 l 1
 288 0 l 1
 228 0 l 1
 228 1331 l 1
 333 1331 l 1
 1099 49 l 1
 1109 49 l 1
 1109 1331 l 1
EndSplineSet
Substitution2: "'c2sc' Capitals to Small Capitals in Latin lookup 0 subtable" uni0274
EndChar

StartChar: O
Encoding: 79 79 47
Width: 1521
GlyphClass: 2
Flags: HMW
AnchorPoint: "down_II" 761 -11 basechar 0
AnchorPoint: "down_I" 761 -11 basechar 0
AnchorPoint: "up_II" 989 1244 basechar 0
AnchorPoint: "up_I" 761 1342 basechar 0
LayerCount: 2
Fore
SplineSet
761 1342 m 0
 1143 1342 1337 1061 1337 665 c 0
 1337 269 1143 -11 761 -11 c 0
 379 -11 185 269 185 665 c 0
 185 1061 379 1342 761 1342 c 0
761 1289 m 0
 397 1289 244 1008 244 665 c 0
 244 321 398 41 761 41 c 0
 1124 41 1278 322 1278 665 c 0
 1278 1009 1125 1289 761 1289 c 0
EndSplineSet
Substitution2: "'c2sc' Capitals to Small Capitals in Latin lookup 0 subtable" uni1D0F
EndChar

StartChar: P
Encoding: 80 80 48
Width: 1098
GlyphClass: 2
Flags: HMW
AnchorPoint: "down_I" 560 0 basechar 0
AnchorPoint: "up_I" 560 1331 basechar 0
LayerCount: 2
Fore
SplineSet
229 0 m 1
 169 0 l 1
 169 1331 l 1
 629 1331 l 2
 849 1331 984 1184 984 969 c 0
 984 754 850 604 629 604 c 2
 229 604 l 1
 229 0 l 1
229 1278 m 1
 229 656 l 1
 629 656 l 2
 826 656 925 790 925 969 c 0
 925 1148 826 1278 629 1278 c 2
 229 1278 l 1
EndSplineSet
Substitution2: "'c2sc' Capitals to Small Capitals in Latin lookup 0 subtable" uni1D18
EndChar

StartChar: R
Encoding: 82 82 50
Width: 1102
GlyphClass: 2
Flags: HMW
AnchorPoint: "down_I" 560 0 basechar 0
AnchorPoint: "up_I" 560 1331 basechar 0
LayerCount: 2
Fore
SplineSet
704 640 m 1
 1060 0 l 1
 992 0 l 1
 645 640 l 1
 704 640 l 1
EndSplineSet
Refer: 48 80 N 1 0 0 1 0 0 2
Substitution2: "'c2sc' Capitals to Small Capitals in Latin lookup 0 subtable" uni0280
EndChar

StartChar: S
Encoding: 83 83 51
Width: 1139
GlyphClass: 2
Flags: HMW
AnchorPoint: "down_I" 583 -10 basechar 0
AnchorPoint: "up_I" 557 1341 basechar 0
LayerCount: 2
Fore
SplineSet
117 355 m 1
 178 355 l 1
 178 172 346 42 583 42 c 0
 816 42 963 150 963 321 c 0
 963 452 867 528 579 623 c 0
 259 729 146 824 146 988 c 0
 146 1192 320 1341 557 1341 c 0
 804 1341 994 1183 994 977 c 1
 934 977 l 1
 934 1158 774 1291 557 1291 c 0
 354 1291 207 1163 207 988 c 0
 207 857 306 777 600 674 c 0
 915 563 1024 472 1024 321 c 0
 1024 119 853 -10 583 -10 c 0
 312 -10 117 143 117 355 c 1
EndSplineSet
Substitution2: "'c2sc' Capitals to Small Capitals in Latin lookup 0 subtable" uniA731
EndChar

StartChar: T
Encoding: 84 84 52
Width: 1324
GlyphClass: 2
Flags: HMW
AnchorPoint: "down_I" 663 0 basechar 0
AnchorPoint: "up_I" 663 1331 basechar 0
LayerCount: 2
Fore
SplineSet
693 0 m 1
 633 0 l 1
 633 1278 l 1
 127 1278 l 1
 127 1331 l 1
 1199 1331 l 1
 1199 1278 l 1
 693 1278 l 1
 693 0 l 1
EndSplineSet
Substitution2: "'c2sc' Capitals to Small Capitals in Latin lookup 0 subtable" uni1D1B
EndChar

StartChar: U
Encoding: 85 85 53
Width: 1314
GlyphClass: 2
Flags: HMW
AnchorPoint: "down_II" 656 -11 basechar 0
AnchorPoint: "down_I" 656 -11 basechar 0
AnchorPoint: "up_II" 1103 1244 basechar 0
AnchorPoint: "up_I" 657 1331 basechar 0
LayerCount: 2
Fore
SplineSet
1078 1331 m 1
 1139 1331 l 1
 1139 458 l 2
 1139 161 947 -11 656 -11 c 0
 365 -11 175 161 175 458 c 2
 175 1331 l 1
 235 1331 l 1
 235 458 l 2
 235 190 405 39 656 39 c 0
 907 39 1078 190 1078 458 c 2
 1078 1331 l 1
EndSplineSet
Substitution2: "'c2sc' Capitals to Small Capitals in Latin lookup 0 subtable" uni1D1C
EndChar

StartChar: V
Encoding: 86 86 54
Width: 1146
GlyphClass: 2
Flags: HMW
AnchorPoint: "down_I" 572 0 basechar 0
AnchorPoint: "up_I" 573 1331 basechar 0
LayerCount: 2
Fore
SplineSet
577 40 m 5
 1061 1331 l 5
 1125 1331 l 5
 616 0 l 5
 528 0 l 5
 22 1331 l 5
 86 1331 l 5
 567 40 l 5
 577 40 l 5
EndSplineSet
Substitution2: "'c2sc' Capitals to Small Capitals in Latin lookup 0 subtable" uni1D20
EndChar

StartChar: W
Encoding: 87 87 55
Width: 1807
GlyphClass: 2
Flags: HMW
AnchorPoint: "down_I" 904 0 basechar 0
AnchorPoint: "up_I" 904 1331 basechar 0
LayerCount: 2
Fore
SplineSet
1352 28 m 1
 1692 1331 l 1
 1755 1331 l 1
 1407 0 l 1
 1291 0 l 1
 909 1296 l 1
 899 1296 l 1
 510 0 l 1
 401 0 l 1
 53 1331 l 1
 115 1331 l 1
 456 28 l 1
 466 28 l 1
 850 1331 l 1
 958 1331 l 1
 1342 28 l 1
 1352 28 l 1
EndSplineSet
Substitution2: "'c2sc' Capitals to Small Capitals in Latin lookup 0 subtable" uni1D21
EndChar

StartChar: X
Encoding: 88 88 56
Width: 1189
GlyphClass: 2
Flags: HMW
AnchorPoint: "down_I" 595 0 basechar 0
AnchorPoint: "up_I" 595 1331 basechar 0
LayerCount: 2
Fore
SplineSet
1148 0 m 1
 1073 0 l 1
 596 617 l 1
 117 0 l 1
 42 0 l 1
 552 666 l 1
 42 1331 l 1
 117 1331 l 1
 596 713 l 1
 1073 1331 l 1
 1148 1331 l 1
 637 666 l 1
 1148 0 l 1
EndSplineSet
Substitution2: "'c2sc' Capitals to Small Capitals in Latin lookup 0 subtable" uniA7EF
EndChar

StartChar: Y
Encoding: 89 89 57
Width: 1090
GlyphClass: 2
Flags: HMW
AnchorPoint: "down_I" 544 0 basechar 0
AnchorPoint: "up_I" 544 1331 basechar 0
LayerCount: 2
Fore
SplineSet
1018 1331 m 1
 1085 1331 l 1
 574 572 l 1
 574 0 l 1
 514 0 l 1
 514 572 l 1
 5 1331 l 1
 73 1331 l 1
 544 629 l 1
 1018 1331 l 1
EndSplineSet
Substitution2: "'c2sc' Capitals to Small Capitals in Latin lookup 0 subtable" uni028F
EndChar

StartChar: Z
Encoding: 90 90 58
Width: 1205
GlyphClass: 2
Flags: HMW
AnchorPoint: "down_I" 603 0 basechar 0
AnchorPoint: "up_I" 603 1331 basechar 0
LayerCount: 2
Fore
SplineSet
105 1281 m 1
 105 1331 l 1
 1101 1331 l 1
 1101 1253 l 1
 156 52 l 1
 1101 52 l 1
 1101 0 l 1
 105 0 l 1
 105 80 l 1
 1050 1281 l 1
 105 1281 l 1
EndSplineSet
Substitution2: "'c2sc' Capitals to Small Capitals in Latin lookup 0 subtable" uni1D22
EndChar

StartChar: bracketleft
Encoding: 91 91 59
Width: 714
GlyphClass: 2
Flags: HMW
LayerCount: 2
Fore
SplineSet
537 -57 m 1
 537 -112 l 1
 212 -112 l 1
 212 1387 l 1
 537 1387 l 1
 537 1333 l 1
 272 1333 l 1
 272 -57 l 1
 537 -57 l 1
EndSplineSet
Position2: "SinglePositioning1 subtable" dx=0 dy=0 dh=200 dv=0
EndChar

StartChar: backslash
Encoding: 92 92 60
Width: 1157
GlyphClass: 2
Flags: HMW
LayerCount: 2
Fore
SplineSet
934 0 m 1
 872 0 l 1
 214 1331 l 1
 277 1331 l 1
 934 0 l 1
EndSplineSet
EndChar

StartChar: bracketright
Encoding: 93 93 61
Width: 715
GlyphClass: 2
Flags: HMW
LayerCount: 2
Fore
SplineSet
177 1331 m 1
 177 1386 l 1
 504 1386 l 1
 504 -112 l 1
 177 -112 l 1
 177 -59 l 1
 444 -59 l 1
 444 1331 l 1
 177 1331 l 1
EndSplineSet
Position2: "SinglePositioning1 subtable" dx=0 dy=0 dh=200 dv=0
EndChar

StartChar: asciicircum
Encoding: 94 94 62
Width: 787
GlyphClass: 2
Flags: HMW
LayerCount: 2
Fore
SplineSet
638 1131 m 1
 565 1131 l 1
 394 1399 l 1
 222 1131 l 1
 150 1131 l 1
 358 1456 l 1
 430 1456 l 1
 638 1131 l 1
EndSplineSet
EndChar

StartChar: underscore
Encoding: 95 95 63
Width: 800
GlyphClass: 2
Flags: HMW
LayerCount: 2
Fore
SplineSet
700 0 m 1
 700 -59 l 1
 100 -59 l 1
 100 0 l 1
 700 0 l 1
EndSplineSet
Position2: "SinglePositioning1 subtable" dx=0 dy=0 dh=200 dv=0
EndChar

StartChar: grave
Encoding: 96 96 64
Width: 579
GlyphClass: 2
Flags: HMW
LayerCount: 2
Fore
SplineSet
430 1131 m 1
 357 1131 l 1
 150 1456 l 1
 233 1456 l 1
 430 1131 l 1
EndSplineSet
EndChar

StartChar: a
Encoding: 97 97 65
Width: 1056
GlyphClass: 2
Flags: HMW
AnchorPoint: "down_II" 883 0 basechar 0
AnchorPoint: "down_I" 411 -11 basechar 0
AnchorPoint: "up_I" 499 999 basechar 0
LayerCount: 2
Back
SplineSet
874 0 m 1
 820 47 793 123 793 230 c 2
 793 715 l 2
 793 859 682 947 499 947 c 0
 316 947 204 859 204 715 c 1
 145 715 l 1
 145 890 282 999 500 999 c 0
 718 999 853 890 853 715 c 2
 853 232 l 2
 853 115 872 65 941 8 c 1
 936 0 l 1
 874 0 l 1
EndSplineSet
Fore
SplineSet
500 999 m 0
 695 999 853 908 853 715 c 2
 853 217 l 2
 853 110 886 53 1000 53 c 1
 1001 0 l 1
 865 0 793 69 793 213 c 2
 793 715 l 2
 793 875 661 947 499 947 c 0
 337 947 204 875 204 715 c 1
 145 715 l 1
 145 908 305 999 500 999 c 0
EndSplineSet
Refer: 1197 57355 N 1 0 0 1 0 0 2
Substitution2: "'smcp' Lowercase to Small Capitals in Latin lookup 0 subtable" uni1D00
EndChar

StartChar: b
Encoding: 98 98 66
Width: 1068
GlyphClass: 2
Flags: HMW
AnchorPoint: "down_I" 576 -10 basechar 0
AnchorPoint: "up_I" 576 1370 basechar 0
LayerCount: 2
Fore
SplineSet
235 0 m 1
 175 0 l 1
 175 1389 l 1
 235 1389 l 1
 235 0 l 1
EndSplineSet
Refer: 1201 57359 N 1 0 0 1 -40 0 2
Substitution2: "'smcp' Lowercase to Small Capitals in Latin lookup 0 subtable" uni0299
EndChar

StartChar: c
Encoding: 99 99 67
Width: 1082
GlyphClass: 2
Flags: HMW
AnchorPoint: "down_I" 564 -11 basechar 0
AnchorPoint: "up_I" 564 999 basechar 0
LayerCount: 2
Fore
SplineSet
564 999 m 0
 765 999 906 902 968 730 c 1
 914 709 l 1
 863 856 742 947 564 947 c 0
 339 947 182 804 182 495 c 0
 182 186 339 42 564 42 c 0
 742 42 863 136 914 283 c 1
 968 262 l 1
 906 85 764 -11 564 -11 c 0
 304 -11 122 158 122 496 c 0
 122 834 304 999 564 999 c 0
EndSplineSet
Substitution2: "'smcp' Lowercase to Small Capitals in Latin lookup 0 subtable" uni1D04
EndChar

StartChar: d
Encoding: 100 100 68
Width: 1099
GlyphClass: 2
Flags: HMW
AnchorPoint: "down_I" 495 -10 basechar 0
AnchorPoint: "up_II" 897 1331 basechar 0
AnchorPoint: "up_I" 495 1300 basechar 0
LayerCount: 2
Fore
SplineSet
896 1331 m 25
 896 217 l 2
 896 110 929 53 1043 53 c 1
 1044 0 l 1
 908 0 836 69 836 213 c 2
 836 1331 l 25
 896 1331 l 25
EndSplineSet
Refer: 1213 57372 N 1 0 0 1 -148 0 2
Substitution2: "'smcp' Lowercase to Small Capitals in Latin lookup 0 subtable" uni1D05
EndChar

StartChar: e
Encoding: 101 101 69
Width: 1041
GlyphClass: 2
Flags: HMW
AnchorPoint: "down_II" 537 -11 basechar 0
AnchorPoint: "down_I" 537 -11 basechar 0
AnchorPoint: "up_I" 527 999 basechar 0
LayerCount: 2
Fore
SplineSet
151 490 m 1
 152 228 282 42 536 42 c 0
 716 42 829 139 873 248 c 1
 936 248 l 1
 874 84 734 -11 537 -11 c 0
 261 -11 95 175 95 495 c 0
 95 818 267 999 527 999 c 0
 840 999 964 784 958 490 c 1
 151 490 l 1
153 543 m 1
 898 543 l 1
 882 768 796 947 527 947 c 0
 298 947 167 780 153 543 c 1
EndSplineSet
Substitution2: "'smcp' Lowercase to Small Capitals in Latin lookup 0 subtable" uni1D07
EndChar

StartChar: f
Encoding: 102 102 70
Width: 717
GlyphClass: 2
Flags: HMW
AnchorPoint: "down_I" 315 0 basechar 0
AnchorPoint: "up_I" 542 1411 basechar 0
LayerCount: 2
Fore
SplineSet
708 1360 m 1
 678 1317 l 1
 655 1339 606 1357 542 1357 c 0
 418 1357 345 1300 345 1173 c 2
 345 0 l 1
 285 0 l 1
 285 1176 l 2
 285 1340 396 1411 542 1411 c 0
 616 1411 675 1389 708 1360 c 1
EndSplineSet
Refer: 1196 57354 N 1 0 0 1 -24 441 2
Substitution2: "'smcp' Lowercase to Small Capitals in Latin lookup 0 subtable" uniA730
EndChar

StartChar: g
Encoding: 103 103 71
Width: 1068
GlyphClass: 2
Flags: HMW
AnchorPoint: "down_I" 510 -487 basechar 0
AnchorPoint: "up_I" 495 1000 basechar 0
LayerCount: 2
Fore
SplineSet
510 -487 m 0
 297 -487 126 -386 126 -176 c 1
 186 -176 l 1
 186 -353 329 -435 510 -435 c 0
 691 -435 836 -353 836 -176 c 2
 836 990 l 1
 896 990 l 1
 896 -176 l 2
 896 -386 723 -487 510 -487 c 0
EndSplineSet
Refer: 1213 57372 N 1 0 0 1 -148 0 2
Position2: "SinglePositioning1 subtable" dx=0 dy=0 dh=200 dv=0
Substitution2: "'ss01' Style Set 1 in Latin lookup 24 subtable" g.alt
Substitution2: "'smcp' Lowercase to Small Capitals in Latin lookup 0 subtable" uni0262
EndChar

StartChar: h
Encoding: 104 104 72
Width: 1095
GlyphClass: 2
Flags: HMW
AnchorPoint: "down_I" 549 0 basechar 0
AnchorPoint: "up_I" 636 999 basechar 0
LayerCount: 2
Fore
SplineSet
235 0 m 1
 174 0 l 1
 174 1394 l 1
 235 1394 l 1
 235 0 l 1
EndSplineSet
Refer: 1199 57357 N 1 0 0 1 -19 0 2
Substitution2: "'smcp' Lowercase to Small Capitals in Latin lookup 0 subtable" uni029C
EndChar

StartChar: k
Encoding: 107 107 75
Width: 947
GlyphClass: 2
Flags: HMW
AnchorPoint: "down_I" 536 0 basechar 0
AnchorPoint: "up_I" 536 1394 basechar 0
LayerCount: 2
Fore
SplineSet
792 990 m 1
 873 990 l 1
 462 510 l 1
 916 0 l 1
 837 0 l 1
 409 472 l 1
 235 472 l 1
 235 0 l 1
 175 0 l 1
 175 1394 l 1
 235 1394 l 1
 235 535 l 1
 405 535 l 1
 792 990 l 1
EndSplineSet
Substitution2: "'smcp' Lowercase to Small Capitals in Latin lookup 0 subtable" uni1D0B
EndChar

StartChar: l
Encoding: 108 108 76
Width: 409
GlyphClass: 2
Flags: HMW
AnchorPoint: "middle_dot_I" 380 744 basechar 0
AnchorPoint: "down_I" 205 0 basechar 0
AnchorPoint: "up_II" 235 1394 basechar 0
AnchorPoint: "up_I" 205 1394 basechar 0
LayerCount: 2
Fore
SplineSet
235 0 m 1
 175 0 l 1
 175 1394 l 1
 235 1394 l 1
 235 0 l 1
EndSplineSet
Substitution2: "'smcp' Lowercase to Small Capitals in Latin lookup 0 subtable" uni029F
EndChar

StartChar: m
Encoding: 109 109 77
Width: 1610
GlyphClass: 2
Flags: HMW
AnchorPoint: "down_I" 816 0 basechar 0
AnchorPoint: "up_I" 816 999 basechar 0
LayerCount: 2
Fore
SplineSet
149 990 m 1
 208 990 l 1
 209 680 l 1
 209 0 l 1
 149 0 l 1
 149 990 l 1
EndSplineSet
Refer: 1198 57356 N 1 0 0 1 -687 0 2
Refer: 1198 57356 N 1 0 0 1 -49 0 2
Substitution2: "'smcp' Lowercase to Small Capitals in Latin lookup 0 subtable" uni1D0D
EndChar

StartChar: n
Encoding: 110 110 78
Width: 1095
GlyphClass: 2
Flags: HMW
AnchorPoint: "down_I" 546 0 basechar 0
AnchorPoint: "up_I" 636 999 basechar 0
LayerCount: 2
Fore
SplineSet
234 0 m 1
 174 0 l 1
 174 990 l 1
 234 990 l 1
 234 680 l 1
 234 0 l 1
EndSplineSet
Refer: 1199 57357 N 1 0 0 1 -19 0 2
Substitution2: "'smcp' Lowercase to Small Capitals in Latin lookup 0 subtable" uni0274
EndChar

StartChar: o
Encoding: 111 111 79
Width: 1073
GlyphClass: 2
Flags: HMW
AnchorPoint: "down_II" 537 -11 basechar 0
AnchorPoint: "down_I" 537 -11 basechar 0
AnchorPoint: "up_II" 715 910 basechar 0
AnchorPoint: "up_I" 537 999 basechar 0
LayerCount: 2
Fore
SplineSet
537 947 m 0
 312 947 155 804 155 495 c 0
 155 186 312 42 537 42 c 0
 762 42 918 186 918 495 c 0
 918 804 762 947 537 947 c 0
537 999 m 0
 797 999 979 833 979 495 c 0
 979 156 797 -11 537 -11 c 0
 277 -11 95 156 95 495 c 0
 95 833 277 999 537 999 c 0
EndSplineSet
Substitution2: "'smcp' Lowercase to Small Capitals in Latin lookup 0 subtable" uni1D0F
EndChar

StartChar: p
Encoding: 112 112 80
Width: 1068
GlyphClass: 2
Flags: HMW
AnchorPoint: "down_I" 576 -10 basechar 0
AnchorPoint: "up_I" 576 1000 basechar 0
LayerCount: 2
Fore
SplineSet
175 990 m 1
 235 990 l 1
 235 -477 l 1
 175 -477 l 1
 175 990 l 1
EndSplineSet
Refer: 1201 57359 N 1 0 0 1 -40 0 2
Substitution2: "'smcp' Lowercase to Small Capitals in Latin lookup 0 subtable" uni1D18
EndChar

StartChar: q
Encoding: 113 113 81
Width: 1069
GlyphClass: 2
Flags: HMW
AnchorPoint: "down_I" 495 -10 basechar 0
AnchorPoint: "up_I" 495 1000 basechar 0
LayerCount: 2
Fore
SplineSet
836 990 m 1
 897 990 l 1
 897 -477 l 1
 836 -477 l 1
 836 990 l 1
EndSplineSet
Refer: 1213 57372 N 1 0 0 1 -148 0 2
Position2: "SinglePositioning1 subtable" dx=0 dy=0 dh=200 dv=0
Substitution2: "'smcp' Lowercase to Small Capitals in Latin lookup 0 subtable" uniA7EE
EndChar

StartChar: r
Encoding: 114 114 82
Width: 754
GlyphClass: 2
Flags: HMW
AnchorPoint: "down_I" 205 0 basechar 0
AnchorPoint: "up_I" 447 999 basechar 0
LayerCount: 2
Fore
SplineSet
175 990 m 1
 235 990 l 1
 235 541 l 1
 235 0 l 1
 175 0 l 1
 175 990 l 1
EndSplineSet
Refer: 1200 57358 N 1 0 0 1 0 0 2
Substitution2: "'smcp' Lowercase to Small Capitals in Latin lookup 0 subtable" uni0280
EndChar

StartChar: s
Encoding: 115 115 83
Width: 931
GlyphClass: 2
Flags: HMW
AnchorPoint: "down_I" 476 -10 basechar 0
AnchorPoint: "up_I" 480 999 basechar 0
LayerCount: 2
Fore
SplineSet
480 999 m 0
 693 999 824 891 824 715 c 1
 764 715 l 1
 764 860 658 947 481 947 c 0
 310 947 203 865 203 732 c 0
 203 625 272 574 482 523 c 0
 733 462 826 391 826 257 c 0
 826 94 690 -10 476 -10 c 0
 256 -10 118 101 118 275 c 1
 179 274 l 1
 179 131 293 43 477 43 c 0
 656 43 769 125 769 258 c 0
 769 361 701 411 493 460 c 0
 238 520 146 593 146 733 c 0
 146 897 274 999 480 999 c 0
EndSplineSet
Substitution2: "'smcp' Lowercase to Small Capitals in Latin lookup 0 subtable" uniA731
EndChar

StartChar: t
Encoding: 116 116 84
Width: 741
GlyphClass: 2
Flags: HMW
AnchorPoint: "down_I" 526 -10 basechar 0
AnchorPoint: "up_II" 613 1278 basechar 0
AnchorPoint: "up_I" 299 1278 basechar 0
LayerCount: 2
Fore
SplineSet
638 55 m 1
 648 6 l 1
 610 -4 568 -10 526 -10 c 0
 380 -10 269 59 269 223 c 2
 269 1278 l 1
 329 1278 l 1
 329 227 l 2
 329 100 401 43 525 43 c 0
 568 43 614 50 638 55 c 1
EndSplineSet
Refer: 1196 57354 N 1 0 0 1 -24 441 2
Substitution2: "'smcp' Lowercase to Small Capitals in Latin lookup 0 subtable" uni1D1B
EndChar

StartChar: u
Encoding: 117 117 85
Width: 1125
GlyphClass: 2
Flags: HMW
AnchorPoint: "down_II" 892 0 basechar 0
AnchorPoint: "down_I" 460 -9 basechar 0
AnchorPoint: "up_II" 888 910 basechar 0
AnchorPoint: "up_I" 549 990 basechar 0
LayerCount: 2
Fore
SplineSet
922 990 m 25
 922 217 l 2
 922 110 955 53 1069 53 c 1
 1070 0 l 1
 934 0 862 69 862 213 c 2
 862 990 l 25
 922 990 l 25
EndSplineSet
Refer: 1199 57357 N -1 0 0 -1 1115 990 2
Substitution2: "'smcp' Lowercase to Small Capitals in Latin lookup 0 subtable" uni1D1C
EndChar

StartChar: v
Encoding: 118 118 86
Width: 888
GlyphClass: 2
Flags: HMW
AnchorPoint: "down_I" 451 0 basechar 0
AnchorPoint: "up_I" 451 990 basechar 0
LayerCount: 2
Fore
SplineSet
456 42 m 5
 813 990 l 5
 873 990 l 5
 498 0 l 5
 402 0 l 5
 16 990 l 5
 78 990 l 5
 446 42 l 5
 456 42 l 5
EndSplineSet
Substitution2: "'smcp' Lowercase to Small Capitals in Latin lookup 0 subtable" uni1D20
EndChar

StartChar: w
Encoding: 119 119 87
Width: 1487
GlyphClass: 2
Flags: HMW
AnchorPoint: "down_I" 744 0 basechar 0
AnchorPoint: "up_I" 744 968 basechar 0
LayerCount: 2
Fore
SplineSet
1075 60 m 1
 1343 990 l 1
 1398 990 l 1
 1108 0 l 1
 1034 0 l 1
 749 923 l 1
 739 923 l 1
 456 0 l 1
 381 0 l 1
 90 990 l 1
 147 990 l 1
 416 60 l 1
 426 60 l 1
 707 968 l 1
 783 968 l 1
 1065 60 l 1
 1075 60 l 1
EndSplineSet
Substitution2: "'smcp' Lowercase to Small Capitals in Latin lookup 0 subtable" uni1D21
EndChar

StartChar: x
Encoding: 120 120 88
Width: 980
GlyphClass: 2
Flags: HMW
AnchorPoint: "down_I" 488 0 basechar 0
AnchorPoint: "up_I" 488 990 basechar 0
LayerCount: 2
Fore
SplineSet
868 990 m 1
 938 990 l 1
 521 500 l 1
 938 0 l 1
 867 0 l 1
 488 459 l 1
 112 0 l 1
 42 0 l 1
 455 500 l 1
 42 990 l 1
 111 990 l 1
 488 538 l 1
 868 990 l 1
EndSplineSet
Substitution2: "'smcp' Lowercase to Small Capitals in Latin lookup 0 subtable" uniA7EF
EndChar

StartChar: y
Encoding: 121 121 89
Width: 888
GlyphClass: 2
Flags: HMW
AnchorPoint: "down_I" 447 -477 basechar 0
AnchorPoint: "up_I" 451 990 basechar 0
LayerCount: 2
Fore
SplineSet
16 990 m 5
 78 990 l 5
 445 30 l 5
 455 30 l 5
 813 990 l 5
 873 990 l 5
 412 -226 l 6
 344 -404 226 -487 66 -487 c 6
 -0 -487 l 5
 -0 -433 l 5
 66 -433 l 6
 204 -433 296 -371 352 -223 c 6
 420 -42 l 5
 16 990 l 5
EndSplineSet
Substitution2: "'smcp' Lowercase to Small Capitals in Latin lookup 0 subtable" uni028F
EndChar

StartChar: z
Encoding: 122 122 90
Width: 867
GlyphClass: 2
Flags: HMW
AnchorPoint: "down_I" 434 0 basechar 0
AnchorPoint: "up_I" 434 990 basechar 0
LayerCount: 2
Fore
SplineSet
53 936 m 1
 53 990 l 1
 816 990 l 1
 816 917 l 1
 100 53 l 1
 816 53 l 1
 816 0 l 1
 53 0 l 1
 53 74 l 1
 767 936 l 1
 53 936 l 1
EndSplineSet
Substitution2: "'smcp' Lowercase to Small Capitals in Latin lookup 0 subtable" uni1D22
EndChar

StartChar: braceleft
Encoding: 123 123 91
Width: 791
GlyphClass: 2
Flags: HMW
LayerCount: 2
Fore
SplineSet
692 1386 m 1
 692 1333 l 1
 515 1333 l 2
 430 1333 378 1265 378 1188 c 2
 378 960 l 2
 378 818 320 718 173 643 c 1
 173 633 l 1
 322 557 378 459 378 318 c 2
 378 87 l 2
 378 10 430 -57 515 -57 c 2
 692 -57 l 1
 692 -112 l 1
 528 -112 l 2
 398 -112 317 -25 317 87 c 2
 317 318 l 2
 317 468 219 587 94 608 c 2
 70 612 l 1
 70 665 l 1
 94 671 l 2
 215 707 317 810 317 960 c 2
 317 1188 l 2
 317 1300 398 1386 528 1386 c 2
 692 1386 l 1
EndSplineSet
Position2: "SinglePositioning1 subtable" dx=0 dy=0 dh=200 dv=0
EndChar

StartChar: bar
Encoding: 124 124 92
Width: 487
GlyphClass: 2
Flags: HMW
LayerCount: 2
Fore
SplineSet
215 1331 m 1
 274 1331 l 1
 274 -435 l 1
 215 -435 l 1
 215 1331 l 1
EndSplineSet
EndChar

StartChar: braceright
Encoding: 125 125 93
Width: 791
GlyphClass: 2
Flags: HMW
LayerCount: 2
Fore
SplineSet
100 -112 m 1
 100 -59 l 1
 277 -59 l 2
 362 -59 415 9 415 86 c 2
 415 314 l 2
 415 456 471 556 619 631 c 1
 619 641 l 1
 470 717 415 815 415 956 c 2
 415 1187 l 2
 415 1264 362 1331 277 1331 c 2
 100 1331 l 1
 100 1386 l 1
 265 1386 l 2
 395 1386 475 1299 475 1187 c 2
 475 956 l 2
 475 806 573 687 698 666 c 2
 722 662 l 1
 722 609 l 1
 698 603 l 2
 577 567 475 464 475 314 c 2
 475 86 l 2
 475 -26 395 -112 265 -112 c 2
 100 -112 l 1
EndSplineSet
EndChar

StartChar: asciitilde
Encoding: 126 126 94
Width: 1175
GlyphClass: 2
Flags: HMW
LayerCount: 2
Fore
SplineSet
140 533 m 1
 201.208984375 680 278.813476562 752 375 752 c 0
 431 752 492 722 600 643 c 0
 695 573 747 548 791 548 c 0
 864.674804688 548 924.953125 607 983 735 c 1
 1035 711 l 1
 971.654296875 565 893.018554688 492 798 492 c 0
 745 492 689 519 589 592 c 0
 488 666 427 696 378 696 c 0
 302.927734375 696 246.903320312 640 192 509 c 1
 140 533 l 1
EndSplineSet
EndChar

StartChar: sterling
Encoding: 163 163 98
Width: 1225
GlyphClass: 2
Flags: HMW
LayerCount: 2
Fore
SplineSet
647 1289 m 0
 524 1289 419 1232 419 1049 c 2
 419 271 l 2
 419 192 396 118 340 63 c 1
 340 53 l 1
 1089 53 l 1
 1089 0 l 1
 139 0 l 1
 139 52 l 1
 284 52 358 122 358 271 c 2
 358 1054 l 2
 358 1249 478 1342 647 1342 c 0
 853 1342 931 1203 931 1085 c 1
 873 1085 l 1
 873 1188 803 1289 647 1289 c 0
EndSplineSet
Refer: 1196 57354 N 1 0 0 1 19 8 2
EndChar

StartChar: currency
Encoding: 164 164 99
Width: 1295
GlyphClass: 2
Flags: HMW
LayerCount: 2
Fore
SplineSet
895 100 m 1
 946 140 l 1
 1191 -142 l 1
 1141 -181 l 1
 895 100 l 1
352 140 m 1
 403 100 l 1
 157 -181 l 1
 106 -142 l 1
 352 140 l 1
946 850 m 1
 895 889 l 1
 1141 1172 l 1
 1191 1132 l 1
 946 850 l 1
403 889 m 1
 352 850 l 1
 106 1132 l 1
 157 1172 l 1
 403 889 l 1
EndSplineSet
Refer: 79 111 N 1 0 0 1 120 0 2
EndChar

StartChar: brokenbar
Encoding: 166 166 101
Width: 483
GlyphClass: 2
Flags: HMW
LayerCount: 2
Fore
SplineSet
272 863 m 1
 212 863 l 1
 212 1331 l 1
 272 1331 l 1
 272 863 l 1
272 0 m 1
 212 0 l 1
 212 468 l 1
 272 468 l 1
 272 0 l 1
EndSplineSet
EndChar

StartChar: section
Encoding: 167 167 102
Width: 921
GlyphClass: 2
Flags: HMW
LayerCount: 2
Fore
SplineSet
590 417 m 1
 699 381 785 325 785 196 c 0
 785 7 626 -74 444 -74 c 0
 319 -74 198 -34 122 14 c 1
 150 63 l 1
 216 22 329 -22 444 -22 c 0
 592 -22 725 44 725 194 c 0
 725 331 600 366 460 402 c 0
 288 447 152 494 152 659 c 0
 152 792 249 875 365 911 c 1
 365 921 l 1
 249 960 169 1016 169 1135 c 0
 169 1320 337 1413 488 1413 c 0
 608 1413 712 1368 785 1306 c 1
 749 1263 l 1
 684 1318 608 1359 487 1359 c 0
 361 1359 228 1287 228 1139 c 0
 228 1014 331 974 491 935 c 0
 647 897 802 858 802 672 c 0
 802 539 711 460 590 427 c 1
 590 417 l 1
488 455 m 1
 624 463 744 529 744 670 c 0
 744 807 615 844 458 883 c 1
 335 879 211 807 211 663 c 0
 211 531 324 495 488 455 c 1
EndSplineSet
EndChar

StartChar: dieresis
Encoding: 168 168 103
Width: 769
GlyphClass: 2
Flags: HMW
LayerCount: 2
Fore
SplineSet
150 1202 m 0
 150 1241 178 1272 220 1272 c 0
 262 1272 292 1241 292 1202 c 0
 292 1163 262 1131 220 1131 c 0
 178 1131 150 1163 150 1202 c 0
479 1202 m 0
 479 1241 507 1272 549 1272 c 0
 591 1272 621 1241 621 1202 c 0
 621 1163 591 1131 549 1131 c 0
 507 1131 479 1163 479 1202 c 0
EndSplineSet
EndChar

StartChar: copyright
Encoding: 169 169 104
Width: 1966
GlyphClass: 2
Flags: HMW
LayerCount: 2
Fore
SplineSet
218 775 m 0
 218 350 525 13 984 13 c 0
 1443 13 1750 350 1750 775 c 0
 1750 1200 1443 1538 984 1538 c 0
 525 1538 218 1200 218 775 c 0
159 775 m 0
 159 1221 472 1591 984 1591 c 0
 1496 1591 1809 1221 1809 775 c 0
 1809 328 1496 -40 984 -40 c 0
 472 -40 159 328 159 775 c 0
1269 1013 m 1
 1228 979 l 1
 1155 1052 1088 1090 980 1090 c 0
 798 1090 687 937 687 779 c 0
 687 621 798 470 980 470 c 0
 1088 470 1155 507 1228 580 c 1
 1269 544 l 1
 1183 458 1105 414 978 414 c 0
 764 414 633 593 633 779 c 0
 633 965 764 1145 978 1145 c 0
 1105 1145 1183 1099 1269 1013 c 1
EndSplineSet
EndChar

StartChar: ordfeminine
Encoding: 170 170 105
Width: 893
GlyphClass: 2
Flags: HMW
LayerCount: 2
Fore
SplineSet
592 1376 m 1
 592 1470 l 2
 592 1567 509 1612 406 1612 c 0
 298 1612 224 1571 224 1468 c 1
 168 1468 l 1
 168 1605 273 1662 406 1662 c 0
 534 1662 649 1602 649 1470 c 2
 649 1157 l 2
 649 1086 669 1063 744 1063 c 1
 744 1011 l 1
 661 1011 613 1040 598 1108 c 1
 552 1056 470 1001 349 1001 c 0
 228 1001 150 1065 150 1181 c 0
 150 1318 257 1376 409 1376 c 2
 592 1376 l 1
592 1324 m 1
 409 1324 l 2
 277 1324 206 1274 206 1183 c 0
 206 1089 260 1053 360 1053 c 0
 487 1053 561 1133 592 1178 c 1
 592 1324 l 1
EndSplineSet
EndChar

StartChar: guillemotleft
Encoding: 171 171 106
Width: 849
GlyphClass: 2
Flags: HMW
LayerCount: 2
Fore
SplineSet
410 623 m 0
 410 772 545 925 721 1050 c 1
 750 1009 l 1
 611 914 466 772 466 623 c 0
 466 474 611 330 750 235 c 1
 721 195 l 1
 545 320 410 474 410 623 c 0
100 623 m 0
 100 784 185 925 365 1102 c 1
 399 1065 l 1
 250 914 155 784 155 623 c 0
 155 462 250 330 399 179 c 1
 365 144 l 1
 185 321 100 462 100 623 c 0
EndSplineSet
Position2: "SinglePositioning1 subtable" dx=0 dy=0 dh=200 dv=0
Substitution2: "'locl' Localized Forms in Latin lookup 6 subtable" guillemotleft.alt
EndChar

StartChar: logicalnot
Encoding: 172 172 107
Width: 1203
GlyphClass: 2
Flags: HMW
LayerCount: 2
Fore
SplineSet
122 528 m 1
 122 587 l 1
 1013 587 l 1
 1013 274 l 1
 954 274 l 1
 954 528 l 1
 122 528 l 1
EndSplineSet
EndChar

StartChar: uni00AD
Encoding: 173 173 108
Width: 1183
GlyphClass: 2
Flags: HMW
LayerCount: 2
Fore
SplineSet
1003 587 m 1
 1003 528 l 1
 180 528 l 1
 180 587 l 1
 1003 587 l 1
EndSplineSet
EndChar

StartChar: registered
Encoding: 174 174 109
Width: 1966
GlyphClass: 2
Flags: HMW
LayerCount: 2
Fore
SplineSet
218 775 m 0
 218 350 525 13 984 13 c 0
 1443 13 1750 350 1750 775 c 0
 1750 1200 1443 1538 984 1538 c 0
 525 1538 218 1200 218 775 c 0
159 775 m 0
 159 1221 472 1591 984 1591 c 0
 1496 1591 1809 1221 1809 775 c 0
 1809 328 1496 -40 984 -40 c 0
 472 -40 159 328 159 775 c 0
1291 419 m 1
 1230 419 l 1
 1061 628 l 1
 1043 626 1025 625 1006 625 c 2
 811 625 l 1
 811 417 l 1
 756 417 l 1
 756 1127 l 1
 1006 1127 l 2
 1170 1127 1279 1020 1279 875 c 0
 1279 765 1215 677 1111 641 c 1
 1291 419 l 1
811 675 m 1
 1006 675 l 2
 1129 675 1227 755 1227 875 c 0
 1227 996 1130 1079 1006 1079 c 2
 811 1079 l 1
 811 675 l 1
EndSplineSet
EndChar

StartChar: macron
Encoding: 175 175 110
Width: 999
GlyphClass: 2
Flags: HMW
LayerCount: 2
Fore
SplineSet
850 1191 m 1
 850 1131 l 1
 150 1131 l 1
 150 1191 l 1
 850 1191 l 1
EndSplineSet
EndChar

StartChar: degree
Encoding: 176 176 111
Width: 729
GlyphClass: 2
Flags: HMW
LayerCount: 2
Fore
SplineSet
527 1343 m 0
 527 1434 456 1508 365 1508 c 0
 274 1508 202 1434 202 1343 c 0
 202 1252 274 1181 365 1181 c 0
 456 1181 527 1252 527 1343 c 0
578 1343 m 0
 578 1225 483 1131 365 1131 c 0
 247 1131 152 1225 152 1343 c 0
 152 1461 247 1558 365 1558 c 0
 483 1558 578 1461 578 1343 c 0
EndSplineSet
EndChar

StartChar: uni00B2
Encoding: 178 178 113
Width: 589
GlyphClass: 2
Flags: HMW
LayerCount: 2
Fore
SplineSet
42 960 m 1
 42 1032 l 1
 410 1336 l 2
 469 1384 487 1422 487 1488 c 0
 487 1589 412 1650 300 1650 c 0
 191 1650 113 1586 113 1490 c 1
 55 1490 l 1
 55 1617 159 1707 300 1707 c 0
 443 1707 545 1618 545 1487 c 0
 545 1408 519 1357 445 1297 c 2
 114 1030 l 1
 114 1019 l 1
 562 1019 l 1
 562 960 l 1
 42 960 l 1
EndSplineSet
EndChar

StartChar: uni00B3
Encoding: 179 179 114
Width: 637
GlyphClass: 2
Flags: HMW
LayerCount: 2
Fore
SplineSet
323 1707 m 0
 463 1707 559 1631 559 1514 c 0
 559 1439 511 1367 417 1341 c 1
 417 1330 l 1
 524 1306 581 1235 581 1158 c 0
 581 1029 486 957 324 957 c 0
 165 957 58 1035 58 1162 c 1
 118 1162 l 1
 118 1065 196 1014 324 1014 c 0
 454 1014 520 1058 520 1159 c 0
 520 1256 443 1307 300 1307 c 2
 240 1307 l 1
 240 1367 l 1
 300 1367 l 2
 424 1367 497 1422 497 1514 c 0
 497 1602 432 1650 323 1650 c 0
 215 1650 153 1608 153 1525 c 1
 91 1525 l 1
 91 1637 184 1707 323 1707 c 0
EndSplineSet
EndChar

StartChar: acute
Encoding: 180 180 115
Width: 579
GlyphClass: 2
Flags: HMW
LayerCount: 2
Fore
SplineSet
347 1456 m 1
 430 1456 l 1
 223 1131 l 1
 150 1131 l 1
 347 1456 l 1
EndSplineSet
EndChar

StartChar: mu
Encoding: 181 181 116
Width: 1125
GlyphClass: 2
Flags: HMW
LayerCount: 2
Fore
SplineSet
159 990 m 1
 220 990 l 1
 220 -435 l 1
 159 -435 l 1
 159 990 l 1
EndSplineSet
Refer: 85 117 N 1 0 0 1 0 0 2
EndChar

StartChar: paragraph
Encoding: 182 182 117
Width: 1321
GlyphClass: 2
Flags: HMW
LayerCount: 2
Fore
SplineSet
1111 -477 m 1
 1050 -477 l 1
 1050 1278 l 1
 844 1278 l 1
 844 -477 l 1
 784 -477 l 1
 784 406 l 1
 544 406 l 2
 296 406 106 587 106 869 c 0
 106 1151 296 1331 544 1331 c 2
 1111 1331 l 1
 1111 -477 l 1
EndSplineSet
EndChar

StartChar: periodcentered
Encoding: 183 183 118
Width: 499
GlyphClass: 2
Flags: HMW
LayerCount: 2
Fore
SplineSet
163 666 m 0
 163 715 198 753 251 753 c 0
 304 753 339 715 339 666 c 0
 339 617 304 577 251 577 c 0
 198 577 163 617 163 666 c 0
EndSplineSet
EndChar

StartChar: cedilla
Encoding: 184 184 119
Width: 672
GlyphClass: 2
Flags: HMW
LayerCount: 2
Fore
SplineSet
523 -279 m 0
 523 -378 445 -439 321 -439 c 0
 262 -439 204 -425 150 -398 c 1
 170 -353 l 1
 209 -375 267 -388 324 -388 c 0
 418 -388 470 -351 470 -284 c 0
 470 -208 404 -161 303 -161 c 0
 292 -161 280 -162 268 -163 c 1
 268 1 l 1
 328 1 l 1
 328 -117 l 1
 450 -117 523 -179 523 -279 c 0
EndSplineSet
EndChar

StartChar: uni00B9
Encoding: 185 185 120
Width: 477
GlyphClass: 2
Flags: HMW
LayerCount: 2
Fore
SplineSet
54 1451 m 1
 54 1508 l 1
 317 1508 l 1
 317 1701 l 1
 375 1701 l 1
 375 961 l 1
 317 961 l 1
 317 1451 l 1
 54 1451 l 1
EndSplineSet
EndChar

StartChar: guillemotright
Encoding: 187 187 122
Width: 849
GlyphClass: 2
Flags: HMW
LayerCount: 2
Fore
SplineSet
440 623 m 0
 440 474 305 320 129 195 c 1
 100 235 l 1
 239 330 385 474 385 623 c 0
 385 772 239 914 100 1009 c 1
 129 1050 l 1
 305 925 440 772 440 623 c 0
750 623 m 0
 750 462 665 321 485 144 c 1
 451 179 l 1
 600 330 695 462 695 623 c 0
 695 784 600 914 451 1065 c 1
 485 1102 l 1
 665 925 750 784 750 623 c 0
EndSplineSet
Substitution2: "'locl' Localized Forms in Latin lookup 6 subtable" guillemotright.alt
EndChar

StartChar: AE
Encoding: 198 198 133
Width: 1376
GlyphClass: 2
Flags: HMW
AnchorPoint: "down_I" 685 0 basechar 0
AnchorPoint: "up_I" 890 1331 basechar 0
LayerCount: 2
Fore
SplineSet
655 1278 m 1
 583 1278 l 1
 267 466 l 1
 655 466 l 1
 655 1278 l 1
545 1331 m 1
 1294 1331 l 1
 1294 1278 l 1
 715 1278 l 1
 715 693 l 1
 1236 693 l 1
 1236 636 l 1
 715 636 l 1
 715 52 l 1
 1294 52 l 1
 1294 0 l 1
 655 0 l 1
 655 411 l 1
 245 411 l 1
 85 0 l 1
 22 0 l 1
 545 1331 l 1
EndSplineSet
EndChar

StartChar: multiply
Encoding: 215 215 150
Width: 943
GlyphClass: 2
Flags: HMW
LayerCount: 2
Fore
SplineSet
801 957 m 1
 843 915 l 1
 514 587 l 1
 843 259 l 1
 800 217 l 1
 472 544 l 1
 143 215 l 1
 100 258 l 1
 429 587 l 1
 100 918 l 1
 141 961 l 1
 472 629 l 1
 801 957 l 1
EndSplineSet
Substitution2: "'tnum' Tabular Numbers lookup 22 subtable" multiply.tnum
EndChar

StartChar: Thorn
Encoding: 222 222 157
Width: 1098
GlyphClass: 2
Flags: HMW
AnchorPoint: "down_I" 560 0 basechar 0
AnchorPoint: "up_I" 560 1331 basechar 0
LayerCount: 2
Fore
SplineSet
233 0 m 1
 173 0 l 1
 173 1331 l 1
 233 1331 l 1
 233 1029 l 1
 633 1029 l 2
 853 1029 989 882 989 665 c 0
 989 451 854 302 633 302 c 2
 233 302 l 1
 233 0 l 1
233 976 m 1
 233 354 l 1
 633 354 l 2
 830 354 929 487 929 665 c 0
 929 845 830 976 633 976 c 2
 233 976 l 1
EndSplineSet
EndChar

StartChar: germandbls
Encoding: 223 223 158
Width: 1216
GlyphClass: 2
Flags: HMW
LayerCount: 2
Fore
SplineSet
474 0 m 1
 483 53 l 1
 539 47 597 42 651 42 c 0
 877 42 1028 124 1028 248 c 0
 1028 369 947 434 859 492 c 0
 768 552 672 634 672 751 c 0
 672 836 715 902 768 962 c 0
 830 1033 869 1108 869 1230 c 0
 869 1384 780 1524 568 1524 c 0
 352 1524 262 1387 262 1190 c 2
 262 0 l 1
 203 0 l 1
 203 1190 l 2
 203 1396 298 1578 568 1578 c 0
 831 1578 934 1398 934 1235 c 0
 934 1112 897 1026 829 949 c 0
 764 878 724 831 724 757 c 0
 724 653 810 592 904 530 c 0
 995 471 1089 387 1089 248 c 0
 1089 71 871 -11 628 -11 c 0
 577 -11 525 -8 474 0 c 1
EndSplineSet
EndChar

StartChar: ae
Encoding: 230 230 165
Width: 1743
GlyphClass: 2
Flags: HMW
AnchorPoint: "down_I" 813 -11 basechar 0
AnchorPoint: "up_I" 853 1000 basechar 0
LayerCount: 2
Fore
SplineSet
793 249 m 1
 793 715 l 2
 793 875 661 947 499 947 c 0
 337 947 204 875 204 715 c 1
 145 715 l 1
 145 908 305 999 500 999 c 0
 695 999 853 908 853 715 c 2
 853 249 l 1
 793 249 l 1
117 258 m 0
 117 468 273 543 483 543 c 2
 852 543 l 1
 852 490 l 1
 482 490 l 2
 302 490 178 425 178 262 c 0
 178 126 244 42 422 42 c 0
 630 42 775 217 807 272 c 1
 840 251 l 1
 805 177 638 -11 405 -11 c 0
 232 -11 117 82 117 258 c 0
EndSplineSet
Refer: 69 101 N 1 0 0 1 702 0 2
Substitution2: "'c2sc' Capitals to Small Capitals in Latin lookup 0 subtable" uni1D01
Substitution2: "'smcp' Lowercase to Small Capitals in Latin lookup 0 subtable" uni1D01
EndChar

StartChar: eth
Encoding: 240 240 175
Width: 1072
GlyphClass: 2
Flags: HMW
LayerCount: 2
Fore
SplineSet
537 947 m 0
 270 947 155 750 155 495 c 0
 155 240 270 42 537 42 c 0
 804 42 917 240 917 495 c 0
 917 750 804 947 537 947 c 0
537 999 m 0
 687 999 810 942 890 782 c 1
 899 786 l 1
 825 979 689 1163 559 1273 c 1
 355 1104 l 1
 322 1145 l 1
 523 1303 l 1
 466 1352 391 1390 329 1418 c 1
 352 1465 l 1
 408 1438 488 1398 567 1337 c 1
 742 1482 l 1
 772 1444 l 1
 599 1307 l 1
 828 1108 978 778 978 502 c 0
 978 186 820 -11 537 -11 c 0
 254 -11 95 184 95 495 c 0
 95 806 254 999 537 999 c 0
EndSplineSet
EndChar

StartChar: dotlessi
Encoding: 305 305 240
Width: 462
GlyphClass: 2
Flags: HMW
AnchorPoint: "down_II" 232 0 basechar 0
AnchorPoint: "down_I" 232 0 basechar 0
AnchorPoint: "up_I" 232 990 basechar 0
LayerCount: 2
Fore
SplineSet
202 990 m 1
 262 990 l 1
 262 0 l 1
 202 0 l 1
 202 990 l 1
EndSplineSet
EndChar

StartChar: Eng
Encoding: 330 330 265
Width: 1353
GlyphClass: 2
Flags: HMW
LayerCount: 2
Fore
SplineSet
274 1331 m 1
 335 1331 l 1
 335 0 l 1
 274 0 l 1
 274 1331 l 1
792 1342 m 0
 1082 1342 1237 1170 1237 873 c 1
 1237 223 l 2
 1237 59 1135 -11 989 -11 c 0
 947 -11 905 -5 867 5 c 1
 879 54 l 1
 903 49 947 42 990 42 c 0
 1114 42 1178 100 1178 227 c 2
 1178 873 l 1
 1178 1141 1038 1292 787 1292 c 0
 536 1292 385 1101 335 833 c 1
 294 833 l 1
 344 1130 512 1342 792 1342 c 0
EndSplineSet
EndChar

StartChar: eng
Encoding: 331 331 266
Width: 1095
GlyphClass: 2
Flags: HMW
LayerCount: 2
Fore
SplineSet
876 10 m 1
 936 10 l 1
 936 -252 l 2
 936 -416 825 -487 679 -487 c 0
 605 -487 546 -465 513 -436 c 1
 543 -394 l 1
 566 -416 615 -433 679 -433 c 0
 803 -433 876 -376 876 -249 c 2
 876 10 l 1
EndSplineSet
Refer: 78 110 N 1 0 0 1 0 0 2
EndChar

StartChar: OE
Encoding: 338 338 273
Width: 1588
GlyphClass: 2
Flags: HMW
LayerCount: 2
Fore
SplineSet
883 1278 m 1
 754 1278 l 2
 410 1278 254 1008 254 665 c 0
 254 321 410 52 754 52 c 2
 883 52 l 1
 883 1278 l 1
943 1278 m 1
 943 693 l 1
 1465 693 l 1
 1465 636 l 1
 943 636 l 1
 943 52 l 1
 1521 52 l 1
 1521 0 l 1
 754 0 l 2
 390 0 193 269 193 665 c 0
 193 1061 390 1331 754 1331 c 2
 1521 1331 l 1
 1521 1278 l 1
 943 1278 l 1
EndSplineSet
EndChar

StartChar: longs
Encoding: 383 383 318
Width: 717
GlyphClass: 2
Flags: HMW
AnchorPoint: "down_I" 315 0 basechar 0
AnchorPoint: "up_I" 542 1411 basechar 0
LayerCount: 2
Fore
SplineSet
708 1360 m 1
 678 1318 l 1
 655 1340 606 1357 542 1357 c 0
 418 1357 345 1300 345 1173 c 2
 345 0 l 1
 285 0 l 1
 285 1176 l 2
 285 1340 396 1411 542 1411 c 0
 616 1411 675 1389 708 1360 c 1
EndSplineSet
Refer: 1208 57366 N 1 0 0 1 0 0 2
EndChar

StartChar: uni018F
Encoding: 399 399 321
Width: 1338
GlyphClass: 2
Flags: HMW
LayerCount: 2
Fore
SplineSet
1182 598 m 1
 144 598 l 1
 142 297 330 42 663 42 c 0
 981 42 1182 280 1182 598 c 1
1184 655 m 1
 1184 1050 991 1289 651 1289 c 0
 410 1289 233 1156 167 976 c 1
 113 996 l 1
 196 1216 385 1342 650 1342 c 0
 1021 1342 1244 1093 1244 663 c 0
 1244 229 1022 -11 663 -11 c 0
 261 -11 73 295 84 655 c 1
 1184 655 l 1
EndSplineSet
EndChar

StartChar: uni01B7
Encoding: 439 439 326
Width: 1243
GlyphClass: 2
Flags: HMW
LayerCount: 2
Fore
SplineSet
586 -487 m 0
 348 -487 182 -389 97 -231 c 1
 147 -198 l 1
 230 -348 383 -434 588 -434 c 0
 927 -434 1089 -243 1089 72 c 0
 1089 378 865 570 543 580 c 1
 515 633 l 1
 1025 1281 l 1
 80 1281 l 1
 80 1331 l 1
 1076 1331 l 1
 1076 1253 l 1
 587 630 l 1
 903 604 1149 413 1149 72 c 0
 1149 -296 946 -487 586 -487 c 0
EndSplineSet
EndChar

StartChar: uni0237
Encoding: 567 567 426
Width: 431
GlyphClass: 2
Flags: HMW
AnchorPoint: "down_I" -15 -487 basechar 0
AnchorPoint: "up_I" 213 990 basechar 0
LayerCount: 2
Fore
SplineSet
-137 -471 m 1
 -125 -422 l 1
 -101 -427 -57 -433 -14 -433 c 0
 110 -433 182 -376 182 -249 c 2
 182 990 l 1
 243 990 l 1
 243 -253 l 2
 243 -417 131 -487 -15 -487 c 0
 -57 -487 -99 -481 -137 -471 c 1
EndSplineSet
EndChar

StartChar: uni0239
Encoding: 569 569 428
Width: 1727
GlyphClass: 2
Flags: HMW
LayerCount: 2
Fore
SplineSet
834 990 m 1
 894 990 l 1
 894 -477 l 1
 834 -477 l 1
 834 990 l 1
EndSplineSet
Refer: 1201 57359 N 1 0 0 1 619 0 2
Refer: 1213 57372 N 1 0 0 1 -150 0 2
EndChar

StartChar: uni0240
Encoding: 576 576 429
Width: 867
GlyphClass: 2
Flags: HMW
LayerCount: 2
Fore
SplineSet
777 -280 m 0
 664 -280 575 -217 499 -149 c 0
 408 -68 313 0 53 0 c 1
 53 74 l 1
 767 936 l 1
 53 936 l 1
 53 990 l 1
 816 990 l 1
 816 917 l 1
 100 53 l 1
 341 53 435 -16 523 -97 c 0
 595 -163 680 -227 777 -227 c 0
 866 -227 894 -206 942 -139 c 1
 983 -169 l 1
 928 -244 876 -280 777 -280 c 0
EndSplineSet
EndChar

StartChar: uni0255
Encoding: 597 597 432
Width: 1082
GlyphClass: 2
Flags: HMW
LayerCount: 2
Fore
SplineSet
581 42 m 0
 742 42 913 137 913 296 c 0
 913 394 844 466 734 466 c 0
 545 466 414 314 138 -62 c 1
 100 -34 l 1
 379 364 518 520 732 520 c 0
 874 520 967 434 967 294 c 0
 967 114 779 -11 579 -11 c 0
 304 -11 122 158 122 496 c 0
 122 834 304 999 564 999 c 0
 764 999 905 902 967 730 c 1
 914 709 l 1
 863 856 742 947 564 947 c 0
 339 947 182 805 182 496 c 0
 182 187 339 42 581 42 c 0
EndSplineSet
EndChar

StartChar: uni0262
Encoding: 610 610 434
Width: 1048
GlyphClass: 2
Flags: HMW
LayerCount: 2
Fore
SplineSet
153 490 m 0
 153 200 303.576642336 45 574 45 c 0
 705.163934426 45 809.475409836 85 889 163 c 1
 889 430 l 1
 543 430 l 1
 543 486 l 1
 949 486 l 1
 949 143 l 1
 852.417582418 40 732.203296703 -11 575 -11 c 0
 268.644067797 -11 93 169 93 490 c 0
 93 803 269.958810069 1001 540 1001 c 0
 707.36997319 1001 865.498659517 903 923 754 c 1
 869 734 l 1
 820.535825545 862 683.392523364 945 538 945 c 0
 304.946666667 945 153 770 153 490 c 0
EndSplineSet
EndChar

StartChar: uni0274
Encoding: 628 628 437
Width: 1110
GlyphClass: 2
Flags: HMW
LayerCount: 2
Fore
SplineSet
876 49 m 1
 876 990 l 1
 937 990 l 1
 937 0 l 1
 831 0 l 1
 244 941 l 1
 234 941 l 1
 234 0 l 1
 175 0 l 1
 175 990 l 1
 281 990 l 1
 866 49 l 1
 876 49 l 1
EndSplineSet
EndChar

StartChar: uni0280
Encoding: 640 640 438
Width: 1045
GlyphClass: 2
Flags: HMW
LayerCount: 2
Fore
SplineSet
235 435 m 1
 515 435 l 2
 712 435 811 507 811 686 c 0
 811 865 712 937 515 937 c 2
 235 937 l 1
 235 435 l 1
235 383 m 1
 235 0 l 1
 175 0 l 1
 175 990 l 1
 515 990 l 2
 735 990 870 901 870 686 c 0
 870 471 736 383 515 383 c 2
 235 383 l 1
621 420 m 1
 680 420 l 1
 946 0 l 1
 878 0 l 1
 621 420 l 1
EndSplineSet
EndChar

StartChar: uni0283
Encoding: 643 643 439
Width: 805
GlyphClass: 2
Flags: HMW
LayerCount: 2
Fore
SplineSet
796 1360 m 1
 766 1318 l 1
 743 1340 694 1357 630 1357 c 0
 506 1357 434 1300 434 1173 c 2
 434 -252 l 2
 434 -416 322 -487 176 -487 c 0
 102 -487 43 -465 10 -436 c 1
 40 -393 l 1
 63 -415 112 -433 176 -433 c 0
 300 -433 373 -376 373 -249 c 2
 373 1176 l 2
 373 1340 484 1411 630 1411 c 0
 704 1411 763 1389 796 1360 c 1
EndSplineSet
EndChar

StartChar: uni028F
Encoding: 655 655 440
Width: 847
GlyphClass: 2
Flags: HMW
LayerCount: 2
Fore
SplineSet
775 990 m 1
 842 990 l 1
 452 426 l 1
 452 0 l 1
 392 0 l 1
 392 426 l 1
 4 990 l 1
 72 990 l 1
 422 483 l 1
 775 990 l 1
EndSplineSet
EndChar

StartChar: uni0291
Encoding: 657 657 441
Width: 1271
GlyphClass: 2
Flags: HMW
LayerCount: 2
Fore
SplineSet
817 53 m 2
 101 53 l 1
 816 917 l 1
 816 990 l 1
 53 990 l 1
 53 936 l 1
 767 936 l 1
 53 74 l 1
 53 0 l 1
 817 0 l 1
 1015 0 1203 125 1203 305 c 0
 1203 445 1110 531 968 531 c 0
 754 531 603 379 242 -159 c 1
 281 -187 l 1
 639 329 779 477 969 477 c 0
 1079 477 1149 405 1149 307 c 0
 1149 148 978 53 817 53 c 2
EndSplineSet
EndChar

StartChar: uni0292
Encoding: 658 658 442
Width: 1056
GlyphClass: 2
Flags: HMW
LayerCount: 2
Fore
SplineSet
498 -487 m 0
 298 -487 156 -393 94 -215 c 1
 149 -194 l 1
 200 -341 320 -434 498 -434 c 0
 723 -434 880 -305 880 -36 c 0
 880 273 663 359 438 359 c 1
 409 402 l 1
 852 937 l 1
 138 937 l 1
 138 990 l 1
 901 990 l 1
 901 917 l 1
 481 410 l 1
 724 398 940 283 940 -36 c 0
 940 -334 758 -487 498 -487 c 0
EndSplineSet
EndChar

StartChar: uni0293
Encoding: 659 659 443
Width: 1056
GlyphClass: 2
Flags: HMW
LayerCount: 2
Fore
SplineSet
138 936 m 1
 138 990 l 1
 901 990 l 1
 901 917 l 1
 481 410 l 1
 724 398 940 283 940 -36 c 0
 940 -334 758 -487 498 -487 c 0
 298 -487 110 -362 110 -182 c 0
 110 -42 203 44 345 44 c 0
 559 44 699 -112 977 -510 c 1
 939 -538 l 1
 663 -162 533 -10 343 -10 c 0
 233 -10 164 -82 164 -180 c 0
 164 -339 335 -434 496 -434 c 0
 721 -434 880 -305 880 -36 c 0
 880 273 663 359 438 359 c 1
 409 402 l 1
 852 936 l 1
 138 936 l 1
EndSplineSet
EndChar

StartChar: uni0299
Encoding: 665 665 444
Width: 966
GlyphClass: 2
Flags: HMW
LayerCount: 2
Fore
SplineSet
680 502 m 1
 798 482 877 384 877 257 c 0
 877 101 767 0 598 0 c 2
 175 0 l 1
 175 990 l 1
 552 990 l 2
 722 990 831 891 831 736 c 0
 831 620 776 538 680 512 c 1
 680 502 l 1
241 938 m 1
 241 524 l 1
 542 524 l 2
 687 524 766 597 766 732 c 0
 766 866 688 938 542 938 c 2
 241 938 l 1
241 466 m 1
 241 53 l 1
 586 53 l 2
 732 53 811 124 811 257 c 0
 811 392 731 466 586 466 c 2
 241 466 l 1
EndSplineSet
EndChar

StartChar: uni029C
Encoding: 668 668 445
Width: 1108
GlyphClass: 2
Flags: HMW
LayerCount: 2
Fore
SplineSet
874 990 m 1
 934 990 l 1
 934 0 l 1
 874 0 l 1
 874 466 l 1
 234 466 l 1
 234 0 l 1
 175 0 l 1
 175 990 l 1
 234 990 l 1
 234 525 l 1
 874 525 l 1
 874 990 l 1
EndSplineSet
EndChar

StartChar: uni029F
Encoding: 671 671 447
Width: 929
GlyphClass: 2
Flags: HMW
LayerCount: 2
Fore
SplineSet
228 990 m 1
 288 990 l 1
 288 52 l 1
 867 52 l 1
 867 0 l 1
 228 0 l 1
 228 990 l 1
EndSplineSet
EndChar

StartChar: uni02C2
Encoding: 706 706 457
Width: 672
GlyphClass: 2
Flags: HMW
LayerCount: 2
Fore
SplineSet
238 717 m 1
 522 433 l 1
 478 389 l 1
 150 717 l 1
 478 1045 l 1
 522 1001 l 1
 238 717 l 1
EndSplineSet
EndChar

StartChar: uni02C3
Encoding: 707 707 458
Width: 672
GlyphClass: 2
Flags: HMW
LayerCount: 2
Fore
SplineSet
434 717 m 1
 150 1001 l 1
 194 1045 l 1
 522 717 l 1
 194 389 l 1
 150 433 l 1
 434 717 l 1
EndSplineSet
EndChar

StartChar: uni02C4
Encoding: 708 708 459
Width: 956
GlyphClass: 2
Flags: HMW
LayerCount: 2
Fore
SplineSet
478 815 m 1
 194 531 l 1
 150 575 l 1
 478 903 l 1
 806 575 l 1
 762 531 l 1
 478 815 l 1
EndSplineSet
EndChar

StartChar: uni02C5
Encoding: 709 709 460
Width: 956
GlyphClass: 2
Flags: HMW
LayerCount: 2
Fore
SplineSet
478 619 m 1
 762 903 l 1
 806 859 l 1
 478 531 l 1
 150 859 l 1
 194 903 l 1
 478 619 l 1
EndSplineSet
EndChar

StartChar: circumflex
Encoding: 710 710 461
Width: 787
GlyphClass: 2
Flags: HMW
LayerCount: 2
Fore
SplineSet
638 1131 m 1
 565 1131 l 1
 394 1399 l 1
 222 1131 l 1
 150 1131 l 1
 358 1456 l 1
 430 1456 l 1
 638 1131 l 1
EndSplineSet
EndChar

StartChar: caron
Encoding: 711 711 462
Width: 787
GlyphClass: 2
Flags: HMW
LayerCount: 2
Fore
SplineSet
150 1456 m 1
 223 1456 l 1
 394 1188 l 1
 566 1456 l 1
 638 1456 l 1
 430 1131 l 1
 358 1131 l 1
 150 1456 l 1
EndSplineSet
EndChar

StartChar: uni02D2
Encoding: 722 722 463
Width: 545
GlyphClass: 2
Flags: HMW
LayerCount: 2
Fore
SplineSet
156 1179 m 1
 169 1177 181 1177 192 1177 c 0
 316 1177 366 1263 366 1347 c 0
 366 1431 316 1517 193 1517 c 0
 182 1517 170 1517 157 1515 c 1
 151 1563 l 1
 164 1564 177 1565 189 1565 c 0
 343 1565 416 1457 416 1347 c 0
 416 1237 344 1129 188 1129 c 0
 176 1129 163 1130 150 1131 c 1
 156 1179 l 1
EndSplineSet
EndChar

StartChar: uni02D3
Encoding: 723 723 464
Width: 545
GlyphClass: 2
Flags: HMW
LayerCount: 2
Fore
SplineSet
396 1574 m 1
 274 1574 200 1485 200 1377 c 0
 200 1269 274 1180 395 1180 c 1
 395 1131 l 1
 249 1131 150 1241 150 1377 c 0
 150 1513 248 1623 396 1623 c 1
 396 1574 l 1
EndSplineSet
EndChar

StartChar: breve
Encoding: 728 728 465
Width: 921
GlyphClass: 2
Flags: HMW
LayerCount: 2
Fore
SplineSet
772 1440 m 1
 772 1247 651 1131 461 1131 c 0
 271 1131 150 1247 150 1440 c 1
 210 1440 l 1
 210 1283 303 1189 461 1189 c 0
 619 1189 712 1283 712 1440 c 1
 772 1440 l 1
EndSplineSet
EndChar

StartChar: dotaccent
Encoding: 729 729 466
Width: 541
GlyphClass: 2
Flags: HMW
LayerCount: 2
Fore
SplineSet
150 1251 m 0
 150 1318 204 1373 271 1373 c 0
 338 1373 392 1318 392 1251 c 0
 392 1184 338 1131 271 1131 c 0
 204 1131 150 1184 150 1251 c 0
EndSplineSet
EndChar

StartChar: ring
Encoding: 730 730 467
Width: 790
GlyphClass: 2
Flags: HMW
LayerCount: 2
Fore
SplineSet
395 1509 m 0
 304 1509 233 1436 233 1345 c 0
 233 1254 304 1183 395 1183 c 0
 486 1183 557 1254 557 1345 c 0
 557 1436 486 1509 395 1509 c 0
395 1560 m 0
 514 1560 610 1464 610 1345 c 0
 610 1226 514 1131 395 1131 c 0
 276 1131 181 1226 181 1345 c 0
 181 1464 276 1560 395 1560 c 0
EndSplineSet
EndChar

StartChar: ogonek
Encoding: 731 731 468
Width: 723
GlyphClass: 2
Flags: HMW
LayerCount: 2
Fore
SplineSet
494 -320 m 1
 514 -372 l 1
 454 -395 393 -408 340 -408 c 0
 226 -408 153 -349 153 -257 c 0
 153 -205 176 -146 220 -86 c 2
 281 0 l 1
 281 12 l 1
 333 2 l 1
 335 0 l 1
 265 -115 l 2
 227 -176 211 -217 211 -251 c 0
 211 -312 263 -350 347 -350 c 0
 392 -350 444 -339 494 -320 c 1
EndSplineSet
EndChar

StartChar: tilde
Encoding: 732 732 469
Width: 1035
GlyphClass: 2
Flags: HMW
LayerCount: 2
Fore
SplineSet
150 1153 m 1
 203 1259 271 1312 351 1312 c 4
 397 1312 446 1295 533 1246 c 0
 609 1204 648 1188 683 1188 c 0
 740 1188 788 1229 833 1315 c 1
 885 1291 l 1
 832 1185 766 1132 687 1132 c 0
 639 1132 586 1151 504 1198 c 0
 434 1239 389 1256 352 1256 c 4
 294 1256 247 1216 202 1129 c 1
 150 1153 l 1
EndSplineSet
EndChar

StartChar: uni0305
Encoding: 773 773 476
Width: 0
GlyphClass: 4
Flags: HMW
AnchorPoint: "mkmk" 0 886 mark 0
AnchorPoint: "mkmk" 0 1191 basemark 0
AnchorPoint: "up_I" 0 886 mark 0
LayerCount: 2
Fore
SplineSet
400 1191 m 1
 400 1131 l 1
 -400 1131 l 1
 -400 1191 l 1
 400 1191 l 1
EndSplineSet
EndChar

StartChar: uni0311
Encoding: 785 785 487
Width: 0
GlyphClass: 4
Flags: HMW
AnchorPoint: "mkmk" 0 886 mark 0
AnchorPoint: "mkmk" 0 1440 basemark 0
AnchorPoint: "up_I" 0 886 mark 0
LayerCount: 2
Fore
SplineSet
-311 1131 m 1
 -311 1324 -190 1440 0 1440 c 0
 190 1440 311 1324 311 1131 c 1
 251 1131 l 1
 251 1288 158 1382 0 1382 c 0
 -158 1382 -251 1288 -251 1131 c 1
 -311 1131 l 1
EndSplineSet
EndChar

StartChar: uni031B
Encoding: 795 795 488
Width: 0
GlyphClass: 4
Flags: HMW
AnchorPoint: "up_II" -164 1131 mark 0
LayerCount: 2
Fore
SplineSet
127 1496 m 1
 152 1417 163 1362 163 1296 c 0
 163 1201 117 1131 -40 1131 c 2
 -164 1131 l 1
 -164 1184 l 1
 -30 1184 l 2
 72 1184 106 1230 106 1297 c 0
 106 1349 96 1397 72 1476 c 1
 127 1496 l 1
EndSplineSet
EndChar

StartChar: uni0600
Encoding: 1536 1536 491
Width: 4500
GlyphClass: 2
Flags: HMW
LayerCount: 2
Fore
SplineSet
4288 -211 m 1
 200 -211 l 1
 200 -150 l 1
 3181 -150 l 2
 3619 -150 3837 -155 3973 -169 c 1
 3974 -158 l 1
 3889 -124 3838 -47 3838 64 c 0
 3838 215 3922.33040435 316.678159208 4075 399 c 2
 4177 454 l 1
 4202 398 l 1
 4103 344 l 2
 3978.14649682 275.898089172 3895 177 3895 64 c 0
 3895 -100 3977 -151 4197 -151 c 2
 4300 -151 l 1
 4288 -211 l 1
EndSplineSet
EndChar

StartChar: uni0601
Encoding: 1537 1537 492
Width: 4500
GlyphClass: 2
Flags: HMW
LayerCount: 2
Fore
SplineSet
249 -84 m 1
 311 -52 l 1
 371 -171 401 -202 458 -202 c 0
 521 -202 554 -164 608 -32 c 0
 674 131 722 182 806 182 c 0
 885 182 945 137 1029 14 c 0
 1134 -139 1224 -205 1327 -205 c 0
 1431 -205 1502 -138 1596 50 c 1
 1641 58 l 1
 1920 -91 2321 -176 2747 -176 c 0
 3203 -176 3624 -79 3937 99 c 0
 4011 141 4049 155 4093 155 c 0
 4187 155 4251 93 4251 0 c 0
 4251 -81 4202 -169 4112 -253 c 1
 4072 -206 l 1
 4143 -135 4179 -64 4179 -0 c 0
 4179 58 4149 90 4094 90 c 0
 4061 90 4024 75 3957 37 c 0
 3648 -139 3219 -237 2757 -237 c 0
 2341 -237 1936 -157 1629 -15 c 1
 1535 -196 1454 -264 1333 -264 c 0
 1199 -264 1081 -181 973 -11 c 0
 912 85 868 121 812 121 c 0
 751 121 713 76 659 -57 c 0
 595 -216 546 -264 451 -264 c 0
 367 -264 324 -226 249 -84 c 1
EndSplineSet
EndChar

StartChar: uni0603
Encoding: 1539 1539 493
Width: 4500
GlyphClass: 2
Flags: HMW
LayerCount: 2
Fore
SplineSet
4239 76 m 0
 4239 192 4162 277 4034 277 c 0
 3914 277 3749 182 3566 -91 c 1
 3656 -135 3761 -159 3890 -159 c 0
 4069 -159 4239 -115 4239 76 c 0
2822 -211 m 2
 200 -211 l 1
 200 -150 l 1
 2822 -150 l 2
 3073 -150 3266 -30 3335 273 c 1
 3394 259 l 1
 3380 198 3362 142 3339 93 c 1
 3391 31 3449 -22 3516 -63 c 1
 3703 216 3893 338 4035 338 c 0
 4204 338 4300 223 4300 76 c 0
 4300 -157 4103 -215 3880 -215 c 0
 3614 -215 3441 -122 3308 35 c 1
 3209 -130 3047 -211 2822 -211 c 2
EndSplineSet
EndChar

StartChar: uni0604
Encoding: 1540 1540 494
Width: 4500
GlyphClass: 2
Flags: HMW
LayerCount: 2
Fore
SplineSet
3314 -332 m 1
 200 -332 l 1
 200 -271 l 1
 2197 -271 l 2
 2627 -271 2851 -276 2989 -290 c 1
 2990 -279 l 1
 2905 -245 2854 -169 2854 -44 c 0
 2854 140 2970 299 3122 299 c 0
 3211 299 3267 261 3385 121 c 0
 3500 -15 3553 -50 3642 -50 c 0
 3762 -50 3820 22 3820 169 c 2
 3820 318 l 1
 3879 318 l 1
 3879 169 l 2
 3879 19 3938 -50 4065 -50 c 0
 4184 -50 4240 13 4240 146 c 0
 4240 203 4230 287 4214 366 c 1
 4273 380 l 1
 4290 303 4300 216 4300 147 c 0
 4300 -30 4228 -110 4068 -110 c 0
 3947 -110 3885 -63 3853 53 c 1
 3843 53 l 1
 3812 -60 3750 -110 3640 -110 c 0
 3531 -110 3465 -68 3354 73 c 0
 3250 204 3203 238 3124 238 c 0
 3003 238 2911 105 2911 -45 c 0
 2911 -223 2996 -272 3213 -272 c 2
 3316 -272 l 1
 3314 -332 l 1
EndSplineSet
EndChar

StartChar: uni060C
Encoding: 1548 1548 498
Width: 621
GlyphClass: 2
Flags: HMW
LayerCount: 2
Fore
SplineSet
360 562 m 1
 404 514 l 1
 301 415 249 301 249 174 c 1
 258 172 l 1
 281 193 308 202 333 202 c 0
 386 202 432 160 432 100 c 0
 432 32 391 -11 318 -11 c 0
 236 -11 190 48 190 165 c 0
 190 328 246 449 360 562 c 1
EndSplineSet
EndChar

StartChar: uni060D
Encoding: 1549 1549 499
Width: 874
GlyphClass: 2
Flags: HMW
LayerCount: 2
Fore
SplineSet
227 -667 m 1
 161 -667 l 1
 650 583 l 1
 717 583 l 1
 227 -667 l 1
EndSplineSet
EndChar

StartChar: uni060E
Encoding: 1550 1550 500
Width: 2205
GlyphClass: 2
Flags: HMW
LayerCount: 2
Fore
SplineSet
936 415 m 0
 936 284 865 149 765 9 c 1
 717 43 l 1
 815 179 875 306 875 415 c 0
 875 592 739 718 545 718 c 0
 377 718 194 576 194 351 c 0
 194 140 385 58 619 58 c 2
 2071 58 l 1
 2071 0 l 1
 615 0 l 2
 329 0 135 121 135 351 c 0
 135 607 338 777 545 777 c 0
 774 777 936 624 936 415 c 0
EndSplineSet
EndChar

StartChar: uni060F
Encoding: 1551 1551 501
Width: 1440
GlyphClass: 2
Flags: HMW
LayerCount: 2
Fore
SplineSet
429 -567 m 1
 520.822289157 -604.649122807 637.870481928 -625 764 -625 c 0
 1063 -625 1246 -510.110367893 1246 -321 c 0
 1246 -188 1153 -97 1016 -97 c 0
 836.080479452 -97 642.089041096 -252.321888412 429 -567 c 1
382 -544 m 1
 605.047169811 -204.325396825 817.04245283 -36 1021 -36 c 0
 1190 -36 1309 -153 1309 -320 c 0
 1309 -545.049450549 1099 -689 769 -689 c 0
 627.858695652 -689 500.831521739 -662.653333333 398 -613 c 1
 272 -808 l 1
 219 -772 l 1
 351 -589 l 1
 205.995475113 -505.109919571 133 -368.996981907 133 -212 c 0
 133 55 346 307 656 376 c 1
 657 386 l 1
 416 402 275 523 275 715 c 0
 275 924 443 1093 652 1093 c 0
 765 1093 873 1044 951 958 c 1
 912 913 l 1
 839 993 756 1032 660 1032 c 0
 478 1032 333 889 333 711 c 0
 333 527 487 430 777 430 c 0
 841 430 927 435 1016 443 c 1
 1013 379 l 1
 527 368 192 118 192 -206 c 0
 192 -346 255.989637306 -471.137724551 382 -544 c 1
EndSplineSet
EndChar

StartChar: uni061C
Encoding: 1564 1564 504
Width: 2233
GlyphClass: 2
Flags: HMW
LayerCount: 2
Fore
SplineSet
772 1083 m 1
 1005 1083 l 1
 1005 1048 l 1
 772 1048 l 1
 772 1083 l 1
1238 1083 m 1
 1471 1083 l 1
 1471 1048 l 1
 1238 1048 l 1
 1238 1083 l 1
1996 1048 m 1
 1704 1048 l 1
 1704 1083 l 1
 2033 1083 l 1
 2033 775 l 1
 1996 775 l 1
 1996 1048 l 1
200 1083 m 1
 539 1083 l 1
 539 1048 l 1
 237 1048 l 1
 237 775 l 1
 200 775 l 1
 200 1083 l 1
1471 -280 m 1
 1238 -280 l 1
 1238 -243 l 1
 1471 -243 l 1
 1471 -280 l 1
200 -280 m 1
 539 -280 l 1
 539 -243 l 1
 237 -243 l 1
 237 29 l 1
 200 29 l 1
 200 -280 l 1
1996 -243 m 1
 1704 -243 l 1
 1704 -280 l 1
 2033 -280 l 1
 2033 29 l 1
 1996 29 l 1
 1996 -243 l 1
1005 -280 m 1
 772 -280 l 1
 772 -243 l 1
 1005 -243 l 1
 1005 -280 l 1
1996 262 m 1
 1996 542 l 1
 2033 542 l 1
 2033 262 l 1
 1996 262 l 1
237 542 m 1
 237 262 l 1
 200 262 l 1
 200 542 l 1
 237 542 l 1
EndSplineSet
Refer: 814 7437 N 0.5 0 0 0.5 1177 146 2
Refer: 807 7424 N 0.5 0 0 0.5 386 146 2
Refer: 447 671 N 0.5 0 0 0.5 766 146 2
EndChar

StartChar: uni061F
Encoding: 1567 1567 506
Width: 1054
GlyphClass: 2
Flags: HMW
LayerCount: 2
Fore
SplineSet
590 378 m 1
 525 378 l 1
 525 528 437 607 349 684 c 0
 263 759 179 836 179 977 c 0
 179 1138 305 1299 542 1299 c 0
 741 1299 875 1185 875 1012 c 0
 875 1004 875 996 874 988 c 1
 813 988 l 1
 814 996 814 1004 814 1011 c 0
 814 1158 692 1244 539 1244 c 0
 358 1244 245 1124 245 976 c 0
 245 861 320 794 399 725 c 0
 492 644 590 556 590 378 c 1
640 78 m 0
 640 29 605 -11 552 -11 c 0
 499 -11 464 29 464 78 c 0
 464 127 499 165 552 165 c 0
 605 165 640 127 640 78 c 0
EndSplineSet
EndChar

StartChar: uni0660
Encoding: 1632 1632 571
Width: 621
GlyphClass: 2
Flags: HMW
LayerCount: 2
Fore
SplineSet
310 610 m 1
 472 449 l 1
 310 287 l 1
 150 449 l 1
 310 610 l 1
EndSplineSet
Substitution2: "'tnum' Tabular Numbers lookup 22 subtable" uni0660.tnum
Substitution2: "Single Substitution lookup 178 subtable" uni0660.EoA
Substitution2: "SingleSubstitutionlookup179 subtable" uni0660.s
EndChar

StartChar: uni0661
Encoding: 1633 1633 572
Width: 616
GlyphClass: 2
Flags: HMW
LayerCount: 2
Fore
SplineSet
458 0 m 1
 398 0 l 1
 398 499 347 866 158 1311 c 1
 220 1343 l 1
 405 893 458 505 458 0 c 1
EndSplineSet
Substitution2: "'tnum' Tabular Numbers lookup 22 subtable" uni0661.tnum
Substitution2: "Single Substitution lookup 178 subtable" uni0661.EoA
Substitution2: "SingleSubstitutionlookup179 subtable" uni0661.s
EndChar

StartChar: uni0662
Encoding: 1634 1634 573
Width: 1083
GlyphClass: 2
Flags: HMW
LayerCount: 2
Fore
SplineSet
582 839 m 0
 792.684563758 839 851.637583893 988 870 1234 c 2
 876 1326 l 1
 936 1322 l 1
 917.516304348 1053 893.195652174 779 578 779 c 0
 490.107142857 779 416.544642857 819 364 891 c 1
 354 887 l 1
 423 609 448 330 448 0 c 1
 388 0 l 1
 388 499 337 866 148 1311 c 1
 210 1343 l 1
 252 1234 l 2
 358.764705882 952 421.852941176 839 582 839 c 0
EndSplineSet
Substitution2: "'tnum' Tabular Numbers lookup 22 subtable" uni0662.tnum
Substitution2: "Single Substitution lookup 178 subtable" uni0662.EoA
Substitution2: "SingleSubstitutionlookup179 subtable" uni0662.s
EndChar

StartChar: uni0663
Encoding: 1635 1635 574
Width: 1434
GlyphClass: 2
Flags: HMW
LayerCount: 2
Fore
SplineSet
781 1040 m 1
 758 904 686 808 563 808 c 0
 470 808 423 846 372 917 c 1
 364 911 l 1
 435 624 464 340 464 0 c 1
 404 0 l 1
 404 499 353 866 164 1311 c 1
 225 1343 l 1
 267 1235 l 2
 370 972 432 868 565 868 c 0
 681 868 738 962 758 1119 c 0
 767 1174 774 1233 778 1309 c 1
 842 1304 l 1
 832 1237 822 1166 822 1114 c 0
 822 962 879 868 1033 868 c 0
 1177 868 1218 974 1218 1118 c 0
 1218 1185 1211 1260 1198 1335 c 1
 1253 1345 l 1
 1264 1269 1272 1200 1272 1141 c 0
 1272 928 1209 808 1023 808 c 0
 892 808 791 898 791 1040 c 1
 781 1040 l 1
EndSplineSet
Substitution2: "'tnum' Tabular Numbers lookup 22 subtable" uni0663.tnum
Substitution2: "Single Substitution lookup 178 subtable" uni0663.EoA
Substitution2: "SingleSubstitutionlookup179 subtable" uni0663.s
EndChar

StartChar: uni0664
Encoding: 1636 1636 575
Width: 1020
GlyphClass: 2
Flags: HMW
LayerCount: 2
Fore
SplineSet
560 671 m 1
 377 709 244 792 244 947 c 0
 244 1127 456 1312 728 1342 c 1
 740 1283 l 1
 469 1252 302 1089 302 947 c 0
 302 796 489 701 736 701 c 1
 736 639 l 1
 453 639 234 441 234 265 c 0
 234 80 412 63 598 63 c 2
 846 63 l 1
 846 0 l 1
 564 0 l 2
 389 0 174 32 174 264 c 0
 174 421 312 589 560 661 c 1
 560 671 l 1
EndSplineSet
Substitution2: "'tnum' Tabular Numbers lookup 22 subtable" uni0664.tnum
Substitution2: "Single Substitution lookup 178 subtable" uni0664.EoA
Substitution2: "SingleSubstitutionlookup179 subtable" uni0664.s
EndChar

StartChar: uni0665
Encoding: 1637 1637 576
Width: 1294
GlyphClass: 2
Flags: HMW
LayerCount: 2
Fore
SplineSet
536 1343 m 1
 793 1126 1104 711 1104 357 c 0
 1104 81 940 -23 658 -23 c 0
 386 -23 190 81 190 354 c 0
 190 630 329 917 612 1191 c 1
 571 1231 536 1265 498 1295 c 1
 536 1343 l 1
652 1154 m 1
 372 890 250 603 250 350 c 0
 250 116 394 39 658 39 c 0
 932 39 1046 112 1046 354 c 0
 1046 615 864 934 652 1154 c 1
EndSplineSet
Substitution2: "'tnum' Tabular Numbers lookup 22 subtable" uni0665.tnum
Substitution2: "Single Substitution lookup 178 subtable" uni0665.EoA
Substitution2: "SingleSubstitutionlookup179 subtable" uni0665.s
EndChar

StartChar: uni0666
Encoding: 1638 1638 577
Width: 1115
GlyphClass: 2
Flags: HMW
LayerCount: 2
Fore
SplineSet
142 1269 m 1
 142 1331 l 1
 814 1331 l 1
 858 1291 l 1
 854 1190 850 1092 850 1002 c 0
 850 600 880 337 974 24 c 1
 915 10 l 1
 821 325 792 599 792 1002 c 0
 792 1087 792 1175 796 1269 c 1
 142 1269 l 1
EndSplineSet
Substitution2: "'tnum' Tabular Numbers lookup 22 subtable" uni0666.tnum
Substitution2: "Single Substitution lookup 178 subtable" uni0666.EoA
Substitution2: "SingleSubstitutionlookup179 subtable" uni0666.s
EndChar

StartChar: uni0667
Encoding: 1639 1639 578
Width: 1144
GlyphClass: 2
Flags: HMW
LayerCount: 2
Fore
SplineSet
578 89 m 1
 611 532 812 1035 1047 1342 c 1
 1095 1302 l 1
 848 981 679 545 603 0 c 1
 543 0 l 1
 467 545 297 981 50 1302 c 1
 99 1342 l 1
 334 1035 535 532 568 89 c 1
 578 89 l 1
EndSplineSet
Substitution2: "'tnum' Tabular Numbers lookup 22 subtable" uni0667.tnum
Substitution2: "Single Substitution lookup 178 subtable" uni0667.EoA
Substitution2: "SingleSubstitutionlookup179 subtable" uni0667.s
EndChar

StartChar: uni0668
Encoding: 1640 1640 579
Width: 1144
GlyphClass: 2
Flags: HMW
LayerCount: 2
Fore
SplineSet
567 1242 m 1
 534 799 333 296 98 -11 c 1
 50 29 l 1
 297 350 467 786 543 1331 c 1
 603 1331 l 1
 679 786 848 350 1095 29 c 1
 1046 -11 l 1
 811 296 610 799 577 1242 c 1
 567 1242 l 1
EndSplineSet
Substitution2: "'tnum' Tabular Numbers lookup 22 subtable" uni0668.tnum
Substitution2: "Single Substitution lookup 178 subtable" uni0668.EoA
Substitution2: "SingleSubstitutionlookup179 subtable" uni0668.s
EndChar

StartChar: uni0669
Encoding: 1641 1641 580
Width: 1065
GlyphClass: 2
Flags: HMW
LayerCount: 2
Fore
SplineSet
745 676 m 1
 669 653 600 639 507 639 c 0
 311 639 148 694 148 931 c 0
 148 1139 267 1342 481 1342 c 0
 748 1342 799 1126 799 781 c 1
 799 388 836 219 918 30 c 1
 864 5 l 1
 784 174 745 420 745 676 c 1
741 741 m 1
 741 777 l 2
 741 1095 694 1280 480 1280 c 0
 319 1280 209 1121 209 928 c 0
 209 764 306 698 495 698 c 0
 592 698 660 713 741 741 c 1
EndSplineSet
Substitution2: "'tnum' Tabular Numbers lookup 22 subtable" uni0669.tnum
Substitution2: "Single Substitution lookup 178 subtable" uni0669.EoA
Substitution2: "SingleSubstitutionlookup179 subtable" uni0669.s
EndChar

StartChar: uni066B
Encoding: 1643 1643 582
Width: 586
GlyphClass: 2
Flags: HMW
LayerCount: 2
Fore
SplineSet
-44 -467 m 1
 -110 -467 l 1
 360 584 l 1
 426 584 l 1
 -44 -467 l 1
EndSplineSet
Substitution2: "'tnum' Tabular Numbers lookup 22 subtable" uni066B.tnum
EndChar

StartChar: uni066C
Encoding: 1644 1644 583
Width: 651
GlyphClass: 2
Flags: HMW
LayerCount: 2
Fore
SplineSet
358 0 m 1
 301 -25 236 -1 236 64 c 0
 236 111 267 145 323 145 c 0
 390 145 416 95 416 16 c 0
 416 -110 358 -200 279 -269 c 1
 240 -226 l 1
 306 -170 358 -92 358 0 c 1
EndSplineSet
Substitution2: "'tnum' Tabular Numbers lookup 22 subtable" uni066C.tnum
EndChar

StartChar: uni066D
Encoding: 1645 1645 584
Width: 1011
GlyphClass: 2
Flags: HMW
LayerCount: 2
Fore
SplineSet
528 601 m 1
 486 601 l 1
 486 1004 l 1
 478 1009 l 1
 128 808 l 1
 107 844 l 1
 456 1046 l 1
 456 1055 l 1
 107 1257 l 1
 128 1294 l 1
 478 1092 l 1
 486 1098 l 1
 486 1500 l 1
 528 1500 l 1
 528 1098 l 1
 536 1092 l 1
 886 1294 l 1
 906 1257 l 1
 558 1055 l 1
 558 1046 l 1
 906 844 l 1
 886 808 l 1
 536 1009 l 1
 528 1004 l 1
 528 601 l 1
EndSplineSet
EndChar

StartChar: uni06DD
Encoding: 1757 1757 696
Width: 2300
GlyphClass: 2
Flags: HMW
LayerCount: 2
Fore
SplineSet
2150 -121 m 1
 1974 -153 1835 -198 1645 -282 c 0
 1452 -367 1312 -400 1150 -400 c 0
 988 -400 848 -367 655 -282 c 0
 465 -198 326 -153 150 -121 c 1
 181 -76 l 1
 349 -108 487 -152 675 -235 c 0
 863 -318 995 -350 1150 -350 c 0
 1305 -350 1437 -318 1625 -235 c 0
 1813 -152 1951 -108 2119 -76 c 1
 2150 -121 l 1
1150 1694 m 0
 995 1694 863 1662 675 1579 c 0
 487 1496 349 1452 181 1420 c 1
 208 1151 217 1000 217 791 c 0
 217 583 208 433 181 163 c 1
 349 131 487 87 675 4 c 0
 863 -79 995 -111 1150 -111 c 0
 1305 -111 1437 -79 1625 4 c 0
 1813 87 1951 131 2119 163 c 1
 2092 433 2083 583 2083 791 c 0
 2083 1000 2092 1151 2119 1420 c 1
 1951 1452 1813 1496 1625 1579 c 0
 1437 1662 1305 1694 1150 1694 c 0
2133 791 m 0
 2133 598 2141 460 2171 146 c 0
 2171 145 2171 144 2171 143 c 0
 2171 131 2161 120 2150 118 c 0
 1974 86 1835 42 1645 -42 c 0
 1452 -127 1312 -161 1150 -161 c 0
 988 -161 848 -127 655 -42 c 0
 465 42 326 86 150 118 c 0
 139 120 129 131 129 143 c 0
 129 144 129 145 129 146 c 0
 158 413 167 572 167 791 c 0
 167 984 159 1124 129 1437 c 0
 129 1438 129 1439 129 1440 c 0
 129 1452 139 1463 150 1465 c 0
 326 1497 465 1541 655 1625 c 0
 848 1710 988 1744 1150 1744 c 0
 1312 1744 1452 1710 1645 1625 c 0
 1835 1541 1974 1497 2150 1465 c 0
 2161 1463 2171 1452 2171 1440 c 0
 2171 1439 2171 1438 2171 1437 c 0
 2142 1171 2133 1010 2133 791 c 0
EndSplineSet
EndChar

StartChar: uni06DE
Encoding: 1758 1758 697
Width: 2463
GlyphClass: 2
Flags: HMW
LayerCount: 2
Fore
SplineSet
1231 1485 m 0
 1271 1485 1304 1451 1304 1411 c 0
 1304 1371 1271 1337 1231 1337 c 0
 1191 1337 1157 1371 1157 1411 c 0
 1157 1451 1191 1485 1231 1485 c 0
1231 -117 m 0
 1271 -117 1305 -151 1305 -191 c 0
 1305 -231 1271 -265 1231 -265 c 0
 1191 -265 1158 -231 1158 -191 c 0
 1158 -151 1191 -117 1231 -117 c 0
430 683 m 0
 470 683 504 650 504 610 c 0
 504 570 470 536 430 536 c 0
 390 536 356 570 356 610 c 0
 356 650 390 683 430 683 c 0
2032 684 m 0
 2072 684 2106 650 2106 610 c 0
 2106 570 2072 537 2032 537 c 0
 1992 537 1958 570 1958 610 c 0
 1958 650 1992 684 2032 684 c 0
690 1224 m 0
 729 1224 764 1189 764 1150 c 0
 764 1111 729 1077 690 1077 c 0
 651 1077 617 1111 617 1150 c 0
 617 1189 651 1224 690 1224 c 0
1772 143 m 0
 1811 143 1845 109 1845 70 c 0
 1845 31 1811 -4 1772 -4 c 0
 1733 -4 1698 31 1698 70 c 0
 1698 109 1733 143 1772 143 c 0
691 143 m 0
 730 143 764 108 764 69 c 0
 764 30 730 -4 691 -4 c 0
 652 -4 617 30 617 69 c 0
 617 108 652 143 691 143 c 0
1771 1224 m 0
 1810 1224 1845 1190 1845 1151 c 0
 1845 1112 1810 1077 1771 1077 c 0
 1732 1077 1698 1112 1698 1151 c 0
 1698 1190 1732 1224 1771 1224 c 0
1232 1670 m 1
 921 1360 l 1
 481 1360 l 1
 481 921 l 1
 171 610 l 1
 481 299 l 1
 481 -140 l 1
 921 -140 l 1
 1232 -450 l 1
 1542 -140 l 1
 1981 -140 l 1
 1981 299 l 1
 2292 610 l 1
 1981 921 l 1
 1981 1360 l 1
 1542 1360 l 1
 1232 1670 l 1
1231 1741 m 1
 1563 1410 l 1
 2031 1410 l 1
 2031 942 l 1
 2363 610 l 1
 2031 278 l 1
 2031 -190 l 1
 1563 -190 l 1
 1231 -521 l 1
 900 -190 l 1
 431 -190 l 1
 431 279 l 1
 100 610 l 1
 431 941 l 1
 431 1410 l 1
 900 1410 l 1
 1231 1741 l 1
EndSplineSet
Refer: 1231 57390 N 1 0 0 1 796 188 2
EndChar

StartChar: uni06DF
Encoding: 1759 1759 698
Width: 0
GlyphClass: 4
Flags: HMW
AnchorPoint: "Anchor1" 0 892 mark 0
AnchorPoint: "Anchor1" 0 1170 basemark 0
AnchorPoint: "Anchor5" 0 892 mark 0
AnchorPoint: "Anchor4" 0 892 mark 0
LayerCount: 2
Fore
SplineSet
-82 1177 m 0
 -82 1222 -45 1258 0 1258 c 0
 45 1258 82 1222 82 1177 c 0
 82 1132 45 1095 0 1095 c 0
 -45 1095 -82 1132 -82 1177 c 0
EndSplineSet
EndChar

StartChar: uni06E0
Encoding: 1760 1760 699
Width: 0
GlyphClass: 4
Flags: HMW
AnchorPoint: "Anchor1" 0 892 mark 0
AnchorPoint: "Anchor1" 0 1170 basemark 0
AnchorPoint: "Anchor5" 0 892 mark 0
AnchorPoint: "Anchor4" 0 892 mark 0
LayerCount: 2
Fore
SplineSet
-82 1095 m 1
 -82 1258 l 1
 82 1258 l 1
 82 1095 l 1
 -82 1095 l 1
EndSplineSet
EndChar

StartChar: uni06E9
Encoding: 1769 1769 708
Width: 1236
GlyphClass: 2
Flags: HMW
LayerCount: 2
Fore
SplineSet
358 52 m 1
 358 702 l 1
 133 959 l 1
 618 1404 l 1
 1103 959 l 1
 878 702 l 1
 878 52 l 1
 1040 52 l 1
 1040 0 l 1
 196 0 l 1
 196 52 l 1
 358 52 l 1
820 723 m 1
 1025 947 l 1
 618 1316 l 1
 211 947 l 1
 416 723 l 1
 416 52 l 1
 820 52 l 1
 820 723 l 1
648 888 m 1
 648 203 l 1
 588 203 l 1
 588 888 l 1
 648 888 l 1
EndSplineSet
EndChar

StartChar: uni06F0
Encoding: 1776 1776 714
Width: 847
GlyphClass: 2
Flags: HMW
LayerCount: 2
Fore
SplineSet
423 640 m 0
 295 640 233 556 233 449 c 0
 233 342 296 257 423 257 c 0
 550 257 615 342 615 449 c 0
 615 555 551 640 423 640 c 0
423 699 m 0
 583 699 675 591 675 449 c 0
 675 308 584 198 423 198 c 0
 262 198 173 308 173 449 c 0
 173 590 263 699 423 699 c 0
EndSplineSet
Substitution2: "'tnum' Tabular Numbers lookup 22 subtable" uni06F0.tnum
Substitution2: "Single Substitution lookup 178 subtable" uni06F0.EoA
Substitution2: "SingleSubstitutionlookup179 subtable" uni06F0.s
EndChar

StartChar: uni06F4
Encoding: 1780 1780 718
Width: 1164
GlyphClass: 2
Flags: HMW
LayerCount: 2
Fore
SplineSet
419 878 m 1
 424 1164 558 1343 766 1343 c 0
 822 1343 891 1328 955 1302 c 1
 933 1246 l 1
 880 1267 820 1280 766 1280 c 0
 569 1280 462 1126 456 835 c 1
 527 754 640 706 759 706 c 0
 846 706 927 732 996 780 c 1
 1027 730 l 1
 943 676 849 648 757 648 c 0
 560 648 416 754 320 951 c 1
 310 947 l 1
 389 735 438 380 438 0 c 1
 378 0 l 1
 378 543 313 899 138 1312 c 1
 200 1343 l 1
 268 1156 350 973 409 878 c 1
 419 878 l 1
EndSplineSet
Substitution2: "'tnum' Tabular Numbers lookup 22 subtable" uni06F4.tnum
Substitution2: "'locl' Localized Forms in Arabic lookup 5 subtable" uni06F4.urdu
Substitution2: "Single Substitution lookup 178 subtable" uni06F4.EoA
Substitution2: "SingleSubstitutionlookup179 subtable" uni06F4.s
EndChar

StartChar: uni06F5
Encoding: 1781 1781 719
Width: 1411
GlyphClass: 2
Flags: HMW
LayerCount: 2
Fore
SplineSet
677 348 m 1
 738 348 l 1
 739 310 l 2
 743 141 814 60 956 60 c 0
 1089 60 1161 159 1161 346 c 0
 1161 605 1009 866 695 1147 c 1
 424 892 250 576 250 335 c 0
 250 159 329 60 467 60 c 0
 601 60 672 144 676 308 c 2
 677 348 l 1
701 202 m 1
 677 78 586 0 468 0 c 0
 292 0 190 124 190 335 c 0
 190 585 352 883 648 1180 c 1
 596 1223 551 1256 503 1290 c 1
 535 1343 l 1
 962 1054 1222 678 1222 349 c 0
 1222 138 1115 0 951 0 c 0
 834 0 740 79 711 202 c 1
 701 202 l 1
EndSplineSet
Substitution2: "'tnum' Tabular Numbers lookup 22 subtable" uni06F5.tnum
Substitution2: "Single Substitution lookup 178 subtable" uni06F5.EoA
Substitution2: "SingleSubstitutionlookup179 subtable" uni06F5.s
EndChar

StartChar: uni06F6
Encoding: 1782 1782 720
Width: 1127
GlyphClass: 2
Flags: HMW
LayerCount: 2
Fore
SplineSet
734 640 m 1
 421 583 197 715 197 961 c 0
 197 1174 363 1342 573 1342 c 0
 687 1342 793 1293 871 1206 c 1
 832 1162 l 1
 759 1243 677 1282 581 1282 c 0
 399 1282 257 1140 257 957 c 0
 257 779 392 683 640 683 c 0
 709 683 785 690 931 712 c 2
 954 716 l 1
 961 653 l 1
 941 650 l 2
 698 616 530 463 196 -12 c 1
 146 23 l 1
 383 381 569 571 738 631 c 1
 734 640 l 1
EndSplineSet
Substitution2: "'tnum' Tabular Numbers lookup 22 subtable" uni06F6.tnum
Substitution2: "'locl' Localized Forms in Arabic lookup 5 subtable" uni0666
Substitution2: "Single Substitution lookup 178 subtable" uni06F6.EoA
Substitution2: "SingleSubstitutionlookup179 subtable" uni06F6.s
EndChar

StartChar: uni1D00
Encoding: 7424 7424 807
Width: 916
GlyphClass: 2
Flags: HMW
LayerCount: 2
Fore
SplineSet
82 0 m 1
 20 0 l 1
 407 990 l 1
 495 990 l 1
 882 0 l 1
 819 0 l 1
 708 298 l 1
 193 298 l 1
 82 0 l 1
446 951 m 1
 214 353 l 1
 687 353 l 1
 456 951 l 1
 446 951 l 1
EndSplineSet
EndChar

StartChar: uni1D01
Encoding: 7425 7425 808
Width: 1140
GlyphClass: 2
Flags: HMW
LayerCount: 2
Fore
SplineSet
220 353 m 1
 507 353 l 1
 507 948 l 1
 459 948 l 1
 220 353 l 1
83 0 m 1
 20 0 l 1
 417 990 l 1
 1058 990 l 1
 1058 937 l 1
 560 937 l 1
 560 523 l 1
 1016 523 l 1
 1016 467 l 1
 560 467 l 1
 560 53 l 1
 1058 53 l 1
 1058 0 l 1
 507 0 l 1
 507 298 l 1
 198 298 l 1
 83 0 l 1
EndSplineSet
EndChar

StartChar: uni1D04
Encoding: 7428 7428 809
Width: 1080
GlyphClass: 2
Flags: HMW
LayerCount: 2
Fore
SplineSet
572 1001 m 0
 782.601092896 1001 904.852459016 863 948 749 c 1
 896 731 l 1
 857.829113924 834 749.506329114 948 570 948 c 0
 313.206521739 948 192 752 192 495 c 0
 192 238 313.206521739 42 570 42 c 0
 749.506329114 42 857.829113924 157 896 260 c 1
 948 240 l 1
 904.852459016 126 782.601092896 -11 572 -11 c 0
 297.76744186 -11 132 184 132 495 c 0
 132 806 297.76744186 1001 572 1001 c 0
EndSplineSet
EndChar

StartChar: uni1D05
Encoding: 7429 7429 810
Width: 1031
GlyphClass: 2
Flags: HMW
LayerCount: 2
Fore
SplineSet
175 990 m 1
 507 990 l 2
 787 990 939 787 939 495 c 0
 939 203 787 0 507 0 c 2
 175 0 l 1
 175 990 l 1
234 938 m 1
 234 52 l 1
 507 52 l 2
 758 52 878 242 878 495 c 0
 878 748 758 938 507 938 c 2
 234 938 l 1
EndSplineSet
EndChar

StartChar: uni1D07
Encoding: 7431 7431 811
Width: 844
GlyphClass: 2
Flags: HMW
LayerCount: 2
Fore
SplineSet
761 52 m 1
 761 0 l 1
 175 0 l 1
 175 990 l 1
 761 990 l 1
 761 938 l 1
 234 938 l 1
 234 523 l 1
 721 523 l 1
 721 467 l 1
 234 467 l 1
 234 52 l 1
 761 52 l 1
EndSplineSet
EndChar

StartChar: uni1D0A
Encoding: 7434 7434 812
Width: 659
GlyphClass: 2
Flags: HMW
LayerCount: 2
Fore
SplineSet
95 6 m 1
 107 55 l 1
 133.162162162 50 181.126126126 43 228 43 c 0
 358.595744681 43 426 101 426 228 c 2
 426 990 l 1
 485 990 l 1
 485 224 l 2
 485 60 378.887096774 -10 227 -10 c 0
 181.557377049 -10 136.114754098 -4 95 6 c 1
EndSplineSet
EndChar

StartChar: uni1D0B
Encoding: 7435 7435 813
Width: 914
GlyphClass: 2
Flags: HMW
LayerCount: 2
Fore
SplineSet
795 990 m 1
 875 990 l 1
 419 495 l 1
 875 0 l 1
 795 0 l 1
 378 463 l 1
 234 463 l 1
 234 0 l 1
 175 0 l 1
 175 990 l 1
 234 990 l 1
 234 526 l 1
 378 526 l 1
 795 990 l 1
EndSplineSet
EndChar

StartChar: uni1D0D
Encoding: 7437 7437 814
Width: 1431
GlyphClass: 2
Flags: HMW
LayerCount: 2
Fore
SplineSet
234 0 m 1
 175 0 l 1
 175 990 l 1
 298 990 l 1
 693 30 l 1
 1134 990 l 1
 1257 990 l 1
 1257 0 l 1
 1196 0 l 1
 1196 961 l 1
 1186 961 l 1
 748 0 l 1
 637 0 l 1
 244 954 l 1
 234 954 l 1
 234 0 l 1
EndSplineSet
EndChar

StartChar: uni1D0F
Encoding: 7439 7439 815
Width: 1082
GlyphClass: 2
Flags: HMW
LayerCount: 2
Fore
SplineSet
542 1001 m 0
 832.484018265 1001 990 790 990 495 c 0
 990 200 832.484018265 -11 542 -11 c 0
 251.530751708 -11 93 200 93 495 c 0
 93 790 251.530751708 1001 542 1001 c 0
542 949 m 0
 272.151041667 949 148 743 148 495 c 0
 148 246 272.151041667 41 542 41 c 0
 811.848958333 41 936 247 936 495 c 0
 936 744 811.848958333 949 542 949 c 0
EndSplineSet
EndChar

StartChar: uni1D18
Encoding: 7448 7448 816
Width: 914
GlyphClass: 2
Flags: HMW
LayerCount: 2
Fore
SplineSet
235 937 m 1
 235 495 l 1
 552 495 l 2
 699 495 763 588 763 721 c 0
 763 854 699 937 552 937 c 2
 235 937 l 1
235 0 m 1
 175 0 l 1
 175 990 l 1
 551 990 l 2
 716 990 822 881 822 721 c 0
 822 561 715 442 551 442 c 2
 235 442 l 1
 235 0 l 1
EndSplineSet
EndChar

StartChar: uni1D1B
Encoding: 7451 7451 817
Width: 997
GlyphClass: 2
Flags: HMW
LayerCount: 2
Fore
SplineSet
529 0 m 1
 469 0 l 1
 469 937 l 1
 90 937 l 1
 90 990 l 1
 908 990 l 1
 908 937 l 1
 529 937 l 1
 529 0 l 1
EndSplineSet
EndChar

StartChar: uni1D1C
Encoding: 7452 7452 818
Width: 986
GlyphClass: 2
Flags: HMW
LayerCount: 2
Fore
SplineSet
802 990 m 1
 862 990 l 1
 862 342 l 2
 862 121 715.016713092 -11 493 -11 c 0
 270.966480447 -11 125 121 125 342 c 2
 125 990 l 1
 185 990 l 1
 185 342 l 2
 185 153 309.026845638 39 493 39 c 0
 676.953177258 39 802 153 802 342 c 2
 802 990 l 1
EndSplineSet
EndChar

StartChar: uni1D20
Encoding: 7456 7456 819
Width: 901
GlyphClass: 2
Flags: HMW
LayerCount: 2
Fore
SplineSet
456 39 m 1
 820 990 l 1
 882 990 l 1
 495 0 l 1
 407 0 l 1
 20 990 l 1
 83 990 l 1
 446 39 l 1
 456 39 l 1
EndSplineSet
EndChar

StartChar: uni1D21
Encoding: 7457 7457 820
Width: 1447
GlyphClass: 2
Flags: HMW
LayerCount: 2
Fore
SplineSet
1043 28 m 1
 1332 990 l 1
 1396 990 l 1
 1097 0 l 1
 982 0 l 1
 729 955 l 1
 719 955 l 1
 461 0 l 1
 351 0 l 1
 52 990 l 1
 114 990 l 1
 406 28 l 1
 416 28 l 1
 670 990 l 1
 779 990 l 1
 1033 28 l 1
 1043 28 l 1
EndSplineSet
EndChar

StartChar: uni1D22
Encoding: 7458 7458 821
Width: 970
GlyphClass: 2
Flags: HMW
LayerCount: 2
Fore
SplineSet
105 990 m 1
 866 990 l 1
 866 912 l 1
 156 52 l 1
 866 52 l 1
 866 0 l 1
 105 0 l 1
 105 80 l 1
 815 940 l 1
 105 940 l 1
 105 990 l 1
EndSplineSet
EndChar

StartChar: uni1E9E
Encoding: 7838 7838 981
Width: 1159
GlyphClass: 2
Flags: HMW
LayerCount: 2
Fore
SplineSet
169 0 m 1
 169 873 l 2
 169 1170 305 1342 565 1344 c 0
 757 1344 933 1235 933 1017 c 0
 933 875 861 757 722 703 c 1
 908 666 1056 562 1056 328 c 0
 1056 129 950 -10 743 -10 c 0
 559 -10 428 83 428 275 c 1
 488 275 l 1
 488 116 593 42 741 42 c 0
 917 42 999 163 999 329 c 0
 999 587 794 671 533 671 c 1
 533 720 l 1
 794 720 876 879 876 1017 c 0
 876 1202 724 1292 565 1292 c 0
 344 1292 230 1141 230 873 c 2
 230 0 l 1
 169 0 l 1
EndSplineSet
EndChar

StartChar: uni200C
Encoding: 8204 8204 1073
Width: 0
GlyphClass: 2
Flags: HMW
LayerCount: 2
Fore
SplineSet
30 1366 m 1
 30 -291 l 1
 -30 -291 l 1
 -30 1366 l 1
 30 1366 l 1
EndSplineSet
EndChar

StartChar: uni200D
Encoding: 8205 8205 1074
Width: 0
GlyphClass: 2
Flags: HMW
LayerCount: 2
Fore
SplineSet
184 -281 m 1
 45 -142 l 1
 89 -98 l 1
 228 -237 l 1
 184 -281 l 1
-89 -8 m 1
 -228 131 l 1
 -184 175 l 1
 -45 36 l 1
 -89 -8 l 1
228 131 m 1
 -184 -281 l 1
 -228 -237 l 1
 184 175 l 1
 228 131 l 1
184 1032 m 1
 45 1171 l 1
 89 1215 l 1
 228 1076 l 1
 184 1032 l 1
-89 1305 m 1
 -228 1444 l 1
 -184 1488 l 1
 -45 1349 l 1
 -89 1305 l 1
228 1444 m 1
 -184 1032 l 1
 -228 1076 l 1
 184 1488 l 1
 228 1444 l 1
-30 1068 m 1
 30 1068 l 1
 30 139 l 1
 -30 139 l 1
 -30 1068 l 1
EndSplineSet
EndChar

StartChar: uni200E
Encoding: 8206 8206 1075
Width: 0
GlyphClass: 2
Flags: HMW
LayerCount: 2
Fore
SplineSet
282 1043 m 1
 238 1087 l 1
 422 1271 l 1
 238 1455 l 1
 282 1499 l 1
 510 1271 l 1
 282 1043 l 1
283 -290 m 1
 239 -246 l 1
 423 -62 l 1
 239 122 l 1
 283 166 l 1
 511 -62 l 1
 283 -290 l 1
30 49 m 2
 30 4 67 -33 112 -33 c 2
 274 -33 l 1
 274 -93 l 1
 112 -93 l 2
 33 -93 -30 -30 -30 49 c 2
 -30 1159 l 2
 -30 1238 33 1301 112 1301 c 2
 274 1301 l 1
 274 1241 l 1
 112 1241 l 2
 67 1241 30 1204 30 1159 c 2
 30 49 l 2
EndSplineSet
EndChar

StartChar: uni200F
Encoding: 8207 8207 1076
Width: 0
GlyphClass: 2
Flags: HMW
LayerCount: 2
Fore
SplineSet
-282 1043 m 1
 -510 1271 l 1
 -282 1499 l 1
 -238 1455 l 1
 -422 1271 l 1
 -238 1087 l 1
 -282 1043 l 1
-283 -290 m 1
 -511 -62 l 1
 -283 166 l 1
 -239 122 l 1
 -423 -62 l 1
 -239 -246 l 1
 -283 -290 l 1
-30 49 m 2
 -30 1159 l 2
 -30 1204 -67 1241 -112 1241 c 2
 -274 1241 l 1
 -274 1301 l 1
 -112 1301 l 2
 -33 1301 30 1238 30 1159 c 2
 30 49 l 2
 30 -30 -33 -93 -112 -93 c 2
 -274 -93 l 1
 -274 -33 l 1
 -112 -33 l 2
 -67 -33 -30 4 -30 49 c 2
EndSplineSet
EndChar

StartChar: figuredash
Encoding: 8210 8210 1079
Width: 1377
GlyphClass: 2
Flags: HMW
LayerCount: 2
Fore
SplineSet
1228 588 m 1
 1228 528 l 1
 150 528 l 1
 150 588 l 1
 1228 588 l 1
EndSplineSet
EndChar

StartChar: emdash
Encoding: 8212 8212 1081
Width: 2048
GlyphClass: 2
Flags: HMW
LayerCount: 2
Fore
SplineSet
1948 588 m 1
 1948 528 l 1
 100 528 l 1
 100 588 l 1
 1948 588 l 1
EndSplineSet
EndChar

StartChar: quoteleft
Encoding: 8216 8216 1083
Width: 533
GlyphClass: 2
Flags: HMW
LayerCount: 2
Fore
SplineSet
263 1510 m 1
 355 1113 l 1
 308 1097 l 1
 180 1510 l 1
 263 1510 l 1
EndSplineSet
EndChar

StartChar: quoteright
Encoding: 8217 8217 1084
Width: 533
GlyphClass: 2
Flags: HMW
LayerCount: 2
Fore
SplineSet
271 1510 m 1
 355 1510 l 1
 226 1097 l 1
 180 1113 l 1
 271 1510 l 1
EndSplineSet
EndChar

StartChar: dagger
Encoding: 8224 8224 1091
Width: 1307
GlyphClass: 2
Flags: HMW
LayerCount: 2
Fore
SplineSet
200 896 m 1
 200 955 l 1
 1108 955 l 1
 1108 896 l 1
 200 896 l 1
624 1331 m 1
 683 1331 l 1
 683 -477 l 1
 624 -477 l 1
 624 1331 l 1
EndSplineSet
EndChar

StartChar: daggerdbl
Encoding: 8225 8225 1092
Width: 1307
GlyphClass: 2
Flags: HMW
LayerCount: 2
Fore
SplineSet
200 -101 m 1
 200 -42 l 1
 1108 -42 l 1
 1108 -101 l 1
 200 -101 l 1
200 896 m 1
 200 955 l 1
 1108 955 l 1
 1108 896 l 1
 200 896 l 1
624 1331 m 1
 683 1331 l 1
 683 -477 l 1
 624 -477 l 1
 624 1331 l 1
EndSplineSet
EndChar

StartChar: bullet
Encoding: 8226 8226 1093
Width: 452
GlyphClass: 2
Flags: HMW
LayerCount: 2
Fore
SplineSet
100 688 m 0
 100 759 151 814 227 814 c 0
 303 814 353 759 353 688 c 0
 353 617 303 560 227 560 c 0
 151 560 100 617 100 688 c 0
EndSplineSet
EndChar

StartChar: uni202A
Encoding: 8234 8234 1095
Width: 0
GlyphClass: 2
Flags: HMW
LayerCount: 2
Fore
SplineSet
-68 1042 m 1
 -112 1086 l 1
 72 1270 l 1
 -112 1454 l 1
 -68 1498 l 1
 160 1270 l 1
 -68 1042 l 1
-30 893 m 1
 30 893 l 1
 30 49 l 1
 -30 49 l 1
 -30 893 l 1
EndSplineSet
EndChar

StartChar: uni202B
Encoding: 8235 8235 1096
Width: 0
GlyphClass: 2
Flags: HMW
LayerCount: 2
Fore
SplineSet
68 1042 m 1
 -160 1270 l 1
 68 1498 l 1
 112 1454 l 1
 -72 1270 l 1
 112 1086 l 1
 68 1042 l 1
-30 893 m 1
 30 893 l 1
 30 49 l 1
 -30 49 l 1
 -30 893 l 1
EndSplineSet
EndChar

StartChar: uni202C
Encoding: 8236 8236 1097
Width: 0
GlyphClass: 2
Flags: HMW
LayerCount: 2
Fore
SplineSet
-228 1185 m 1
 0 1413 l 1
 228 1185 l 1
 184 1141 l 1
 0 1324 l 1
 -184 1141 l 1
 -228 1185 l 1
-30 945 m 1
 30 945 l 1
 30 49 l 1
 -30 49 l 1
 -30 945 l 1
EndSplineSet
EndChar

StartChar: uni202D
Encoding: 8237 8237 1098
Width: 0
GlyphClass: 2
Flags: HMW
LayerCount: 2
Fore
SplineSet
72 1042 m 1
 28 1086 l 1
 212 1270 l 1
 28 1454 l 1
 72 1498 l 1
 300 1270 l 1
 72 1042 l 1
-156 1042 m 1
 -200 1086 l 1
 -16 1270 l 1
 -200 1454 l 1
 -156 1498 l 1
 72 1270 l 1
 -156 1042 l 1
-30 893 m 1
 30 893 l 1
 30 49 l 1
 -30 49 l 1
 -30 893 l 1
EndSplineSet
EndChar

StartChar: uni202E
Encoding: 8238 8238 1099
Width: 0
GlyphClass: 2
Flags: HMW
LayerCount: 2
Fore
SplineSet
-72 1042 m 1
 -300 1270 l 1
 -72 1498 l 1
 -28 1454 l 1
 -212 1270 l 1
 -28 1086 l 1
 -72 1042 l 1
156 1042 m 1
 -72 1270 l 1
 156 1498 l 1
 200 1454 l 1
 16 1270 l 1
 200 1086 l 1
 156 1042 l 1
-30 893 m 1
 30 893 l 1
 30 49 l 1
 -30 49 l 1
 -30 893 l 1
EndSplineSet
EndChar

StartChar: minute
Encoding: 8242 8242 1101
Width: 443
GlyphClass: 2
Flags: HMW
LayerCount: 2
Fore
SplineSet
230 1531 m 1
 314 1531 l 1
 194 1120 l 1
 130 1120 l 1
 230 1531 l 1
EndSplineSet
EndChar

StartChar: uni2035
Encoding: 8245 8245 1104
Width: 443
GlyphClass: 2
Flags: HMW
LayerCount: 2
Fore
SplineSet
214 1531 m 1
 314 1120 l 1
 250 1120 l 1
 130 1531 l 1
 214 1531 l 1
EndSplineSet
EndChar

StartChar: guilsinglleft
Encoding: 8249 8249 1107
Width: 488
GlyphClass: 2
Flags: HMW
LayerCount: 2
Fore
SplineSet
172 622 m 1
 390 820 l 1
 354 858 l 1
 100 622 l 1
 354 386 l 1
 390 424 l 1
 172 622 l 1
EndSplineSet
EndChar

StartChar: guilsinglright
Encoding: 8250 8250 1108
Width: 488
GlyphClass: 2
Flags: HMW
LayerCount: 2
Fore
SplineSet
316 622 m 1
 100 424 l 1
 135 386 l 1
 390 622 l 1
 135 858 l 1
 100 820 l 1
 316 622 l 1
EndSplineSet
EndChar

StartChar: fraction
Encoding: 8260 8260 1109
Width: 1072
GlyphClass: 2
Flags: HMW
LayerCount: 2
Fore
SplineSet
166 -33 m 1
 121 1 l 1
 908 1023 l 1
 953 990 l 1
 166 -33 l 1
EndSplineSet
EndChar

StartChar: uni2070
Encoding: 8304 8304 1110
Width: 614
GlyphClass: 2
Flags: HMW
LayerCount: 2
Fore
SplineSet
308 1650 m 0
 148 1650 112 1505 112 1331 c 0
 112 1157 148 1014 308 1014 c 0
 468 1014 504 1157 504 1331 c 0
 504 1505 468 1650 308 1650 c 0
308 1707 m 0
 492 1707 566 1558 566 1331 c 0
 566 1104 492 957 308 957 c 0
 124 957 49 1104 49 1331 c 0
 49 1558 124 1707 308 1707 c 0
EndSplineSet
EndChar

StartChar: uni2074
Encoding: 8308 8308 1111
Width: 658
GlyphClass: 2
Flags: HMW
LayerCount: 2
Fore
SplineSet
468 1169 m 1
 468 1599 l 1
 113 1169 l 1
 468 1169 l 1
468 1109 m 1
 38 1109 l 1
 38 1160 l 1
 470 1702 l 1
 528 1702 l 1
 528 1169 l 1
 662 1169 l 1
 662 1109 l 1
 528 1109 l 1
 528 961 l 1
 468 961 l 1
 468 1109 l 1
EndSplineSet
EndChar

StartChar: uni2075
Encoding: 8309 8309 1112
Width: 600
GlyphClass: 2
Flags: HMW
LayerCount: 2
Fore
SplineSet
98 1703 m 1
 549 1703 l 1
 549 1643 l 1
 156 1643 l 1
 135 1398 l 1
 146 1398 l 1
 186 1428 244 1448 301 1448 c 0
 463 1448 555 1365 555 1203 c 0
 555 1050 456 957 297 957 c 0
 155 957 56 1042 56 1167 c 1
 120 1167 l 1
 120 1073 182 1014 299 1014 c 0
 423 1014 492 1077 492 1203 c 0
 492 1339 426 1392 299 1392 c 0
 232 1392 171 1374 134 1318 c 1
 67 1318 l 1
 98 1703 l 1
EndSplineSet
EndChar

StartChar: uni2076
Encoding: 8310 8310 1113
Width: 619
GlyphClass: 2
Flags: HMW
LayerCount: 2
Fore
SplineSet
322 1388 m 0
 211 1388 135 1312 135 1201 c 0
 135 1091 212 1014 322 1014 c 0
 430 1014 493 1083 493 1201 c 0
 493 1321 431 1388 322 1388 c 0
322 1445 m 0
 463 1445 555 1349 555 1201 c 0
 555 1055 462 957 322 957 c 0
 148 957 63 1072 63 1309 c 0
 63 1571 151 1707 320 1707 c 0
 448 1707 526 1641 541 1519 c 1
 481 1519 l 1
 468 1607 413 1650 314 1650 c 0
 190 1650 122 1537 120 1325 c 1
 132 1325 l 1
 168 1401 239 1445 322 1445 c 0
EndSplineSet
EndChar

StartChar: uni2077
Encoding: 8311 8311 1114
Width: 655
GlyphClass: 2
Flags: HMW
LayerCount: 2
Fore
SplineSet
613 1656 m 1
 470 1485 310 1236 310 961 c 1
 246 961 l 1
 246 1223 399 1481 532 1643 c 1
 55 1643 l 1
 55 1702 l 1
 601 1702 l 1
 613 1656 l 1
EndSplineSet
EndChar

StartChar: uni2078
Encoding: 8312 8312 1115
Width: 626
GlyphClass: 2
Flags: HMW
LayerCount: 2
Fore
SplineSet
313 1707 m 0
 448 1707 544 1627 544 1513 c 0
 544 1446 507 1387 441 1350 c 1
 441 1338 l 1
 524 1301 579 1231 579 1160 c 0
 579 1036 475 957 313 957 c 0
 149 957 48 1035 48 1160 c 0
 48 1234 104 1306 184 1339 c 1
 184 1351 l 1
 118 1390 82 1446 82 1513 c 0
 82 1626 179 1707 313 1707 c 0
313 1650 m 0
 209 1650 144 1597 144 1513 c 0
 144 1422 206 1368 313 1368 c 0
 420 1368 482 1422 482 1513 c 0
 482 1597 417 1650 313 1650 c 0
313 1312 m 0
 190 1312 110 1252 110 1160 c 0
 110 1066 182 1014 313 1014 c 0
 445 1014 517 1066 517 1160 c 0
 517 1251 435 1312 313 1312 c 0
EndSplineSet
EndChar

StartChar: arrowleft
Encoding: 8592 8592 1145
Width: 1217
GlyphClass: 2
Flags: HMW
LayerCount: 2
Fore
SplineSet
1069 464 m 1
 296 464 l 1
 257 475 l 1
 523 210 l 1
 478 166 l 1
 150 494 l 1
 478 822 l 1
 523 778 l 1
 257 513 l 1
 296 524 l 1
 1069 524 l 1
 1069 464 l 1
EndSplineSet
EndChar

StartChar: arrowup
Encoding: 8593 8593 1146
Width: 955
GlyphClass: 2
Flags: HMW
LayerCount: 2
Fore
SplineSet
449 -15 m 1
 449 757 l 1
 459 796 l 1
 194 531 l 1
 150 575 l 1
 478 903 l 1
 806 575 l 1
 762 531 l 1
 497 796 l 1
 508 757 l 1
 508 -15 l 1
 449 -15 l 1
EndSplineSet
EndChar

StartChar: arrowright
Encoding: 8594 8594 1147
Width: 1217
GlyphClass: 2
Flags: HMW
LayerCount: 2
Fore
SplineSet
150 524 m 1
 922 524 l 1
 961 513 l 1
 696 778 l 1
 740 822 l 1
 1069 494 l 1
 740 166 l 1
 696 210 l 1
 961 475 l 1
 922 464 l 1
 150 464 l 1
 150 524 l 1
EndSplineSet
EndChar

StartChar: arrowdown
Encoding: 8595 8595 1148
Width: 955
GlyphClass: 2
Flags: HMW
LayerCount: 2
Fore
SplineSet
508 1003 m 1
 508 231 l 1
 497 192 l 1
 762 457 l 1
 806 413 l 1
 478 85 l 1
 150 413 l 1
 194 457 l 1
 459 192 l 1
 449 231 l 1
 449 1003 l 1
 508 1003 l 1
EndSplineSet
EndChar

StartChar: arrowboth
Encoding: 8596 8596 1149
Width: 1553
GlyphClass: 2
Flags: HMW
LayerCount: 2
Fore
SplineSet
478 822 m 1
 523 778 l 1
 257 513 l 1
 296 524 l 1
 1258 524 l 1
 1297 513 l 1
 1032 778 l 1
 1076 822 l 1
 1405 494 l 1
 1076 166 l 1
 1032 210 l 1
 1297 475 l 1
 1258 464 l 1
 296 464 l 1
 257 475 l 1
 523 210 l 1
 478 166 l 1
 150 494 l 1
 478 822 l 1
EndSplineSet
EndChar

StartChar: arrowupdn
Encoding: 8597 8597 1150
Width: 955
GlyphClass: 2
Flags: HMW
LayerCount: 2
Fore
SplineSet
478 1121 m 1
 806 793 l 1
 762 749 l 1
 497 1014 l 1
 508 975 l 1
 508 13 l 1
 497 -26 l 1
 762 239 l 1
 806 195 l 1
 478 -133 l 1
 150 195 l 1
 194 239 l 1
 459 -26 l 1
 449 13 l 1
 449 975 l 1
 459 1014 l 1
 194 749 l 1
 150 793 l 1
 478 1121 l 1
EndSplineSet
EndChar

StartChar: uni2196
Encoding: 8598 8598 1151
Width: 1039
GlyphClass: 2
Flags: HMW
LayerCount: 2
Fore
SplineSet
847 114 m 1
 232 729 l 1
 212 764 l 1
 212 389 l 1
 150 389 l 1
 150 853 l 1
 614 853 l 1
 614 791 l 1
 239 791 l 1
 274 771 l 1
 889 156 l 1
 847 114 l 1
EndSplineSet
EndChar

StartChar: uni2197
Encoding: 8599 8599 1152
Width: 1039
GlyphClass: 2
Flags: HMW
LayerCount: 2
Fore
SplineSet
150 156 m 1
 765 771 l 1
 800 791 l 1
 425 791 l 1
 425 853 l 1
 889 853 l 1
 889 389 l 1
 827 389 l 1
 827 764 l 1
 807 729 l 1
 192 114 l 1
 150 156 l 1
EndSplineSet
EndChar

StartChar: uni2198
Encoding: 8600 8600 1153
Width: 1039
GlyphClass: 2
Flags: HMW
LayerCount: 2
Fore
SplineSet
192 853 m 1
 807 238 l 1
 827 203 l 1
 827 578 l 1
 889 578 l 1
 889 114 l 1
 425 114 l 1
 425 176 l 1
 800 176 l 1
 765 196 l 1
 150 811 l 1
 192 853 l 1
EndSplineSet
EndChar

StartChar: uni2199
Encoding: 8601 8601 1154
Width: 1039
GlyphClass: 2
Flags: HMW
LayerCount: 2
Fore
SplineSet
889 811 m 1
 274 196 l 1
 239 176 l 1
 614 176 l 1
 614 114 l 1
 150 114 l 1
 150 578 l 1
 212 578 l 1
 212 203 l 1
 232 238 l 1
 847 853 l 1
 889 811 l 1
EndSplineSet
EndChar

StartChar: uni220E
Encoding: 8718 8718 1155
Width: 1041
GlyphClass: 2
Flags: HMW
LayerCount: 2
Fore
SplineSet
212 1180 m 1
 831 1180 l 1
 831 0 l 1
 212 0 l 1
 212 1180 l 1
EndSplineSet
EndChar

StartChar: uni2215
Encoding: 8725 8725 1157
Width: 1072
GlyphClass: 2
Flags: HMW
LayerCount: 2
Fore
SplineSet
166 -33 m 1
 121 1 l 1
 908 1023 l 1
 953 990 l 1
 166 -33 l 1
EndSplineSet
EndChar

StartChar: approxequal
Encoding: 8776 8776 1158
Width: 1149
GlyphClass: 2
Flags: HMW
LayerCount: 2
Fore
SplineSet
174 294 m 1
 245 389 314 429 394 429 c 0
 440 429 499 412 586 363 c 0
 662 321 711 305 746 305 c 0
 803 305 859 339 918 416 c 1
 966 384 l 1
 895 287 830 249 751 249 c 0
 703 249 639 268 557 315 c 0
 486 356 432 373 395 373 c 0
 337 373 282 340 223 262 c 1
 174 294 l 1
174 712 m 1
 245 807 314 847 394 847 c 0
 440 847 499 830 586 781 c 0
 662 739 711 723 746 723 c 0
 803 723 859 757 918 834 c 1
 966 802 l 1
 895 705 830 667 751 667 c 0
 703 667 639 686 557 733 c 0
 486 774 432 791 395 791 c 0
 337 791 282 758 223 680 c 1
 174 712 l 1
EndSplineSet
EndChar

StartChar: filledbox
Encoding: 9632 9632 1160
Width: 1037
GlyphClass: 2
Flags: HMW
LayerCount: 2
Fore
SplineSet
212 615 m 1
 827 615 l 1
 827 0 l 1
 212 0 l 1
 212 615 l 1
EndSplineSet
EndChar

StartChar: uni25CC
Encoding: 9676 9676 1161
Width: 1378
GlyphClass: 2
Flags: HMW
AnchorPoint: "Anchor5" 689 1311 basechar 0
AnchorPoint: "Anchor3" 689 227 basechar 0
AnchorPoint: "down_II" 689 227 basechar 0
AnchorPoint: "middle_dot_I" 1358 769 basechar 0
AnchorPoint: "down_I" 689 227 basechar 0
AnchorPoint: "up_II" 689 1311 basechar 0
AnchorPoint: "up_I" 689 1311 basechar 0
LayerCount: 2
Fore
SplineSet
643 227 m 0
 643 261 655 273 689 273 c 0
 723 273 735 261 735 227 c 0
 735 193 723 180 689 180 c 0
 655 180 643 193 643 227 c 0
643 1311 m 0
 643 1345 655 1358 689 1358 c 0
 723 1358 735 1345 735 1311 c 0
 735 1277 723 1265 689 1265 c 0
 655 1265 643 1277 643 1311 c 0
1231 723 m 0
 1197 723 1185 735 1185 769 c 0
 1185 803 1197 815 1231 815 c 0
 1265 815 1278 803 1278 769 c 0
 1278 735 1265 723 1231 723 c 0
147 723 m 0
 113 723 100 735 100 769 c 0
 100 803 113 815 147 815 c 0
 181 815 193 803 193 769 c 0
 193 735 181 723 147 723 c 0
1026 386 m 0
 1026 420 1038 432 1072 432 c 0
 1106 432 1119 420 1119 386 c 0
 1119 352 1106 339 1072 339 c 0
 1038 339 1026 352 1026 386 c 0
259 1152 m 0
 259 1186 272 1199 306 1199 c 0
 340 1199 352 1186 352 1152 c 0
 352 1118 340 1106 306 1106 c 0
 272 1106 259 1118 259 1152 c 0
1072 1106 m 0
 1038 1106 1026 1118 1026 1152 c 0
 1026 1186 1038 1199 1072 1199 c 0
 1106 1199 1119 1186 1119 1152 c 0
 1119 1118 1106 1106 1072 1106 c 0
306 339 m 0
 272 339 259 352 259 386 c 0
 259 420 272 432 306 432 c 0
 340 432 352 420 352 386 c 0
 352 352 340 339 306 339 c 0
435 268 m 0
 435 302 448 314 482 314 c 0
 516 314 528 302 528 268 c 0
 528 234 516 221 482 221 c 0
 448 221 435 234 435 268 c 0
896 1317 m 0
 930 1317 943 1304 943 1270 c 0
 943 1236 930 1224 896 1224 c 0
 862 1224 850 1236 850 1270 c 0
 850 1304 862 1317 896 1317 c 0
1190 515 m 0
 1156 515 1144 528 1144 562 c 0
 1144 596 1156 608 1190 608 c 0
 1224 608 1237 596 1237 562 c 0
 1237 528 1224 515 1190 515 c 0
141 976 m 0
 141 1010 154 1023 188 1023 c 0
 222 1023 234 1010 234 976 c 0
 234 942 222 930 188 930 c 0
 154 930 141 942 141 976 c 0
850 268 m 0
 850 302 862 314 896 314 c 0
 930 314 943 302 943 268 c 0
 943 234 930 221 896 221 c 0
 862 221 850 234 850 268 c 0
435 1270 m 0
 435 1304 448 1317 482 1317 c 0
 516 1317 528 1304 528 1270 c 0
 528 1236 516 1224 482 1224 c 0
 448 1224 435 1236 435 1270 c 0
1190 930 m 0
 1156 930 1144 942 1144 976 c 0
 1144 1010 1156 1023 1190 1023 c 0
 1224 1023 1237 1010 1237 976 c 0
 1237 942 1224 930 1190 930 c 0
188 515 m 0
 154 515 141 528 141 562 c 0
 141 596 154 608 188 608 c 0
 222 608 234 596 234 562 c 0
 234 528 222 515 188 515 c 0
EndSplineSet
EndChar

StartChar: uniA729
Encoding: 42793 42793 1163
Width: 1611
GlyphClass: 2
Flags: HMW
LayerCount: 2
Fore
SplineSet
637 55 m 1
 649 6 l 1
 611 -4 568 -10 526 -10 c 0
 380 -10 269 60 269 224 c 2
 269 1278 l 1
 329 1278 l 1
 329 227 l 2
 329 100 402 43 526 43 c 0
 569 43 613 50 637 55 c 1
EndSplineSet
Refer: 1196 57354 N 1 0 0 1 -24 441 2
Refer: 442 658 N 1 0 0 1 555 0 2
EndChar

StartChar: uniA730
Encoding: 42800 42800 1164
Width: 850
GlyphClass: 2
Flags: HMW
LayerCount: 2
Fore
SplineSet
175 0 m 1
 175 990 l 1
 761 990 l 1
 761 937 l 1
 234 937 l 1
 234 521 l 1
 721 521 l 1
 721 467 l 1
 234 467 l 1
 234 0 l 1
 175 0 l 1
EndSplineSet
EndChar

StartChar: uniA731
Encoding: 42801 42801 1165
Width: 875
GlyphClass: 2
Flags: HMW
LayerCount: 2
Fore
SplineSet
90 261 m 1
 150 261 l 1
 150 106 288.668989547 42 447 42 c 0
 602.617977528 42 724 96 724 242 c 0
 724 383 635.964285714 413 434 473 c 0
 253.391025641 527 112 583 112 751 c 0
 112 904 248.31372549 1001 428 1001 c 0
 603.230769231 1001 763 894 763 730 c 1
 703 730 l 1
 703 877 579.526315789 950 427 950 c 0
 274 950 172 888 172 754 c 0
 172 627 262.210332103 585 453 532 c 0
 655.068111455 476 786 419 786 245 c 0
 786 78 631.440729483 -11 447 -11 c 0
 265.92795389 -11 90 83 90 261 c 1
EndSplineSet
EndChar

StartChar: uniA733
Encoding: 42803 42803 1167
Width: 1702
GlyphClass: 2
Flags: HMW
LayerCount: 2
Fore
SplineSet
1162 999 m 0
 1364.73371105 999 1529 908 1529 715 c 2
 1529 217 l 2
 1529 110 1562 53 1676 53 c 1
 1677 0 l 1
 1541 0 1469 69 1469 213 c 2
 1469 715 l 2
 1469 875 1330.71428571 947 1161 947 c 0
 991.861016949 947 853 875 853 715 c 1
 794 715 l 1
 794 908 959.85915493 999 1162 999 c 0
500 999 m 0
 695 999 853 908 853 715 c 2
 853 354 l 1
 793 231 l 1
 793 715 l 2
 793 875 661 947 499 947 c 0
 337 947 204 875 204 715 c 1
 145 715 l 1
 145 908 305 999 500 999 c 0
EndSplineSet
Refer: 1197 57355 N 1 0 0 1 678 0 2
Refer: 1197 57355 N 1 0 0 1 0 0 2
EndChar

StartChar: uniA734
Encoding: 42804 42804 1168
Width: 2215
GlyphClass: 2
Flags: HMW
LayerCount: 2
Fore
SplineSet
569 1292 m 1
 261 466 l 1
 885 466 l 1
 579 1292 l 1
 569 1292 l 1
241 411 m 1
 86 0 l 1
 22 0 l 1
 530 1331 l 1
 618 1331 l 1
 969 411 l 1
 241 411 l 1
EndSplineSet
Refer: 47 79 N 1 0 0 1 694 0 2
EndChar

StartChar: uniA735
Encoding: 42805 42805 1169
Width: 1775
GlyphClass: 2
Flags: HMW
LayerCount: 2
Fore
SplineSet
793 249 m 1
 793 715 l 2
 793 875 661 947 499 947 c 0
 337 947 204 875 204 715 c 1
 145 715 l 1
 145 908 305 999 500 999 c 0
 695 999 853 908 853 715 c 2
 853 249 l 1
 793 249 l 1
EndSplineSet
Refer: 1197 57355 N 1 0 0 1 0 0 2
Refer: 79 111 N 1 0 0 1 702 0 2
EndChar

StartChar: uniA736
Encoding: 42806 42806 1170
Width: 1781
GlyphClass: 2
Flags: HMW
LayerCount: 2
Fore
SplineSet
1546 1331 m 1
 1607 1331 l 1
 1607 469 l 2
 1607 172 1416 0 1125 0 c 1
 1081 50 l 1
 1125 50 l 2
 1376 50 1546 201 1546 469 c 2
 1546 1331 l 1
EndSplineSet
Refer: 33 65 N 1 0 0 1 0 0 2
EndChar

StartChar: uniA737
Encoding: 42807 42807 1171
Width: 1757
GlyphClass: 2
Flags: HMW
LayerCount: 2
Fore
SplineSet
1554 990 m 1
 1554 217 l 2
 1554 110 1587 53 1701 53 c 1
 1702 0 l 1
 1566 0 1494 69 1494 213 c 2
 1494 990 l 1
 1554 990 l 1
145 715 m 1
 145 908 305 999 500 999 c 0
 695 999 853 908 853 715 c 2
 853 355 l 2
 853 172 945 42 1120 42 c 0
 1349 42 1459 245 1494 484 c 1
 1522 435 l 1
 1484 195 1353 -9 1101 -9 c 0
 900 -9 793 140 793 357 c 2
 793 715 l 2
 793 875 661 947 499 947 c 0
 337 947 204 875 204 715 c 1
 145 715 l 1
EndSplineSet
Refer: 1197 57355 N 1 0 0 1 0 0 2
EndChar

StartChar: uniA738
Encoding: 42808 42808 1172
Width: 1678
GlyphClass: 2
Flags: HMW
LayerCount: 2
Fore
SplineSet
1593 1331 m 1
 1657 1331 l 1
 1148 0 l 1
 1060 0 l 1
 906 411 l 1
 241 411 l 1
 86 0 l 1
 22 0 l 1
 530 1331 l 1
 618 1331 l 1
 1099 40 l 1
 1109 40 l 1
 1593 1331 l 1
569 1292 m 1
 261 466 l 1
 885 466 l 1
 579 1292 l 1
 569 1292 l 1
EndSplineSet
EndChar

StartChar: uniA739
Encoding: 42809 42809 1173
Width: 1577
GlyphClass: 2
Flags: HMW
LayerCount: 2
Fore
SplineSet
847 247 m 1
 716.809570312 66.26171875 609.120117188 -11 402 -11 c 0
 225 -11 117 84 117 244 c 0
 117 437 270 548 538 548 c 2
 920 548 l 1
 920 494 l 1
 538 494 l 2
 307 494 177 405 177 244 c 0
 177 116 258 42 402 42 c 0
 585.486328125 42 676 101 811 273 c 1
 847 247 l 1
145 715 m 1
 145 908 305 999 500 999 c 0
 656 999 788 941 835 819 c 2
 1135 42 l 1
 1145 42 l 1
 1502 990 l 1
 1562 990 l 1
 1187 0 l 1
 1091 0 l 1
 779 799 l 2
 740 899 629 947 499 947 c 0
 337 947 204 875 204 715 c 1
 145 715 l 1
EndSplineSet
EndChar

StartChar: uniA73A
Encoding: 42810 42810 1174
Width: 1682
GlyphClass: 2
Flags: HMW
LayerCount: 2
Fore
SplineSet
753 920 m 1
 1462 920 l 1
 1462 865 l 1
 753 865 l 1
 753 920 l 1
262 466 m 1
 885 466 l 1
 574 1292 l 1
 262 466 l 1
241 411 m 1
 86 0 l 1
 22 0 l 1
 530 1331 l 1
 618 1331 l 1
 1109 40 l 1
 1598 1331 l 1
 1661 1331 l 1
 1153 0 l 1
 1061 0 l 1
 906 411 l 1
 241 411 l 1
EndSplineSet
EndChar

StartChar: uniA73B
Encoding: 42811 42811 1175
Width: 1577
GlyphClass: 2
Flags: HMW
LayerCount: 2
Fore
SplineSet
847 247 m 1
 716.809570312 66.26171875 609.120117188 -11 402 -11 c 0
 225 -11 117 84 117 244 c 0
 117 437 270 548 538 548 c 2
 920 548 l 1
 920 494 l 1
 538 494 l 2
 307 494 177 405 177 244 c 0
 177 116 258 42 402 42 c 0
 585.486328125 42 676 101 811 273 c 1
 847 247 l 1
862 704 m 1
 1412 704 l 1
 1412 650 l 1
 862 650 l 1
 862 704 l 1
145 715 m 1
 145 908 305 999 500 999 c 0
 656 999 788 941 835 819 c 2
 1135 42 l 1
 1145 42 l 1
 1502 990 l 1
 1562 990 l 1
 1187 0 l 1
 1091 0 l 1
 779 799 l 2
 740 899 629 947 499 947 c 0
 337 947 204 875 204 715 c 1
 145 715 l 1
EndSplineSet
EndChar

StartChar: uniA73C
Encoding: 42812 42812 1176
Width: 1682
GlyphClass: 2
Flags: HMW
LayerCount: 2
Fore
SplineSet
241 411 m 1
 86 0 l 1
 22 0 l 1
 530 1331 l 1
 618 1331 l 1
 1109 40 l 1
 1598 1331 l 1
 1661 1331 l 1
 976 -480 l 1
 895 -480 l 1
 1077 -47 l 1
 906 411 l 1
 241 411 l 1
262 466 m 1
 885 466 l 1
 574 1292 l 1
 262 466 l 1
EndSplineSet
EndChar

StartChar: uniA73D
Encoding: 42813 42813 1177
Width: 1577
GlyphClass: 2
Flags: HMW
LayerCount: 2
Fore
SplineSet
847 247 m 1
 716.809570312 66.26171875 609.120117188 -11 402 -11 c 0
 225 -11 117 84 117 244 c 0
 117 437 270 548 538 548 c 2
 920 548 l 1
 920 494 l 1
 538 494 l 2
 307 494 177 405 177 244 c 0
 177 116 258 42 402 42 c 0
 585.486328125 42 676 101 811 273 c 1
 847 247 l 1
800 745 m 2
 745 884 652 947 499 947 c 0
 316 947 204 859 204 715 c 1
 145 715 l 1
 145 889 282 999 500 999 c 0
 683 999 796 925 856 765 c 2
 1134 30 l 1
 1144 30 l 1
 1502 990 l 1
 1562 990 l 1
 1101 -226 l 2
 1035 -400 919 -487 755 -487 c 2
 689 -487 l 1
 689 -433 l 1
 755 -433 l 2
 897 -433 987 -367 1041 -223 c 2
 1109 -42 l 1
 800 745 l 2
EndSplineSet
EndChar

StartChar: uniA760
Encoding: 42848 42848 1180
Width: 2146
GlyphClass: 2
Flags: HMW
LayerCount: 2
Fore
SplineSet
2074 1331 m 1
 2142 1331 l 1
 1630 572 l 1
 1630 0 l 1
 1570 0 l 1
 1570 572 l 1
 1101 1271 l 1
 616 0 l 1
 528 0 l 1
 22 1331 l 1
 86 1331 l 1
 567 40 l 1
 577 40 l 1
 1061 1331 l 1
 1129 1331 l 1
 1601 640 l 1
 2074 1331 l 1
EndSplineSet
EndChar

StartChar: uniA761
Encoding: 42849 42849 1181
Width: 1685
GlyphClass: 2
Flags: HMW
LayerCount: 2
Fore
SplineSet
843 913 m 1
 498 0 l 1
 402 0 l 1
 16 990 l 1
 78 990 l 1
 446 42 l 1
 456 42 l 1
 813 990 l 1
 875 990 l 1
 1242 30 l 1
 1252 30 l 1
 1610 990 l 1
 1670 990 l 1
 1209 -226 l 2
 1141 -404 1023 -487 863 -487 c 2
 797 -487 l 1
 797 -433 l 1
 863 -433 l 2
 1001 -433 1093 -371 1149 -223 c 2
 1217 -42 l 1
 843 913 l 1
EndSplineSet
EndChar

StartChar: uniAB50
Encoding: 43856 43856 1184
Width: 1827
GlyphClass: 2
Flags: HMW
LayerCount: 2
Fore
SplineSet
1624 990 m 1
 1624 217 l 2
 1624 110 1657 53 1771 53 c 1
 1772 0 l 1
 1636 0 1564 69 1564 213 c 2
 1564 990 l 1
 1624 990 l 1
862 484 m 1
 922 484 l 1
 922 356 l 2
 922 173 1014 42 1189 42 c 0
 1418 42 1529 245 1564 484 c 1
 1591 435 l 1
 1553 195 1423 -9 1171 -9 c 0
 970 -9 862 140 862 357 c 2
 862 484 l 1
EndSplineSet
Refer: 1199 57357 N -1 0 0 -1 1115 990 2
Refer: 14 46 N 1 0 0 1 599 835 2
EndChar

StartChar: uniAB5B
Encoding: 43867 43867 1185
Width: 921
GlyphClass: 2
Flags: HMW
LayerCount: 2
Fore
SplineSet
461 1446 m 0
 651 1446 772 1324 772 1131 c 1
 725 1131 l 1
 725 1300 631 1398 461 1398 c 0
 291 1398 197 1300 197 1131 c 1
 150 1131 l 1
 150 1324 271 1446 461 1446 c 0
EndSplineSet
EndChar

StartChar: uniE000
Encoding: 57344 57344 1186
Width: 149
GlyphClass: 2
Flags: HMW
LayerCount: 2
Fore
SplineSet
0 60 m 2
 150 60 l 1
 150 0 l 1
 0 0 l 2
 -17 0 -20 15 -20 30 c 0
 -20 45 -17 60 0 60 c 2
EndSplineSet
EndChar

StartChar: uniE001
Encoding: 57345 57345 1187
Width: 349
GlyphClass: 2
Flags: HMW
LayerCount: 2
Fore
SplineSet
0 60 m 2
 350 60 l 1
 350 0 l 1
 0 0 l 2
 -17 0 -20 15 -20 30 c 0
 -20 45 -17 60 0 60 c 2
EndSplineSet
EndChar

StartChar: uniE002
Encoding: 57346 57346 1188
Width: 509
GlyphClass: 2
Flags: HMW
LayerCount: 2
Fore
SplineSet
0 60 m 2
 510 60 l 1
 510 0 l 1
 0 0 l 2
 -17 0 -20 15 -20 30 c 0
 -20 45 -17 60 0 60 c 2
EndSplineSet
EndChar

StartChar: uniE003
Encoding: 57347 57347 1189
Width: 1960
GlyphClass: 2
Flags: HMW
LayerCount: 2
Fore
SplineSet
1249 1357 m 1
 1287 1324 l 1
 1184 1195 l 1
 1159 1163 l 1
 322 101 l 1
 297 68 l 1
 194 -63 l 1
 153 -30 l 1
 257 101 l 1
 281 131 l 1
 1119 1192 l 1
 1144 1225 l 1
 1249 1357 l 1
EndSplineSet
EndChar

StartChar: uniE004
Encoding: 57348 57348 1190
Width: 1073
GlyphClass: 2
Flags: HMW
LayerCount: 2
Fore
SplineSet
166 -33 m 1
 121 1 l 1
 223 133 l 1
 237 153 l 1
 795 875 l 1
 810 895 l 1
 908 1023 l 1
 953 990 l 1
 851 857 l 1
 835 837 l 1
 282 117 l 1
 265 96 l 1
 166 -33 l 1
EndSplineSet
EndChar

StartChar: uniE005
Encoding: 57349 57349 1191
Width: 1524
GlyphClass: 2
Flags: HMW
LayerCount: 2
Fore
SplineSet
1211 -186 m 1
 1156 -216 l 1
 1001 66 l 1
 814 372 l 1
 868 404 l 1
 1042 89 l 1
 1211 -186 l 1
EndSplineSet
EndChar

StartChar: uniE006
Encoding: 57350 57350 1192
Width: 1090
GlyphClass: 2
Flags: HMW
LayerCount: 2
Fore
SplineSet
178 162 m 1
 178 222 l 1
 913 222 l 1
 913 162 l 1
 178 162 l 1
178 442 m 1
 178 503 l 1
 913 503 l 1
 913 442 l 1
 178 442 l 1
EndSplineSet
EndChar

StartChar: uniE007
Encoding: 57351 57351 1193
Width: 969
GlyphClass: 2
Flags: HMW
LayerCount: 2
Fore
SplineSet
364 1181 m 0
 328 1181 291 1184 260 1189 c 1
 271 1244 l 1
 300 1238 335 1236 368 1236 c 0
 465.855721393 1236 589 1263 589 1349 c 0
 589 1403 527.713574009 1412.86335994 459 1422 c 0
 389 1433 311 1447 311 1545 c 0
 311 1670 413 1747 530 1747 c 0
 564 1747 600 1740 635 1726 c 1
 615 1675 l 1
 588 1684 560 1689 532 1689 c 0
 444 1689 362 1643 362 1555 c 0
 362 1494 416 1485 475 1477 c 0
 554.8351664 1467.47912249 641 1454 641 1352 c 0
 641 1232 506.272373541 1181 364 1181 c 0
EndSplineSet
EndChar

StartChar: uniE008
Encoding: 57352 57352 1194
Width: 1617
GlyphClass: 2
Flags: HMW
LayerCount: 2
Fore
SplineSet
621 1214 m 0
 621 1314 543 1405 437 1405 c 0
 331 1405 254 1315 254 1214 c 0
 254 1111 334 1026 437 1026 c 0
 540 1026 621 1111 621 1214 c 0
672 1213 m 0
 672 1081 570 974 437 974 c 0
 304 974 197 1081 197 1213 c 0
 197 1340 298 1460 437 1460 c 0
 576 1460 672 1340 672 1213 c 0
EndSplineSet
EndChar

StartChar: uniE009
Encoding: 57353 57353 1195
Width: 1273
GlyphClass: 2
Flags: HMW
LayerCount: 2
Fore
SplineSet
608 1554 m 1
 668 1554 l 1
 668 -234 l 1
 608 -234 l 1
 608 1554 l 1
EndSplineSet
EndChar

StartChar: uniE00A
Encoding: 57354 57354 1196
Width: 1350
GlyphClass: 2
Flags: HMW
LayerCount: 2
Fore
SplineSet
119 496 m 1
 119 549 l 1
 648 549 l 1
 648 496 l 1
 119 496 l 1
EndSplineSet
EndChar

StartChar: uniE00B
Encoding: 57355 57355 1197
Width: 1231
GlyphClass: 2
Flags: HMW
LayerCount: 2
Fore
SplineSet
847 247 m 1
 716.809128386 66.2616395101 609.119815668 -11 402 -11 c 0
 225 -11 117 84 117 244 c 0
 117 437 270 548 538 548 c 2
 819 548 l 1
 802 494 l 1
 538 494 l 2
 307 494 177 405 177 244 c 0
 177 116 258 42 402 42 c 0
 585.486215539 42 676 101 811 273 c 1
 847 247 l 1
EndSplineSet
EndChar

StartChar: uniE00C
Encoding: 57356 57356 1198
Width: 1728
GlyphClass: 2
Flags: HMW
LayerCount: 2
Fore
SplineSet
1533 639 m 2
 1533 0 l 1
 1473 0 l 1
 1473 641 l 2
 1473 825 1390 948 1246 948 c 0
 1027 948 927 745 895 506 c 1
 865 555 l 1
 899 795 1022 999 1257 999 c 0
 1430 999 1533 856 1533 639 c 2
EndSplineSet
EndChar

StartChar: uniE00D
Encoding: 57357 57357 1199
Width: 1210
GlyphClass: 2
Flags: HMW
LayerCount: 2
Fore
SplineSet
955 584 m 2
 955 0 l 1
 894 0 l 1
 894 586 l 2
 894 830 806 947 650 947 c 0
 467 947 315 788 254 506 c 1
 215 520 l 1
 286 830 451 999 655 999 c 0
 842 999 955 856 955 584 c 2
EndSplineSet
EndChar

StartChar: uniE00E
Encoding: 57358 57358 1200
Width: 837
GlyphClass: 2
Flags: HMW
LayerCount: 2
Fore
SplineSet
707 935 m 1
 694 941 661 947 625 947 c 0
 382 947 270 725 235 486 c 1
 203 535 l 1
 241 775 376 999 637 999 c 0
 668 999 697 995 723 988 c 1
 707 935 l 1
EndSplineSet
EndChar

StartChar: uniE00F
Encoding: 57359 57359 1201
Width: 1297
GlyphClass: 2
Flags: HMW
LayerCount: 2
Fore
SplineSet
1016 496 m 0
 1016 186 848 -10 616 -10 c 0
 479 -10 340 58 243 196 c 1
 275 225 l 1
 359 107 488 42 610 42 c 0
 813 42 955 213 955 496 c 0
 955 779 813 948 610 948 c 0
 488 948 359 883 275 765 c 1
 243 794 l 1
 340 932 479 1000 616 1000 c 0
 848 1000 1016 806 1016 496 c 0
EndSplineSet
EndChar

StartChar: uniE010
Encoding: 57360 57360 1202
Width: 1625
GlyphClass: 2
Flags: HMW
LayerCount: 2
Fore
SplineSet
1187 -147 m 1
 1133 -176 l 1
 1007 62 l 1
 1044 83 l 1
 1187 -147 l 1
EndSplineSet
EndChar

StartChar: uniE011
Encoding: 57361 57361 1203
Width: 1022
GlyphClass: 2
Flags: HMW
LayerCount: 2
Fore
SplineSet
527 1331 m 1
 587 1331 l 1
 587 970 l 1
 527 970 l 1
 527 1331 l 1
527 4 m 1
 587 4 l 1
 587 -456 l 1
 527 -456 l 1
 527 4 l 1
EndSplineSet
EndChar

StartChar: uniE012
Encoding: 57362 57362 1204
Width: 1517
GlyphClass: 2
Flags: HMW
LayerCount: 2
Fore
SplineSet
1143 1174 m 1
 1284 1354 l 1
 1319 1324 l 1
 1176 1140 l 1
 1143 1174 l 1
395 142 m 1
 235 -64 l 1
 197 -35 l 1
 362 176 l 1
 395 142 l 1
EndSplineSet
EndChar

StartChar: uniE013
Encoding: 57363 57363 1205
Width: 1007
GlyphClass: 2
Flags: HMW
LayerCount: 2
Fore
SplineSet
805 886 m 1
 906 1018 l 1
 948 988 l 1
 841 849 l 1
 805 886 l 1
268 102 m 1
 165 -31 l 1
 123 1 l 1
 229 138 l 1
 268 102 l 1
EndSplineSet
EndChar

StartChar: uniE014
Encoding: 57364 57364 1206
Width: 1080
GlyphClass: 2
Flags: HMW
LayerCount: 2
Fore
SplineSet
174 303 m 1
 174 359 l 1
 908 359 l 1
 908 303 l 1
 174 303 l 1
EndSplineSet
EndChar

StartChar: uniE015
Encoding: 57365 57365 1207
Width: 1403
GlyphClass: 2
Flags: HMW
LayerCount: 2
Fore
SplineSet
1328 1028 m 1
 1328 969 l 1
 76 969 l 1
 76 1028 l 1
 1328 1028 l 1
EndSplineSet
EndChar

StartChar: uniE016
Encoding: 57366 57366 1208
Width: 408
GlyphClass: 2
Flags: HMW
LayerCount: 2
Fore
SplineSet
96 938 m 1
 96 988 l 1
 314 988 l 1
 314 938 l 1
 96 938 l 1
EndSplineSet
EndChar

StartChar: uniE017
Encoding: 57367 57367 1209
Width: 511
GlyphClass: 2
Flags: HMW
LayerCount: 2
Fore
SplineSet
458 844 m 1
 486 801 l 1
 53 548 l 1
 26 591 l 1
 458 844 l 1
EndSplineSet
EndChar

StartChar: uniE018
Encoding: 57368 57368 1210
Width: 1142
GlyphClass: 2
Flags: HMW
LayerCount: 2
Fore
SplineSet
223 85 m 1
 155 85 l 1
 920 1066 l 1
 988 1066 l 1
 223 85 l 1
EndSplineSet
EndChar

StartChar: uniE019
Encoding: 57369 57369 1211
Width: 1411
GlyphClass: 2
Flags: HMW
LayerCount: 2
Fore
SplineSet
502 -86 m 1
 588 -0 l 1
 674 -86 l 1
 588 -172 l 1
 502 -86 l 1
832 -87 m 1
 918 -1 l 1
 1004 -87 l 1
 918 -173 l 1
 832 -87 l 1
666 -335 m 1
 753 -249 l 1
 838 -335 l 1
 753 -421 l 1
 666 -335 l 1
EndSplineSet
EndChar

StartChar: cedilla.rotated
Encoding: 57371 57371 1212
Width: 521
GlyphClass: 2
Flags: HMW
LayerCount: 2
Fore
SplineSet
206 -220 m 1
 123 -220 l 1
 252 193 l 1
 297 177 l 1
 206 -220 l 1
EndSplineSet
EndChar

StartChar: uniE01D
Encoding: 57373 57373 1214
Width: 457
GlyphClass: 2
Flags: HMW
LayerCount: 2
Fore
SplineSet
228 258 m 1
 358 129 l 1
 228 0 l 1
 100 129 l 1
 228 258 l 1
EndSplineSet
EndChar

StartChar: uniE020
Encoding: 57376 57376 1217
Width: 916
GlyphClass: 2
Flags: HMW
LayerCount: 2
Fore
SplineSet
160 392 m 0
 160 574 304 704 461 704 c 0
 553 704 627 671 703 600 c 1
 669 567 l 1
 604 627 541 654 462 654 c 0
 328 654 212 543 212 395 c 0
 212 256 328 179 493 179 c 0
 576 179 660 197 768 236 c 1
 784 190 l 1
 146 -11 l 1
 133 37 l 1
 464 130 l 1
 464 140 l 1
 288 140 160 237 160 392 c 0
EndSplineSet
EndChar

StartChar: uniE021
Encoding: 57377 57377 1218
Width: 483
GlyphClass: 2
Flags: HMW
LayerCount: 2
Fore
SplineSet
494 1534 m 1
 535 1515 l 1
 490 1401 448 1364 369 1364 c 0
 329 1364 293 1380 224 1420 c 0
 159 1458 140 1463 113 1463 c 0
 68 1463 41 1436 -14 1329 c 1
 -50 1351 l 1
 5 1469 52 1517 114 1517 c 0
 146 1517 169 1505 244 1465 c 0
 327 1421 347 1416 378 1416 c 0
 434 1416 456 1439 494 1534 c 1
272 1108 m 1
 272 0 l 1
 212 0 l 1
 212 1108 l 1
 272 1108 l 1
EndSplineSet
EndChar

StartChar: uniE022
Encoding: 57378 57378 1219
Width: 483
GlyphClass: 2
Flags: HMW
LayerCount: 2
Fore
SplineSet
272 0 m 1
 212 0 l 1
 212 1258 l 1
 272 1258 l 1
 272 0 l 1
EndSplineSet
EndChar

StartChar: uniE023
Encoding: 57379 57379 1220
Width: 1308
GlyphClass: 2
Flags: HMW
LayerCount: 2
Fore
SplineSet
437 758 m 0
 497 758 574 738 744 662 c 0
 904 590 1010 550 1132 517 c 1
 1130 427 l 1
 723 371 186 154 186 -230 c 0
 186 -486 446 -602 737 -602 c 0
 882 -602 1034 -574 1165 -519 c 1
 1195 -575 l 1
 1049 -635 887 -666 734 -666 c 0
 410 -666 126 -527 126 -234 c 0
 126 173 646 400 1070 470 c 1
 1070 480 l 1
 970 507 864 547 718 609 c 0
 563 675 487 699 437 699 c 0
 345 699 287 641 227 490 c 2
 221 475 l 1
 171 493 l 1
 177 509 l 2
 244 689 320 758 437 758 c 0
EndSplineSet
EndChar

StartChar: uniE024
Encoding: 57380 57380 1221
Width: 1003
GlyphClass: 2
Flags: HMW
LayerCount: 2
Fore
SplineSet
871 331 m 0
 871 67 613 -10 382 -10 c 0
 301 -10 219 0 133 23 c 1
 147 81 l 1
 233 58 309 50 385 50 c 0
 649 50 811 143 811 328 c 0
 811 486 701 653 467 866 c 1
 509 915 l 1
 745 701 871 508 871 331 c 0
EndSplineSet
EndChar

StartChar: uniE025
Encoding: 57381 57381 1222
Width: 555
GlyphClass: 2
Flags: HMW
LayerCount: 2
Fore
SplineSet
240 522 m 1
 296 544 l 1
 373 329 412 160 412 29 c 0
 412 -222 246 -392 -139 -533 c 1
 -161 -477 l 1
 204 -342 352 -198 352 22 c 0
 352 144 313 317 240 522 c 1
EndSplineSet
EndChar

StartChar: uniE026
Encoding: 57382 57382 1223
Width: 2484
GlyphClass: 2
Flags: HMW
LayerCount: 2
Fore
SplineSet
1532 0 m 0
 1433.33789978 0 1366.59826101 37.4727302376 1319 101 c 1
 1313 96 l 1
 1370 -318 1106 -491 727 -491 c 0
 361 -491 136 -339 136 41 c 0
 136 137 151 261 191 468 c 1
 250 457 l 1
 210 251 196 131 196 41 c 0
 196 -307 387 -431 726 -431 c 0
 1060 -431 1271 -322 1271 -9 c 0
 1271 119 1232 263 1127 514 c 1
 1183 538 l 1
 1294 235 l 2
 1334 125 1410 60 1544 60 c 0
 1690 60 1763 143 1782 342 c 2
 1797 502 l 1
 1859 494 l 1
 1846 351 l 2
 1827 150 1917 60 2077 60 c 0
 2219 60 2291 139 2291 310 c 0
 2291 381 2278 500 2264 566 c 1
 2325 581 l 1
 2340 507 2352 386 2352 309 c 0
 2352 98 2256 0 2076 0 c 0
 1930 0 1841 73 1815 200 c 1
 1805 200 l 1
 1771 67 1670 0 1532 0 c 0
EndSplineSet
EndChar

StartChar: uniE027
Encoding: 57383 57383 1224
Width: 2387
GlyphClass: 2
Flags: HMW
LayerCount: 2
Fore
SplineSet
1937 600 m 0
 1758 600 1559 435 1340 107 c 1
 1418 75 1524 60 1673 60 c 0
 2025 60 2193 155 2193 350 c 0
 2193 500 2091 600 1937 600 c 0
1937 661 m 0
 2128 661 2255 536 2255 350 c 0
 2255 116 2062 0 1672 0 c 0
 1515 0 1383 21 1289 61 c 1
 1303 -298 1106 -491 707 -491 c 0
 327 -491 136 -314 136 41 c 0
 136 140 152 268 191 468 c 1
 250 457 l 1
 213 263 196 136 196 41 c 0
 196 -284 355 -431 706 -431 c 0
 1061 -431 1231 -282 1231 28 c 0
 1231 146 1195 280 1096 515 c 1
 1153 539 l 1
 1230 356 1268 236 1282 130 c 1
 1513 477 1740 661 1937 661 c 0
EndSplineSet
EndChar

StartChar: uniE028
Encoding: 57384 57384 1225
Width: 1603
GlyphClass: 2
Flags: HMW
LayerCount: 2
Fore
SplineSet
518 60 m 1
 889 60 l 2
 1141 60 1410 98 1410 349 c 0
 1410 495 1313 600 1154 600 c 0
 1005 600 794 497 518 60 c 1
449 60 m 1
 476 103 502 143 528 183 c 1
 528 1258 l 1
 587 1258 l 1
 587 520 l 2
 587 424 586 346 568 256 c 1
 577 250 l 1
 776 522 972 661 1154 661 c 0
 1359 661 1471 524 1471 350 c 0
 1471 167 1359 0 888 0 c 2
 133 0 l 17
 133 60 l 1
 449 60 l 1
EndSplineSet
EndChar

StartChar: uniE029
Encoding: 57385 57385 1226
Width: 1169
GlyphClass: 2
Flags: HMW
LayerCount: 2
Fore
SplineSet
951 958 m 1
 912 913 l 1
 838 994 754 1032 656 1032 c 0
 476.657223796 1032 333 887.895348837 333 708 c 0
 333 527.020134228 487.556962025 430 777 430 c 0
 843 430 930 435 1016 443 c 1
 1013 379 l 1
 520 368.288256228 192 124.060498221 192 -223 c 0
 192 -476 397 -620 755 -620 c 0
 919 -620 1075 -589 1190 -536 c 1
 1214 -596 l 1
 1080 -653 918 -684 754 -684 c 0
 368 -684 133 -512 133 -230 c 0
 133 59.0812720848 341 305.335689046 656 376 c 1
 657 386 l 1
 416.859223301 402.020172911 275 522.642651297 275 713 c 0
 275 922.95 441.633663366 1093 649 1093 c 0
 765 1093 873 1044 951 958 c 1
EndSplineSet
EndChar

StartChar: uniE02A
Encoding: 57386 57386 1227
Width: 902
GlyphClass: 2
Flags: HMW
LayerCount: 2
Back
SplineSet
0 60 m 1
 2950 60 l 1
 2950 0 l 1
 0 0 l 1
 -17 0 -20 13 -20 30 c 0
 -20 47 -17 60 0 60 c 1
EndSplineSet
Fore
SplineSet
0 60 m 1
 902 60 l 1
 902 0 l 1
 0 0 l 1
 -17 0 -20 13 -20 30 c 0
 -20 47 -17 60 0 60 c 1
EndSplineSet
Colour: ffff
EndChar

StartChar: uniE02B
Encoding: 57387 57387 1228
Width: 1631
GlyphClass: 2
Flags: HMW
LayerCount: 2
Fore
SplineSet
790 60 m 0
 1225 60 1382 128 1382 409 c 2
 1382 1259 l 1
 1442 1259 l 1
 1442 409 l 2
 1442 91 1254 0 774 0 c 0
 305 0 133 85 133 345 c 0
 133 415 145 512 165 593 c 1
 218 580 l 1
 199 506 185 405 185 341 c 0
 185 126 344 60 790 60 c 0
EndSplineSet
EndChar

StartChar: uniE02C
Encoding: 57388 57388 1229
Width: 1328
GlyphClass: 2
Flags: HMW
LayerCount: 2
Fore
SplineSet
630 -454 m 0
 937 -454 1079 -297 1079 38 c 2
 1079 1258 l 1
 1139 1258 l 1
 1139 38 l 2
 1139 -344 966 -515 615 -515 c 0
 314 -515 133 -351 133 -67 c 0
 133 59 160 201 219 350 c 1
 274 326 l 1
 219 182 193 42 193 -67 c 0
 193 -321 344 -454 630 -454 c 0
EndSplineSet
EndChar

StartChar: uniE02D
Encoding: 57389 57389 1230
Width: 1254
GlyphClass: 2
Flags: HMW
LayerCount: 2
Fore
SplineSet
799 617 m 0
 580 617 515 336 472 137 c 1
 510 128 559 115 598 104 c 0
 711 73 805 49 889 49 c 0
 1015 49 1063 127 1063 275 c 0
 1063 452 987 617 799 617 c 0
799 676 m 0
 1028 676 1122 483 1122 261 c 0
 1122 97 1040 -11 889 -11 c 0
 795 -11 689 14 584 44 c 0
 489 72 403 90 343 90 c 0
 235 90 194 31 194 -111 c 2
 194 -733 l 1
 133 -733 l 1
 133 -110 l 2
 133 78 221 183 412 148 c 1
 457 379 543 676 799 676 c 0
EndSplineSet
EndChar

StartChar: uniE02E
Encoding: 57390 57390 1231
Width: 867
GlyphClass: 2
Flags: HMW
LayerCount: 2
Fore
SplineSet
434 50 m 0
 591 50 670 138 670 275 c 0
 670 423 571 591 434 718 c 1
 299 592 198 424 198 275 c 0
 198 138 277 50 434 50 c 0
434 -11 m 0
 249 -11 133 107 133 276 c 0
 133 453 253 631 392 761 c 1
 356 796 327 822 291 852 c 1
 329 898 l 1
 605 668 735 471 735 276 c 0
 735 107 619 -11 434 -11 c 0
EndSplineSet
EndChar

StartChar: uniE02F
Encoding: 57391 57391 1232
Width: 953
GlyphClass: 2
Flags: HMW
LayerCount: 2
Fore
SplineSet
765 21 m 1
 760 27 l 1
 680 6 585 -13 474 -13 c 0
 282 -13 153 59 153 251 c 0
 153 453 254 666 467 666 c 0
 741 666 821 286 821 20 c 0
 821 -252 551 -428 119 -527 c 1
 104 -467 l 1
 537 -370 761 -205 765 21 c 1
759 88 m 1
 748 294 682 606 467 606 c 0
 291 606 213 415 213 251 c 0
 213 94 313 49 474 49 c 0
 584 49 681 68 759 88 c 1
EndSplineSet
EndChar

StartChar: uniE030
Encoding: 57392 57392 1233
Width: 0
GlyphClass: 2
Flags: HMW
LayerCount: 2
Fore
SplineSet
83 1579 m 0
 21 1579 -38 1518 -38 1450 c 0
 -38 1373 55 1342 118 1330 c 1
 152 1371 169 1411 169 1461 c 0
 169 1523 142 1579 83 1579 c 0
87 1628 m 0
 168 1628 221 1560 221 1464 c 0
 221 1290 52 1187 -180 1117 c 1
 -196 1177 -247 1265 -325 1323 c 1
 -293 1370 l 1
 -226 1323 -179 1257 -146 1182 c 1
 -62 1211 24 1250 81 1290 c 1
 8 1309 -87 1352 -87 1448 c 0
 -87 1530 -12 1628 87 1628 c 0
EndSplineSet
EndChar

StartChar: uniE031
Encoding: 57393 57393 1234
Width: 0
GlyphClass: 2
Flags: HMW
LayerCount: 2
Fore
SplineSet
218 1318 m 1
 234 1272 l 1
 -218 1129 l 1
 -234 1177 l 1
 218 1318 l 1
EndSplineSet
EndChar

StartChar: uniE032
Encoding: 57394 57394 1235
Width: 0
GlyphClass: 2
Flags: HMW
LayerCount: 2
Fore
SplineSet
83 1579 m 0
 21 1579 -38 1518 -38 1450 c 0
 -38 1373 54 1342 118 1330 c 1
 152 1371 169 1412 169 1461 c 0
 169 1523 142 1579 83 1579 c 0
87 1628 m 0
 168 1628 221 1560 221 1464 c 0
 221 1283 40 1181 -204 1111 c 1
 -220 1158 l 1
 -120 1185 5 1237 81 1290 c 1
 8 1310 -87 1351 -87 1448 c 0
 -87 1530 -12 1628 87 1628 c 0
EndSplineSet
EndChar

StartChar: uniE033
Encoding: 57395 57395 1236
Width: 0
GlyphClass: 2
Flags: HMW
LayerCount: 2
Fore
SplineSet
-5 1235 m 1
 -11 1167 -50 1128 -119 1128 c 0
 -193 1128 -232 1170 -232 1249 c 0
 -232 1292 -222 1343 -201 1403 c 1
 -159 1389 l 1
 -176 1333 -186 1289 -186 1256 c 0
 -186 1202 -162 1179 -111 1179 c 0
 -45 1179 -24 1217 -24 1340 c 2
 -24 1349 l 1
 23 1349 l 1
 23 1340 l 2
 23 1217 44 1179 110 1179 c 0
 161 1179 184 1202 184 1256 c 0
 184 1289 176 1333 159 1389 c 1
 200 1403 l 1
 221 1343 232 1292 232 1249 c 0
 232 1170 193 1128 119 1128 c 0
 50 1128 11 1167 5 1235 c 1
 -5 1235 l 1
EndSplineSet
EndChar

StartChar: uniE034
Encoding: 57396 57396 1237
Width: 0
GlyphClass: 2
Flags: MW
LayerCount: 2
Fore
SplineSet
0 1388 m 0
 -67 1388 -104 1351 -104 1284 c 0
 -104 1217 -67 1177 0 1177 c 0
 65 1177 104 1219 104 1284 c 0
 104 1349 67 1388 0 1388 c 0
0 1438 m 0
 92 1438 154 1378 154 1284 c 0
 154 1190 94 1129 0 1129 c 0
 -94 1129 -154 1190 -154 1284 c 0
 -154 1377 -94 1438 0 1438 c 0
EndSplineSet
EndChar

StartChar: uniE035
Encoding: 57397 57397 1238
Width: 0
GlyphClass: 2
Flags: HMW
LayerCount: 2
Fore
SplineSet
-250 1148 m 1
 -198 1219 -149 1254 -94 1254 c 0
 -60 1254 -31 1243 17 1210 c 0
 57 1184 78 1175 99 1175 c 0
 137 1175 178 1207 215 1263 c 1
 256 1234 l 1
 209 1161 156 1123 100 1123 c 0
 68 1123 39 1135 -6 1165 c 0
 -47 1193 -69 1203 -92 1203 c 0
 -130 1203 -168 1175 -209 1118 c 1
 -250 1148 l 1
EndSplineSet
EndChar

StartChar: uniE036
Encoding: 57398 57398 1239
Width: 0
GlyphClass: 2
Flags: MW
LayerCount: 2
Fore
SplineSet
147 1539 m 1
 128 1496 l 1
 102 1508 74 1515 43 1515 c 0
 -42 1515 -101 1462 -101 1384 c 0
 -101 1313 -51 1272 27 1272 c 0
 55 1272 85 1277 120 1288 c 2
 218 1318 l 1
 233 1272 l 1
 -218 1129 l 1
 -233 1178 l 1
 -41 1233 l 1
 -41 1243 l 1
 -105 1264 -147 1319 -147 1385 c 0
 -147 1486 -63 1566 47 1566 c 0
 83 1566 116 1555 147 1539 c 1
EndSplineSet
EndChar

StartChar: uniE037
Encoding: 57399 57399 1240
Width: 0
GlyphClass: 2
Flags: HMW
LayerCount: 2
Fore
SplineSet
18 1129 m 1
 -18 1129 l 1
 -232 1391 l 1
 -194 1424 l 1
 0 1185 l 1
 194 1424 l 1
 232 1391 l 1
 18 1129 l 1
EndSplineSet
EndChar

StartChar: uniE038
Encoding: 57400 57400 1241
Width: 1747
GlyphClass: 2
Flags: HMW
LayerCount: 2
Fore
SplineSet
1566 692 m 1
 1596 594 1615 500 1615 410 c 0
 1615 91 1406 0 873 0 c 0
 346 0 133 92 133 395 c 0
 133 478 150 576 180 692 c 1
 239 673 l 1
 210 566 193 475 193 399 c 0
 193 146 373 60 873 60 c 0
 1385 60 1554 152 1554 407 c 0
 1554 489 1539 577 1509 673 c 1
 1566 692 l 1
EndSplineSet
EndChar

StartChar: uniE039
Encoding: 57401 57401 1242
Width: 1502
GlyphClass: 2
Flags: HMW
LayerCount: 2
Fore
SplineSet
1310 154 m 1
 1299 360 1234 672 1018 672 c 0
 842 672 763 481 763 317 c 0
 763 160 863 115 1024 115 c 0
 1135 115 1231 133 1310 154 c 1
1018 732 m 0
 1288 732 1372 371 1372 105 c 0
 1372 -284 1181 -493 737 -493 c 0
 336 -493 133 -324 133 8 c 0
 133 101 149 240 180 418 c 1
 239 405 l 1
 207 221 192 90 192 2 c 0
 192 -303 376 -433 741 -433 c 0
 1131 -433 1313 -254 1317 87 c 1
 1311 93 l 1
 1232 71 1132 53 1024 53 c 0
 832 53 704 125 704 317 c 0
 704 520 806 732 1018 732 c 0
EndSplineSet
EndChar

StartChar: uniE03A
Encoding: 57402 57402 1243
Width: 0
GlyphClass: 2
Flags: HMW
LayerCount: 2
Fore
SplineSet
-26 1434 m 1
 26 1434 l 1
 26 1109 l 1
 -26 1109 l 1
 -26 1434 l 1
EndSplineSet
EndChar

StartChar: uniE03B
Encoding: 57403 57403 1244
Width: 1791
GlyphClass: 2
Flags: HMW
LayerCount: 2
Fore
SplineSet
1588 411 m 1
 1483 385 1377 372 1295 372 c 0
 1091 372 991 454 991 623 c 0
 991 866 1120 1041 1298 1041 c 0
 1513 1041 1650 795 1650 406 c 0
 1650 90 1474 0 858 0 c 0
 320 0 133 90 133 377 c 0
 133 458 148 558 179 694 c 1
 237 680 l 1
 207 548 193 456 193 383 c 0
 193 133 360 60 861 60 c 0
 1451 60 1588 127 1588 411 c 1
1587 474 m 1
 1571 792 1463 981 1297 981 c 0
 1156 981 1050 830 1050 625 c 0
 1050 494 1128 433 1293 433 c 0
 1371 433 1476 447 1587 474 c 1
EndSplineSet
EndChar

StartChar: uniE03C
Encoding: 57404 57404 1245
Width: 1639
GlyphClass: 2
Flags: HMW
LayerCount: 2
Fore
SplineSet
175 697 m 1
 233 680 l 1
 204 560 190 471 190 398 c 0
 190 150 348 60 782 60 c 0
 1194 60 1414 153 1414 327 c 0
 1414 469 1232 641 890 876 c 1
 898 965 l 1
 1092 1046 1367 1138 1656 1215 c 1
 1670 1154 l 1
 1348 1072 1109 994 940 922 c 1
 939 912 l 1
 1313 636 1475 482 1475 330 c 0
 1475 119 1221 0 772 0 c 0
 310 0 133 110 133 398 c 0
 133 476 146 571 175 697 c 1
EndSplineSet
EndChar

StartChar: uniE03D
Encoding: 57405 57405 1246
Width: 1483
GlyphClass: 2
Flags: HMW
LayerCount: 2
Fore
SplineSet
1154 555 m 1
 1211 579 l 1
 1309 349 1348 202 1348 67 c 0
 1348 -307 1099 -452 736 -452 c 0
 365 -452 136 -299 136 81 c 0
 136 177 151 301 191 508 c 1
 250 497 l 1
 210 291 196 171 196 81 c 0
 196 -268 390 -392 735 -392 c 0
 1073 -392 1290 -273 1290 68 c 0
 1290 190 1250 327 1154 555 c 1
EndSplineSet
EndChar

StartChar: uniE03E
Encoding: 57406 57406 1247
Width: 1461
GlyphClass: 2
Flags: HMW
LayerCount: 2
Fore
SplineSet
1292 625 m 1
 1266 571 l 1
 1196 608 1126 625 1060 625 c 0
 868 625 716 480 716 272 c 0
 716 106 866 94 1018 84 c 0
 1174 74 1331 62 1331 -116 c 0
 1331 -318 1052 -451 681 -451 c 0
 340 -451 136 -305.219512195 136 -21 c 0
 136 96.9805825243 147 197.834951456 178 371 c 1
 238 361 l 1
 206 184.14004914 195 88.1031941032 195 -26 c 0
 195 -275.68115942 367 -391 676 -391 c 0
 1016 -391 1271 -282 1271 -115 c 0
 1271 12 1144 20 1006 28 c 0
 839 38 656 51 656 272 c 0
 656 512 836 685 1060 685 c 0
 1134 685 1213 666 1292 625 c 1
EndSplineSet
EndChar

StartChar: uniE03F
Encoding: 57407 57407 1248
Width: 1972
GlyphClass: 2
Flags: HMW
LayerCount: 2
Back
SplineSet
1453 369 m 1
 1488 118 1269 0 772 0 c 0
 311 0 137 109 137 398 c 0
 137 479 151 576 179 697 c 1
 237 680 l 1
 208 560 194 471 194 398 c 0
 194 150 350 60 782 60 c 0
 1212 60 1414 141 1414 313 c 0
 1414 447 1236 638 890 876 c 1
 898 965 l 1
 1099 1049 1377 1141 1656 1215 c 1
 1670 1154 l 1
 1364 1076 1118 998 940 922 c 1
 939 912 l 1
 1287 655 1408 539 1512 362 c 0
 1657 116 1742 60 1971 60 c 2
 4020 60 l 1
 4020 0 l 1
 1971 0 l 2
 1694 0 1563 96 1463 369 c 1
 1453 369 l 1
EndSplineSet
Fore
SplineSet
1453 369 m 1
 1488 118 1269 0 772 0 c 0
 311 0 137 109 137 398 c 0
 137 479 151 576 179 697 c 1
 237 680 l 1
 208 560 194 471 194 398 c 0
 194 150 350 60 782 60 c 0
 1212 60 1414 141 1414 313 c 0
 1414 447 1236 638 890 876 c 1
 898 965 l 1
 1099 1049 1377 1141 1656 1215 c 1
 1670 1154 l 1
 1364 1076 1118 998 940 922 c 1
 939 912 l 1
 1287 655 1408 539 1512 362 c 0
 1657 116 1742 60 1971 60 c 2
 1972 60 l 1
 1972 0 l 1
 1971 0 l 2
 1694 0 1563 96 1463 369 c 1
 1453 369 l 1
EndSplineSet
Colour: ffff
EndChar

StartChar: uniE040
Encoding: 57408 57408 1249
Width: 1627
GlyphClass: 2
Flags: HMW
LayerCount: 2
Back
SplineSet
191 468 m 1
 250 457 l 1
 210 251 196 131 196 41 c 0
 196 -301 390 -423 735 -423 c 0
 1100 -423 1293 -278 1293 -3 c 0
 1293 109 1245 262 1145 515 c 1
 1196 539 l 1
 1251 401 l 2
 1356 137 1418 60 1625 60 c 2
 3675 60 l 1
 3675 0 l 1
 1626 0 l 2
 1496 0 1388 56 1327 155 c 1
 1317 151 l 1
 1409 -291 1165 -483 736 -483 c 0
 365 -483 136 -333 136 41 c 0
 136 137 151 261 191 468 c 1
EndSplineSet
Fore
SplineSet
191 468 m 1
 250 457 l 1
 210 251 196 131 196 41 c 0
 196 -301 390 -423 735 -423 c 0
 1100 -423 1293 -278 1293 -3 c 0
 1293 109 1245 262 1145 515 c 1
 1196 539 l 1
 1251 401 l 2
 1356 137 1418 60 1626 60 c 2
 1627 60 l 1
 1627 0 l 1
 1626 0 l 2
 1496 0 1388 56 1327 155 c 1
 1317 151 l 1
 1409 -291 1165 -483 736 -483 c 0
 365 -483 136 -333 136 41 c 0
 136 137 151 261 191 468 c 1
EndSplineSet
Colour: ffff
EndChar

StartChar: uniE041
Encoding: 57409 57409 1250
Width: 569
GlyphClass: 2
Flags: MW
LayerCount: 2
Fore
SplineSet
380 699 m 1
 413 571 437 453 437 354 c 0
 437 131 334 0 61 0 c 2
 0 0 l 2
 -17 0 -20 13 -20 30 c 0
 -20 47 -17 60 0 60 c 2
 61 60 l 2
 297 60 382 160 382 342 c 0
 382 437 356 553 324 684 c 1
 380 699 l 1
EndSplineSet
EndChar

StartChar: uniE042
Encoding: 57410 57410 1251
Width: 854
GlyphClass: 2
Flags: MW
LayerCount: 2
Back
SplineSet
459 428 m 2
 459 207 512 60 758 60 c 2
 2902 60 l 1
 2902 0 l 1
 754 0 l 2
 584 0 460 85 431 246 c 1
 421 246 l 1
 391 83 239 0 60 0 c 2
 0 0 l 2
 -17 0 -20 13 -20 30 c 0
 -20 47 -17 60 0 60 c 2
 60 60 l 2
 340 60 397 209 397 428 c 2
 397 536 l 1
 459 536 l 1
 459 428 l 2
EndSplineSet
Fore
SplineSet
459 428 m 2
 459 207 512 60 758 60 c 2
 854 60 l 1
 854 0 l 1
 754 0 l 2
 584 0 461 85 431 246 c 1
 421 246 l 1
 392 83 238 0 60 0 c 2
 0 0 l 2
 -17 0 -20 13 -20 30 c 0
 -20 47 -17 60 0 60 c 2
 60 60 l 2
 340 60 397 209 397 428 c 2
 397 536 l 1
 459 536 l 1
 459 428 l 2
EndSplineSet
Colour: ffff
EndChar

StartChar: uniE043
Encoding: 57411 57411 1252
Width: 1404
GlyphClass: 2
Flags: HMW
LayerCount: 2
Back
SplineSet
972 -10 m 1
 1207 -74 1304 -132 1304 -250 c 0
 1304 -429 1054 -554 697 -554 c 0
 309 -554 133 -406 133 -79 c 0
 133 13 150 172 180 374 c 1
 239 362 l 1
 209 167 193 10 193 -79 c 0
 193 -374 338 -494 693 -494 c 0
 1019 -494 1241 -395 1241 -249 c 0
 1241 -145 1143 -97 741 -1 c 1
 748 60 l 1
 3452 60 l 1
 3452 0 l 1
 972 0 l 1
 972 -10 l 1
EndSplineSet
Fore
SplineSet
972 -10 m 1
 1207 -74 1304 -132 1304 -250 c 0
 1304 -429 1054 -554 697 -554 c 0
 309 -554 133 -406 133 -79 c 0
 133 13 150 172 180 374 c 1
 239 362 l 1
 209 167 193 10 193 -79 c 0
 193 -374 338 -494 693 -494 c 0
 1019 -494 1241 -395 1241 -249 c 0
 1241 -145 1143 -97 741 -1 c 1
 748 60 l 1
 1404 60 l 1
 1404 0 l 1
 972 0 l 1
 972 -10 l 1
EndSplineSet
Colour: ffff
EndChar

StartChar: uniE044
Encoding: 57412 57412 1253
Width: 577
GlyphClass: 2
Flags: HMW
LayerCount: 2
Back
SplineSet
190 1258 m 1
 251 1258 l 1
 251 382 l 2
 251 156 328 60 576 60 c 2
 2625 60 l 1
 2625 0 l 1
 576 0 l 2
 313 0 190 125 190 382 c 2
 190 1258 l 1
EndSplineSet
Fore
SplineSet
190 1258 m 1
 251 1258 l 1
 251 382 l 2
 251 156 328 60 576 60 c 2
 577 60 l 1
 577 0 l 1
 576 0 l 2
 313 0 190 125 190 382 c 2
 190 1258 l 1
EndSplineSet
Colour: ffff
EndChar

StartChar: uniE045
Encoding: 57413 57413 1254
Width: 1306
GlyphClass: 2
Flags: HMW
LayerCount: 2
Back
SplineSet
437 718 m 0
 503 718 587 692 744 622 c 0
 912 547 1016 508 1132 477 c 1
 1130 387 l 1
 1023 373 947 359 885 343 c 1
 885 333 l 1
 961 140 1069 60 1252 60 c 2
 3354 60 l 1
 3354 0 l 1
 1246 0 l 2
 1049 0 919 102 832 326 c 1
 438 206 186 -27 186 -270 c 0
 186 -496 402 -642 737 -642 c 0
 887 -642 1038 -613 1165 -559 c 1
 1195 -615 l 1
 1051 -674 889 -706 734 -706 c 0
 366 -706 126 -536 126 -274 c 0
 126 53 507 337 1070 430 c 1
 1070 440 l 1
 979 464 879 501 718 569 c 0
 563 635 487 659 437 659 c 0
 345 659 287 601 227 450 c 2
 221 435 l 1
 171 453 l 1
 177 469 l 2
 243 646 318 718 437 718 c 0
EndSplineSet
Fore
SplineSet
437 718 m 0
 503 718 587 692 744 622 c 0
 912 547 1016 508 1132 477 c 1
 1130 387 l 1
 1023 373 947 359 885 343 c 1
 885 333 l 1
 961 140 1069 60 1252 60 c 2
 1306 60 l 1
 1306 0 l 1
 1246 0 l 2
 1049 0 919 102 832 326 c 1
 438 206 186 -27 186 -270 c 0
 186 -496 402 -642 737 -642 c 0
 887 -642 1038 -613 1165 -559 c 1
 1195 -615 l 1
 1051 -674 889 -706 734 -706 c 0
 366 -706 126 -536 126 -274 c 0
 126 53 507 337 1070 430 c 1
 1070 440 l 1
 979 464 879 501 718 569 c 0
 563 635 487 659 437 659 c 0
 345 659 287 601 227 450 c 2
 221 435 l 1
 171 453 l 1
 177 469 l 2
 243 646 318 718 437 718 c 0
EndSplineSet
Colour: ffff
EndChar

StartChar: uniE046
Encoding: 57414 57414 1255
Width: 1205
GlyphClass: 2
Flags: HMW
LayerCount: 2
Fore
SplineSet
380 723 m 0
 440 723 514 699 686 626 c 0
 846.137931034 553.962406015 950.843501326 516.330827068 1073 483 c 1
 1073 413 l 1
 593 151 l 2
 395.701657459 42 244.537753223 0 60 0 c 2
 0 0 l 2
 -14 0 -20 9 -20 30 c 0
 -20 51 -14 60 0 60 c 2
 64 60 l 2
 235.588693957 60 372.859649123 99 567 202 c 2
 1006 436 l 1
 1006 446 l 1
 908.172619048 472.051282051 803.136904762 510.042735043 660 573 c 0
 505 639 430 663 380 663 c 0
 288 663 230 605 170 454 c 2
 164 439 l 1
 113 458 l 1
 119 473 l 2
 189 651 263 723 380 723 c 0
EndSplineSet
EndChar

StartChar: uniE047
Encoding: 57415 57415 1256
Width: 1252
GlyphClass: 2
Flags: HMW
LayerCount: 2
Back
SplineSet
380 723 m 0
 440 723 515.239172823 702.816273679 686 626 c 0
 846.137931034 553.962406015 950.843501326 516.330827068 1073 483 c 1
 1073 413 l 1
 809 269 l 1
 809 259 l 1
 917 106.765 1017 60 1160 60 c 2
 3300 60 l 1
 3300 0 l 1
 1155 0 l 2
 1007 0 875.912060302 57.1965811966 754 239 c 1
 593 151 l 2
 395.322267388 42.9525436655 244.537753223 -2.25986105117e-14 60 0 c 2
 0 0 l 2
 -14 0 -20 9 -20 30 c 0
 -20 51 -14 60 0 60 c 2
 64 60 l 2
 235.588693957 60 373.059954818 98.6242128189 567 202 c 2
 1006 436 l 1
 1006 446 l 1
 908.172619048 472.051282051 803.870974844 511.738810711 660 573 c 0
 505 639 430 663 380 663 c 0
 288 663 230.344827586 604.862068966 170 454 c 2
 164 439 l 1
 113 458 l 1
 119 473 l 2
 190.034482759 650.586206897 263 723 380 723 c 0
EndSplineSet
Fore
SplineSet
380 723 m 0
 440 723 515.239172823 702.816273679 686 626 c 0
 846.137931034 553.962406015 950.843501326 516.330827068 1073 483 c 1
 1073 413 l 1
 809 269 l 1
 809 259 l 1
 917 106.765 1017 60 1160 60 c 2
 1252 60 l 1
 1252 0 l 1
 1155 0 l 2
 1006.8919598 0 875.912060302 57.1965811966 754 239 c 1
 593 151 l 2
 395.322267388 42.9525436655 244.537753223 -2.25986105117e-14 60 0 c 2
 0 0 l 2
 -14 0 -20 9 -20 30 c 0
 -20 51 -14 60 0 60 c 2
 64 60 l 2
 235.588693957 60 373.059954818 98.6242128189 567 202 c 2
 1006 436 l 1
 1006 446 l 1
 908.172619048 472.051282051 803.870974844 511.738810711 660 573 c 0
 505 639 430 663 380 663 c 0
 288 663 230.344827586 604.862068966 170 454 c 2
 164 439 l 1
 113 458 l 1
 119 473 l 2
 190.034482759 650.586206897 263 723 380 723 c 0
EndSplineSet
Colour: ffff
EndChar

StartChar: uniE048
Encoding: 57416 57416 1257
Width: 1268
GlyphClass: 2
Flags: HMW
LayerCount: 2
Back
SplineSet
663 903 m 1
 941 257 l 2
 1006 107 1096 60 1247 60 c 2
 3316 60 l 1
 3316 0 l 1
 1247 0 l 2
 1082 0 951 61 895 217 c 1
 885 217 l 1
 815 70 652 -10 489 -10 c 0
 367 -10 240 34 133 129 c 1
 173 178 l 1
 270 90 384 51 491 51 c 0
 643 51 787 129 866 273 c 1
 601 874 l 1
 663 903 l 1
EndSplineSet
Fore
SplineSet
663 903 m 1
 941 257 l 2
 1006 107 1096 60 1247 60 c 2
 1268 60 l 1
 1268 0 l 1
 1247 0 l 2
 1082 0 951 61 895 217 c 1
 885 217 l 1
 815 70 652 -10 489 -10 c 0
 367 -10 240 34 133 129 c 1
 173 178 l 1
 270 90 384 51 491 51 c 0
 643 51 787 129 866 273 c 1
 601 874 l 1
 663 903 l 1
EndSplineSet
Colour: ffff
EndChar

StartChar: uniE049
Encoding: 57417 57417 1258
Width: 743
GlyphClass: 2
Flags: HMW
LayerCount: 2
Back
SplineSet
240 522 m 1
 296 544 l 1
 356 362 l 2
 425 149 516 60 742 60 c 2
 2791 60 l 1
 2791 0 l 1
 742 0 l 2
 588 0 464 59 402 161 c 1
 392 157 l 1
 445 -197 285 -374 -139 -533 c 1
 -161 -477 l 1
 204 -342 352 -198 352 22 c 0
 352 144 313 317 240 522 c 1
EndSplineSet
Fore
SplineSet
240 522 m 1
 296 544 l 1
 356 362 l 2
 425 149 516 60 742 60 c 2
 743 60 l 1
 743 0 l 1
 742 0 l 2
 588 0 464 59 402 161 c 1
 392 157 l 1
 445 -196 285 -374 -139 -533 c 1
 -161 -477 l 1
 204 -342 352 -198 352 22 c 0
 352 144 313 317 240 522 c 1
EndSplineSet
Colour: ffff
EndChar

StartChar: uniE04A
Encoding: 57418 57418 1259
Width: 2736
GlyphClass: 2
Flags: HMW
LayerCount: 2
Back
SplineSet
2323 271 m 1
 2312 87 2228 0 2075 0 c 0
 1930 0 1841 73 1815 200 c 1
 1805 200 l 1
 1771 67 1670 0 1532 0 c 0
 1433.33789978 0 1366.59826101 37.4727302376 1319 101 c 1
 1313 96 l 1
 1370 -318 1106 -491 727 -491 c 0
 361 -491 136 -339 136 41 c 0
 136 137 151 261 191 468 c 1
 250 457 l 1
 210 251 196 131 196 41 c 0
 196 -307 387 -431 726 -431 c 0
 1060 -431 1271 -322 1271 -9 c 0
 1271 119 1232 263 1127 514 c 1
 1183 538 l 1
 1294 235 l 2
 1334.26188418 125.09593777 1410 60 1544 60 c 0
 1690 60 1763.34075508 142.968054211 1782 342 c 2
 1797 502 l 1
 1859 494 l 1
 1846 351 l 2
 1827.72131148 149.93442623 1917 60 2077 60 c 0
 2218 60 2282 144 2282 316 c 0
 2282 386 2271 470 2251 563 c 1
 2311 575 l 1
 2338 400 l 2
 2374.87720865 160.981055049 2491 60 2734 60 c 2
 4784 60 l 1
 4784 0 l 1
 2734 0 l 2
 2508 0 2365 99 2333 271 c 1
 2323 271 l 1
EndSplineSet
Fore
SplineSet
2323 271 m 1
 2312 87 2228 0 2075 0 c 0
 1930 0 1841 73 1815 200 c 1
 1805 200 l 1
 1771 67 1670 0 1532 0 c 0
 1433.33789978 0 1366.59826101 37.4727302376 1319 101 c 1
 1313 96 l 1
 1370 -318 1106 -491 727 -491 c 0
 361 -491 136 -339 136 41 c 0
 136 137 151 261 191 468 c 1
 250 457 l 1
 210 251 196 131 196 41 c 0
 196 -307 387 -431 726 -431 c 0
 1060 -431 1271 -322 1271 -9 c 0
 1271 119 1232 263 1127 514 c 1
 1183 538 l 1
 1294 235 l 2
 1334.26188418 125.09593777 1410 60 1544 60 c 0
 1690 60 1763.34075508 142.968054211 1782 342 c 2
 1797 502 l 1
 1859 494 l 1
 1846 351 l 2
 1827.72131148 149.93442623 1917 60 2077 60 c 0
 2218 60 2282 144 2282 316 c 0
 2282 386 2271 470 2251 563 c 1
 2311 575 l 1
 2338 400 l 2
 2374.87720865 160.981055049 2491 60 2734 60 c 2
 2736 60 l 1
 2736 0 l 1
 2734 0 l 2
 2508 0 2365 99 2333 271 c 1
 2323 271 l 1
EndSplineSet
Colour: ffff
EndChar

StartChar: uniE04B
Encoding: 57419 57419 1260
Width: 1648
GlyphClass: 2
Flags: HMW
LayerCount: 2
Fore
SplineSet
708 60 m 0
 854 60 926 143 946 342 c 2
 962 502 l 1
 1024 494 l 1
 1011 351 l 2
 992 151 1083 60 1242 60 c 0
 1383 60 1456 148 1456 321 c 0
 1456 396 1442 524 1429 586 c 1
 1488 601 l 1
 1502 532 1516 402 1516 322 c 0
 1516 110 1423 0 1241 0 c 0
 1094 0 1004 72 979 200 c 1
 969 200 l 1
 934 68 847 0 706 0 c 0
 550 0 458 87 439 238 c 1
 429 238 l 1
 396 96 251 0 61 0 c 2
 0 0 l 2
 -14 0 -20 9 -20 30 c 0
 -20 52 -14 60 0 60 c 2
 61 60 l 2
 290 60 393 169 424 437 c 2
 436 545 l 1
 498 538 l 1
 480 374 l 2
 457 170 539 60 708 60 c 0
EndSplineSet
EndChar

StartChar: uniE04C
Encoding: 57420 57420 1261
Width: 1901
GlyphClass: 2
Flags: HMW
LayerCount: 2
Back
SplineSet
1488 271 m 1
 1476 86 1393 0 1234 0 c 0
 1088 0 1004 72 979 200 c 1
 969 200 l 1
 933 68 846 0 707 0 c 0
 549 0 458 86 439 238 c 1
 429 238 l 1
 396 96 251 0 61 0 c 2
 0 0 l 2
 -14 0 -20 9 -20 30 c 0
 -20 52 -14 60 0 60 c 2
 61 60 l 2
 290 60 392 169 424 437 c 2
 436 545 l 1
 498 538 l 1
 480 374 l 2
 457 170 539 60 708 60 c 0
 854 60 926 142 946 342 c 2
 962 502 l 1
 1024 494 l 1
 1011 351 l 2
 993 150 1082 60 1234 60 c 0
 1381 60 1447 145 1447 316 c 0
 1447 386 1436 470 1416 563 c 1
 1476 575 l 1
 1503 400 l 2
 1541 161 1656 60 1899 60 c 2
 3949 60 l 1
 3949 0 l 1
 1899 0 l 2
 1673 0 1530 99 1498 271 c 1
 1488 271 l 1
EndSplineSet
Fore
SplineSet
1488 271 m 1
 1476 86 1393 0 1234 0 c 0
 1088 0 1004 72 979 200 c 1
 969 200 l 1
 933 68 846 0 707 0 c 0
 549 0 458 86 439 238 c 1
 429 238 l 1
 396 96 251 0 61 0 c 2
 0 0 l 2
 -14 0 -20 9 -20 30 c 0
 -20 52 -14 60 0 60 c 2
 61 60 l 2
 290 60 392 169 424 437 c 2
 436 545 l 1
 498 538 l 1
 480 374 l 2
 457 170 539 60 708 60 c 0
 854 60 926 142 946 342 c 2
 962 502 l 1
 1024 494 l 1
 1011 351 l 2
 993 150 1082 60 1234 60 c 0
 1381 60 1447 145 1447 316 c 0
 1447 386 1436 470 1416 563 c 1
 1476 575 l 1
 1503 400 l 2
 1541 161 1656 60 1899 60 c 2
 1901 60 l 1
 1901 0 l 1
 1899 0 l 2
 1673 0 1530 99 1498 271 c 1
 1488 271 l 1
EndSplineSet
Colour: ffff
EndChar

StartChar: uniE04D
Encoding: 57421 57421 1262
Width: 2469
GlyphClass: 2
Flags: HMW
LayerCount: 2
Back
SplineSet
1937 600 m 0
 1758 600 1559 435 1340 107 c 1
 1418 75 1523 60 1673 60 c 0
 2025 60 2193 155 2193 350 c 0
 2193 500 2091 600 1937 600 c 0
1937 661 m 0
 2128 661 2255 536 2255 350 c 0
 2255 263 2230 196 2176 143 c 1
 2241 87 2336 60 2468 60 c 2
 4517 60 l 1
 4517 0 l 1
 2468 0 l 2
 2326 0 2212 35 2135 104 c 1
 2039 35 1885 0 1672 0 c 0
 1515 0 1383 21 1289 61 c 1
 1303 -300 1103 -491 707 -491 c 0
 327 -491 136 -314 136 41 c 0
 136 141 153 271 191 468 c 1
 250 457 l 1
 212 260 196 135 196 41 c 0
 196 -284 355 -431 706 -431 c 0
 1061 -431 1231 -282 1231 28 c 0
 1231 146 1195 281 1096 515 c 1
 1153 539 l 1
 1232 352 1268 234 1282 130 c 1
 1513 477 1740 661 1937 661 c 0
EndSplineSet
Fore
SplineSet
1937 600 m 0
 1758 600 1559 435 1340 107 c 1
 1418 75 1523 60 1673 60 c 0
 2025 60 2193 155 2193 350 c 0
 2193 500 2091 600 1937 600 c 0
1937 661 m 0
 2128 661 2255 536 2255 350 c 0
 2255 263 2230 196 2176 143 c 1
 2241 87 2336 60 2468 60 c 2
 2469 60 l 1
 2469 0 l 1
 2468 0 l 2
 2326 0 2212 35 2135 104 c 1
 2039 35 1885 0 1672 0 c 0
 1515 0 1383 21 1289 61 c 1
 1303 -300 1103 -491 707 -491 c 0
 327 -491 136 -314 136 41 c 0
 136 141 153 271 191 468 c 1
 250 457 l 1
 212 260 196 135 196 41 c 0
 196 -284 355 -431 706 -431 c 0
 1061 -431 1231 -282 1231 28 c 0
 1231 146 1195 281 1096 515 c 1
 1153 539 l 1
 1232 352 1268 234 1282 130 c 1
 1513 477 1740 661 1937 661 c 0
EndSplineSet
Colour: ffff
EndChar

StartChar: uniE04E
Encoding: 57422 57422 1263
Width: 1614
GlyphClass: 2
Flags: HMW
LayerCount: 2
Fore
SplineSet
1165 600 m 0
 1018 600 825 493 567 107 c 1
 655 71 770 60 901 60 c 0
 1154 60 1421 100 1421 350 c 0
 1421 495 1325 600 1165 600 c 0
356 246 m 1
 326 83 189 0 10 0 c 2
 0 0 l 2
 -17 0 -20 13 -20 30 c 0
 -20 47 -17 60 0 60 c 2
 10 60 l 2
 290 60 326 209 326 428 c 2
 326 546 l 1
 386 546 l 1
 386 455 l 1
 386 243 433 185 512 135 c 1
 775 533 992 661 1165 661 c 0
 1369 661 1483 524 1483 350 c 0
 1483 68 1207 0 900 0 c 0
 605 0 422 71 364 246 c 1
 356 246 l 1
EndSplineSet
EndChar

StartChar: uniE04F
Encoding: 57423 57423 1264
Width: 1697
GlyphClass: 2
Flags: HMW
LayerCount: 2
Back
SplineSet
326 546 m 1
 386 546 l 1
 386 455 l 1
 386 243 433 185 512 135 c 1
 775 533 992 661 1165 661 c 0
 1369 661 1483 524 1483 350 c 0
 1483 260 1455 191 1406 140 c 1
 1470 86 1565 60 1696 60 c 1
 3745 60 l 1
 3745 0 l 1
 1696 0 l 2
 1557 0 1441 33 1362 103 c 1
 1253 24 1082 0 900 0 c 0
 605 0 422 71 364 246 c 1
 356 246 l 1
 326 83 189 0 10 0 c 2
 0 0 l 2
 -17 0 -20 13 -20 30 c 0
 -20 47 -17 60 0 60 c 2
 10 60 l 2
 290 60 326 209 326 428 c 2
 326 546 l 1
1165 600 m 0
 1018 600 825 493 567 107 c 1
 655 71 770 60 901 60 c 0
 1154 60 1421 100 1421 350 c 0
 1421 495 1325 600 1165 600 c 0
EndSplineSet
Fore
SplineSet
326 546 m 1
 386 546 l 1
 386 455 l 1
 386 243 433 185 512 135 c 1
 775 533 992 661 1165 661 c 0
 1369 661 1483 524 1483 350 c 0
 1483 260 1455 191 1406 140 c 1
 1470 86 1565 60 1696 60 c 1
 1697 60 l 1
 1697 0 l 1
 1696 0 l 2
 1557 0 1441 33 1362 103 c 1
 1253 24 1082 0 900 0 c 0
 606 0 422 71 364 246 c 1
 356 246 l 1
 326 83 189 0 10 0 c 2
 0 0 l 2
 -17 0 -20 13 -20 30 c 0
 -20 47 -17 60 0 60 c 2
 10 60 l 2
 290 60 326 209 326 428 c 2
 326 546 l 1
1165 600 m 0
 1018 600 825 493 567 107 c 1
 655 71 770 60 901 60 c 0
 1154 60 1421 100 1421 350 c 0
 1421 495 1325 600 1165 600 c 0
EndSplineSet
Colour: ffff
EndChar

StartChar: uniE050
Encoding: 57424 57424 1265
Width: 1719
GlyphClass: 2
Flags: HMW
LayerCount: 2
Back
SplineSet
518 60 m 1
 889 60 l 2
 1141 60 1410 98 1410 349 c 0
 1410 495 1313 600 1154 600 c 0
 1005 600 794 497 518 60 c 1
449 60 m 1
 476 103 502 143 528 183 c 1
 528 1258 l 1
 587 1258 l 1
 587 520 l 2
 587 424 586 346 568 256 c 1
 577 250 l 1
 776 522 972 661 1154 661 c 0
 1359 661 1471 524 1471 350 c 0
 1471 285 1457 222 1417 168 c 1
 1482 100 1579 60 1718 60 c 1
 3767 60 l 1
 3767 0 l 1
 1718 0 l 2
 1557 0 1463 57 1383 130 c 1
 1301 52 1151 0 888 0 c 2
 133 0 l 1
 133 60 l 1
 449 60 l 1
EndSplineSet
Fore
SplineSet
518 60 m 1
 889 60 l 2
 1141 60 1410 98 1410 349 c 0
 1410 495 1313 600 1154 600 c 0
 1005 600 794 497 518 60 c 1
449 60 m 1
 476 103 502 143 528 183 c 1
 528 1258 l 1
 587 1258 l 1
 587 520 l 2
 587 424 586 346 568 256 c 1
 577 250 l 1
 776 522 972 661 1154 661 c 0
 1359 661 1471 524 1471 350 c 0
 1471 285 1457 222 1417 168 c 1
 1482 100 1579 60 1718 60 c 1
 1719 60 l 1
 1719 0 l 1
 1718 0 l 2
 1557 0 1463 57 1383 130 c 1
 1301 52 1151 0 888 0 c 2
 133 0 l 1
 133 60 l 1
 449 60 l 1
EndSplineSet
Colour: ffff
EndChar

StartChar: uniE051
Encoding: 57425 57425 1266
Width: 1335
GlyphClass: 2
Flags: HMW
LayerCount: 2
Fore
SplineSet
0 0 m 1
 -17 0 -20 13 -20 30 c 0
 -20 47 -17 60 0 60 c 1
 182 60 l 1
 209 103 234 143 260 183 c 1
 260 1258 l 1
 319 1258 l 1
 319 520 l 2
 319 423 317 346 300 256 c 1
 309 250 l 1
 507 521 703 661 886 661 c 0
 1090 661 1203 524 1203 350 c 0
 1203 167 1091 0 620 0 c 2
 0 0 l 1
251 60 m 1
 621 60 l 2
 873 60 1142 98 1142 349 c 0
 1142 495 1045 600 886 600 c 0
 737 600 527 497 251 60 c 1
EndSplineSet
EndChar

StartChar: uniE052
Encoding: 57426 57426 1267
Width: 1453
GlyphClass: 2
Flags: HMW
LayerCount: 2
Back
SplineSet
0 0 m 2
 -17 0 -20 14 -20 30 c 0
 -20 46 -17 60 0 60 c 1
 182 60 l 1
 209 103 234 143 260 183 c 1
 260 1258 l 1
 319 1258 l 1
 319 520 l 2
 319 424 318 346 300 256 c 1
 309 250 l 1
 508 522 704 661 886 661 c 0
 1091 661 1203 524 1203 350 c 0
 1203 286 1189 223 1150 169 c 1
 1215 100 1313 60 1452 60 c 1
 3501 60 l 1
 3501 0 l 1
 1452 0 l 2
 1290 0 1196 57 1116 131 c 1
 1034 53 883 0 620 0 c 2
 0 0 l 2
251 60 m 1
 621 60 l 2
 873 60 1142 98 1142 349 c 0
 1142 495 1045 600 886 600 c 0
 737 600 527 497 251 60 c 1
EndSplineSet
Fore
SplineSet
0 0 m 2
 -17 0 -20 14 -20 30 c 0
 -20 46 -17 60 0 60 c 1
 182 60 l 1
 209 103 234 143 260 183 c 1
 260 1258 l 1
 319 1258 l 1
 319 520 l 2
 319 424 318 346 300 256 c 1
 309 250 l 1
 508 522 704 661 886 661 c 0
 1091 661 1203 524 1203 350 c 0
 1203 286 1189 223 1150 169 c 1
 1215 100 1313 60 1452 60 c 1
 1453 60 l 1
 1453 0 l 1
 1452 0 l 2
 1290 0 1196 57 1116 131 c 1
 1034 53 883 0 620 0 c 2
 0 0 l 2
251 60 m 1
 621 60 l 2
 873 60 1142 98 1142 349 c 0
 1142 495 1045 600 886 600 c 0
 737 600 527 497 251 60 c 1
EndSplineSet
Colour: ffff
EndChar

StartChar: uniE053
Encoding: 57427 57427 1268
Width: 1183
GlyphClass: 2
Flags: HMW
LayerCount: 2
Back
SplineSet
944 511 m 0
 944 622.897058824 819.166666667 700 638 700 c 0
 488.115384615 700 371.087827427 668.055469954 257 596 c 1
 257 590 l 1
 649 194 l 1
 844.443355596 295.710317708 944 402.691525424 944 511 c 0
1004 509 m 0
 1004 383.699346405 905.156210659 271.611781368 698 162 c 1
 698 152 l 1
 766.700475436 82.2892234548 840 60 999 60 c 2
 3231 60 l 1
 3231 0 l 1
 990 0 l 2
 809 0 730.28784502 28.6871249786 638 129 c 1
 322 -36 197 -163.736961451 197 -355 c 0
 197 -568.326996198 396.808139535 -699 723 -699 c 0
 830.916666667 -699 944.790408526 -687.151865009 1069 -663 c 1
 1081 -726 l 1
 940.94384058 -751.799818841 824.078947368 -764 717 -764 c 0
 366.263092269 -764 139 -606.331314879 139 -363 c 0
 139 -159.264900662 278.000721687 1.82865096139 592 162 c 1
 592 172 l 1
 198 556 l 1
 198 630 l 1
 348.525445169 722.322273037 477.549618321 761 635 761 c 0
 860.25 761 1004 662.829268293 1004 509 c 0
EndSplineSet
Fore
SplineSet
944 511 m 0
 944 622.897058824 819.166666667 700 638 700 c 0
 488.115384615 700 371.087827427 668.055469954 257 596 c 1
 257 590 l 1
 649 194 l 1
 844.443355596 295.710317708 944 402.691525424 944 511 c 0
1004 509 m 0
 1004 383.699346405 905.156210659 271.611781368 698 162 c 1
 698 152 l 1
 766.700475436 82.2892234548 839.625 60 999 60 c 2
 1183 60 l 1
 1183 0 l 1
 990 0 l 2
 808.565891473 0 730.28784502 28.6871249786 638 129 c 1
 322 -36 197 -163.736961451 197 -355 c 0
 197 -568.326996198 396.808139535 -699 723 -699 c 0
 830.916666667 -699 944.790408526 -687.151865009 1069 -663 c 1
 1081 -726 l 1
 940.94384058 -751.799818841 824.078947368 -764 717 -764 c 0
 366.263092269 -764 139 -606.331314879 139 -363 c 0
 139 -159.264900662 278.000721687 1.82865096139 592 162 c 1
 592 172 l 1
 198 556 l 1
 198 630 l 1
 348.525445169 722.322273037 477.549618321 761 635 761 c 0
 860.25 761 1004 662.829268293 1004 509 c 0
EndSplineSet
Colour: ffff
EndChar

StartChar: uniE054
Encoding: 57428 57428 1269
Width: 1089
GlyphClass: 2
Flags: HMW
LayerCount: 2
Fore
SplineSet
220 404 m 0
 220 218.421404682 355 115 598 115 c 0
 657 115 745 122 871 141 c 2
 931 151 l 1
 940 90 l 1
 879 80 l 2
 577 32 237 0 44 0 c 2
 0 0 l 2
 -14 0 -20 10 -20 30 c 0
 -20 50 -14 60 0 60 c 2
 44 60 l 2
 177 60 302 66 427 77 c 1
 427 88 l 1
 263 125.8 160 245.984615385 160 403 c 0
 160 625.3 328 793 552 793 c 0
 656 793 760 757 846 691 c 1
 810 642 l 1
 734 700 642 732 552 732 c 0
 362 732 220 593.230769231 220 404 c 0
EndSplineSet
EndChar

StartChar: uniE055
Encoding: 57429 57429 1270
Width: 1188
GlyphClass: 2
Flags: HMW
LayerCount: 2
Back
SplineSet
612 700 m 0
 461 700 347 669 231 596 c 1
 231 590 l 1
 623 194 l 1
 798 285 918 391 918 511 c 0
 918 651 747 700 612 700 c 0
609 761 m 0
 790 761 978 694 978 509 c 0
 978 364.364222416 845.502610007 254.552002884 671 162 c 1
 671 152 l 1
 761 60 863 60 974 60 c 2
 3236 60 l 1
 3236 0 l 1
 963 0 l 2
 823 0 726 7 612 129 c 1
 488 53 360 -2.21653750042e-14 179 0 c 2
 0 0 l 2
 -16 0 -20 13 -20 30 c 0
 -20 47 -16 60 0 60 c 2
 169 60 l 2
 336 60 454 101.943925234 566 162 c 1
 566 172 l 1
 172 556 l 1
 172 630 l 1
 304 712 430 761 609 761 c 0
EndSplineSet
Fore
SplineSet
612 700 m 0
 461 700 347 669 231 596 c 1
 231 590 l 1
 623 194 l 1
 798 285 918 391 918 511 c 0
 918 651 747 700 612 700 c 0
609 761 m 0
 790 761 978 694 978 509 c 0
 978 364.364222416 845.502610007 254.552002884 671 162 c 1
 671 152 l 1
 761 60 863 60 974 60 c 2
 1188 60 l 1
 1188 0 l 1
 963 0 l 2
 823 0 726 7 612 129 c 1
 488 53 360 -2.21653750042e-14 179 0 c 2
 0 0 l 2
 -16 0 -20 13 -20 30 c 0
 -20 47 -16 60 0 60 c 2
 169 60 l 2
 336 60 454 101.943925234 566 162 c 1
 566 172 l 1
 172 556 l 1
 172 630 l 1
 304 712 430 761 609 761 c 0
EndSplineSet
Colour: ffff
EndChar

StartChar: uniE056
Encoding: 57430 57430 1271
Width: 1837
GlyphClass: 2
Flags: HMW
LayerCount: 2
Back
SplineSet
1442 414 m 2
 1442 186 1582 60 1836 60 c 1
 3885 60 l 1
 3885 0 l 1
 1836 0 l 1
 1609 0 1455 101 1421 284 c 1
 1411 284 l 1
 1370 79 1183 0 774 0 c 0
 305 0 133 86 133 346 c 0
 133 418 146 514 165 593 c 1
 218 580 l 1
 199 506 185 405 185 341 c 0
 185 126 344 60 790 60 c 0
 1245 60 1382 141 1382 409 c 2
 1382 1259 l 1
 1442 1259 l 1
 1442 414 l 2
EndSplineSet
Fore
SplineSet
1442 414 m 2
 1442 186 1582 60 1836 60 c 1
 1837 60 l 1
 1837 0 l 1
 1836 0 l 1
 1609 0 1455 100 1421 284 c 1
 1411 284 l 1
 1370 79 1183 0 774 0 c 0
 305 0 133 86 133 346 c 0
 133 418 146 514 165 593 c 1
 218 580 l 1
 199 506 185 405 185 341 c 0
 185 126 344 60 790 60 c 0
 1245 60 1382 141 1382 409 c 2
 1382 1259 l 1
 1442 1259 l 1
 1442 414 l 2
EndSplineSet
Colour: ffff
EndChar

StartChar: uniE057
Encoding: 57431 57431 1272
Width: 794
GlyphClass: 2
Flags: HMW
LayerCount: 2
Fore
SplineSet
811 1215 m 1
 825 1154 l 1
 503 1072 264 994 95 922 c 1
 94 912 l 1
 472 635.122070312 629 478.945701357 629 309 c 0
 629 109 443 0 104 0 c 2
 0 0 l 2
 -14 0 -20 9 -20 30 c 0
 -20 51 -14 60 0 60 c 2
 104 60 l 2
 405 60 569 149 569 312 c 0
 569 460.5 404 617.077148438 45 876 c 1
 53 965 l 1
 247 1046 522 1138 811 1215 c 1
EndSplineSet
EndChar

StartChar: uniE058
Encoding: 57432 57432 1273
Width: 1126
GlyphClass: 2
Flags: HMW
LayerCount: 2
Back
SplineSet
607 369 m 1
 642 116 464 -4.40858287376e-14 104 0 c 2
 0 0 l 2
 -14 0 -20 9 -20 30 c 0
 -20 51 -14 60 0 60 c 2
 104 60 l 2
 422 60 569 155 569 312 c 0
 569 437 436 603 45 876 c 1
 53 965 l 1
 254 1049 532 1141 811 1215 c 1
 825 1154 l 1
 519 1076 273 998 95 922 c 1
 94 912 l 1
 432 665 566 534 667 363 c 0
 803.460876863 131.962277786 881 60 1125 60 c 2
 3174 60 l 1
 3174 0 l 1
 1125 0 l 2
 849 0 717 96 617 369 c 1
 607 369 l 1
EndSplineSet
Fore
SplineSet
607 369 m 1
 642 116 464 -4.40858287376e-14 104 0 c 2
 0 0 l 2
 -14 0 -20 9 -20 30 c 0
 -20 51 -14 60 0 60 c 2
 104 60 l 2
 422 60 569 155 569 312 c 0
 569 437 436 603 45 876 c 1
 53 965 l 1
 254 1049 532 1141 811 1215 c 1
 825 1154 l 1
 519 1076 273 998 95 922 c 1
 94 912 l 1
 432 665 566 534 667 363 c 0
 803.460876863 131.962277786 881 60 1125 60 c 2
 1126 60 l 1
 1126 0 l 1
 1125 0 l 2
 849 0 717 96 617 369 c 1
 607 369 l 1
EndSplineSet
Colour: ffff
EndChar

StartChar: uniE059
Encoding: 57433 57433 1274
Width: 1494
GlyphClass: 2
Flags: HMW
LayerCount: 2
Back
SplineSet
3542 60 m 1
 3542 0 l 1
 1493 0 l 2
 1338 0 1199 68 1149 188 c 1
 1139 186 l 1
 1139 38 l 2
 1139 -345 966 -515 615 -515 c 0
 314 -515 133 -351 133 -67 c 0
 133 59 160 201 219 350 c 1
 274 326 l 1
 219 182 193 42 193 -67 c 0
 193 -321 344 -454 630 -454 c 0
 937 -454 1079 -297 1079 38 c 2
 1079 1258 l 1
 1139 1258 l 1
 1139 432 l 2
 1139 211 1218 60 1493 60 c 2
 3542 60 l 1
EndSplineSet
Fore
SplineSet
1494 60 m 1
 1494 0 l 1
 1493 0 l 2
 1337 0 1200 68 1149 188 c 1
 1139 186 l 1
 1139 38 l 2
 1139 -345 966 -515 615 -515 c 0
 314 -515 133 -351 133 -67 c 0
 133 59 160 201 219 350 c 1
 274 326 l 1
 219 182 193 42 193 -67 c 0
 193 -321 344 -454 630 -454 c 0
 937 -454 1079 -297 1079 38 c 2
 1079 1258 l 1
 1139 1258 l 1
 1139 432 l 2
 1139 211 1218 60 1493 60 c 2
 1494 60 l 1
EndSplineSet
Colour: ffff
EndChar

StartChar: uniE05A
Encoding: 57434 57434 1275
Width: 562
GlyphClass: 2
Flags: HMW
LayerCount: 2
Fore
SplineSet
0 60 m 0
 249 60 313 179 313 408 c 2
 313 1258 l 1
 373 1258 l 1
 373 408 l 2
 373 136 273 0 0 0 c 0
 -15 0 -20 15 -20 30 c 0
 -20 45 -15 60 0 60 c 0
EndSplineSet
EndChar

StartChar: uniE05B
Encoding: 57435 57435 1276
Width: 685
GlyphClass: 2
Flags: HMW
LayerCount: 2
Back
SplineSet
337 246 m 1
 317 83 193 0 0 0 c 0
 -15 0 -20 15 -20 30 c 0
 -20 45 -15 60 0 60 c 0
 273 60 313 207 313 426 c 2
 313 1258 l 1
 373 1258 l 1
 373 432 l 2
 373 211 409 60 684 60 c 2
 2733 60 l 1
 2733 0 l 1
 684 0 l 2
 495 0 366 84 347 246 c 1
 337 246 l 1
EndSplineSet
Fore
SplineSet
337 246 m 1
 317 83 193 0 0 0 c 0
 -15 0 -20 15 -20 30 c 0
 -20 45 -15 60 0 60 c 0
 273 60 313 207 313 426 c 2
 313 1258 l 1
 373 1258 l 1
 373 432 l 2
 373 211 409 60 684 60 c 2
 685 60 l 1
 685 0 l 1
 684 0 l 2
 495 0 366 84 347 246 c 1
 337 246 l 1
EndSplineSet
Colour: ffff
EndChar

StartChar: uniE05C
Encoding: 57436 57436 1277
Width: 1460
GlyphClass: 2
Flags: HMW
LayerCount: 2
Back
SplineSet
799 617 m 0
 580 617 515 336 472 137 c 1
 510 128 559 115 598 104 c 0
 721 71 805 49 889 49 c 0
 1011 49 1063 120 1063 283 c 0
 1063 441 991 617 799 617 c 0
799 676 m 0
 970 676 1051 564 1114 407 c 0
 1178 246 1262 60 1459 60 c 1
 3508 60 l 1
 3508 0 l 1
 1459 0 l 1
 1290 0 1186 112 1116 293 c 1
 1106 291 l 1
 1119 114 1039 -11 889 -11 c 0
 795 -11 703 12 584 44 c 0
 489 71 403 90 343 90 c 0
 234 90 194 31 194 -111 c 2
 194 -733 l 1
 133 -733 l 1
 133 -110 l 2
 133 78 221 183 412 148 c 1
 457 379 543 676 799 676 c 0
EndSplineSet
Fore
SplineSet
799 617 m 0
 580 617 515 336 472 137 c 1
 510 128 559 115 598 104 c 0
 721 71 805 49 889 49 c 0
 1011 49 1063 120 1063 283 c 0
 1063 441 991 617 799 617 c 0
799 676 m 0
 970 676 1051 564 1114 407 c 0
 1178 246 1262 60 1459 60 c 1
 1460 60 l 1
 1460 0 l 1
 1459 0 l 1
 1290 0 1186 113 1116 293 c 1
 1106 291 l 1
 1119 113 1039 -11 889 -11 c 0
 795 -11 703 12 584 44 c 0
 489 71 403 90 343 90 c 0
 234 90 194 31 194 -111 c 2
 194 -733 l 1
 133 -733 l 1
 133 -110 l 2
 133 78 221 183 412 148 c 1
 457 379 543 676 799 676 c 0
EndSplineSet
Colour: ffff
EndChar

StartChar: uniE05D
Encoding: 57437 57437 1278
Width: 1178
GlyphClass: 2
Flags: HMW
LayerCount: 2
Fore
SplineSet
0 60 m 0
 203 60 283 224 359 383 c 0
 432 537 505 684 681 684 c 0
 871 684 997 475 997 292 c 0
 997 112 877 -11 702 -11 c 0
 555 -11 434 68 322 197 c 1
 256 88 164 0 0 0 c 1
 -17 0 -20 13 -20 30 c 0
 -20 47 -17 60 0 60 c 0
352 249 m 1
 458 119 565 48 703 48 c 0
 850 48 942 146 942 294 c 0
 942 439 832 622 679 622 c 0
 531 622 467 491 398 346 c 1
 352 249 l 1
EndSplineSet
EndChar

StartChar: uniE05E
Encoding: 57438 57438 1279
Width: 1336
GlyphClass: 2
Flags: HMW
LayerCount: 2
Back
SplineSet
352 249 m 1
 458 119 565 48 703 48 c 0
 850 48 942 146 942 294 c 0
 942 439 832 622 679 622 c 0
 531 622 467 491 398 346 c 1
 352 249 l 1
0 60 m 0
 203 60 283 224 359 383 c 0
 432 537 505 684 681 684 c 0
 861 684 938 528 1006 370 c 0
 1075 210 1150 60 1335 60 c 1
 3384 60 l 1
 3384 0 l 1
 1335 0 l 1
 1165 0 1048 132 997 289 c 1
 987 288 l 1
 977 101 862 -11 702 -11 c 0
 555 -11 434 68 322 197 c 1
 256 88 164 0 0 0 c 1
 -17 0 -20 13 -20 30 c 0
 -20 47 -17 60 0 60 c 0
EndSplineSet
Fore
SplineSet
352 249 m 1
 458 119 565 48 703 48 c 0
 850 48 942 146 942 294 c 0
 942 439 832 622 679 622 c 0
 531 622 467 491 398 346 c 1
 352 249 l 1
0 60 m 0
 203 60 283 224 359 383 c 0
 432 537 505 684 681 684 c 0
 861 684 938 528 1006 370 c 0
 1075 210 1150 60 1335 60 c 1
 1336 60 l 1
 1336 0 l 1
 1335 0 l 1
 1164 0 1049 132 997 289 c 1
 987 288 l 1
 977 101 862 -11 702 -11 c 0
 555 -11 434 68 322 197 c 1
 256 88 164 0 0 0 c 1
 -17 0 -20 13 -20 30 c 0
 -20 47 -17 60 0 60 c 0
EndSplineSet
Colour: ffff
EndChar

StartChar: uniE05F
Encoding: 57439 57439 1280
Width: 1115
GlyphClass: 2
Flags: HMW
LayerCount: 2
Back
SplineSet
738 770 m 1
 730 918 l 1
 790 921 l 1
 822 395 l 2
 838 125 895 60 1114 60 c 2
 3163 60 l 1
 3163 0 l 1
 1114 0 l 2
 930 0 840 63 796 192 c 1
 721 164 637 150 555 150 c 0
 370 150 200 225 200 392 c 0
 200 586 409 727 738 770 c 1
741 708 m 1
 447 671 265 559 265 399 c 0
 265 266 406 212 560 212 c 0
 635 212 714 225 781 248 c 1
 772 289 767 335 763 387 c 2
 741 708 l 1
EndSplineSet
Fore
SplineSet
738 770 m 1
 730 918 l 1
 790 921 l 1
 822 395 l 2
 838 125 895 60 1114 60 c 2
 1115 60 l 1
 1115 0 l 1
 1114 0 l 2
 930 0 840 63 796 192 c 1
 721 164 637 150 555 150 c 0
 370 150 200 225 200 392 c 0
 200 586 409 727 738 770 c 1
741 708 m 1
 447 671 265 559 265 399 c 0
 265 266 406 212 560 212 c 0
 635 212 714 225 781 248 c 1
 772 289 767 335 763 387 c 2
 741 708 l 1
EndSplineSet
Colour: ffff
EndChar

StartChar: uniE060
Encoding: 57440 57440 1281
Width: 1320
GlyphClass: 2
Flags: HMW
LayerCount: 2
Fore
SplineSet
0 60 m 2
 29 60 l 2
 174 60 272 76 387 118 c 1
 224 210 133 332 133 459 c 0
 133 613 242 748 395 781 c 1
 395 791 l 1
 209 870 l 1
 233 926 l 1
 704 724 l 1
 1065 574 1189 459 1189 276 c 0
 1189 94 1067 -11 855 -11 c 0
 737 -11 593 23 458 83 c 1
 317 21 211 0 45 0 c 2
 0 0 l 2
 -13 0 -20 10 -20 30 c 0
 -20 50 -13 60 0 60 c 2
458 149 m 1
 605 221 694 336 694 455 c 0
 694 635 611 737 464 737 c 0
 317 737 192 609 192 459 c 0
 192 343 289 229 458 149 c 1
527 118 m 1
 637 75 760 49 856 49 c 0
 1035 49 1129 127 1129 276 c 0
 1129 428 1022 525 709 656 c 1
 805 436 739 242 527 118 c 1
EndSplineSet
EndChar

StartChar: uniE061
Encoding: 57441 57441 1282
Width: 970
GlyphClass: 2
Flags: HMW
LayerCount: 2
Back
SplineSet
520 738 m 0
 661 738 769 620 769 452 c 0
 769 200 545 16 219 1 c 1
 242 -160 344 -348 505 -477 c 1
 510 -477 l 1
 691 -38 764 60 910 60 c 2
 3018 60 l 1
 3018 0 l 1
 910 0 l 2
 796 0 731 -95 550 -537 c 1
 484 -537 l 1
 299 -389 192 -186 167 0 c 1
 0 0 l 2
 -13 0 -20 11 -20 30 c 0
 -20 48 -13 60 0 60 c 2
 160 60 l 1
 128 500 293 738 520 738 c 0
213 61 m 1
 509 73 708 231 708 454 c 0
 708 588 627 678 520 678 c 0
 325 678 184 461 213 61 c 1
EndSplineSet
Fore
SplineSet
520 738 m 0
 661 738 769 620 769 452 c 0
 769 200 546 16 219 1 c 1
 242 -160 344 -348 505 -477 c 1
 510 -477 l 1
 691 -38 764 60 910 60 c 2
 970 60 l 1
 970 0 l 1
 910 0 l 2
 796 0 731 -95 550 -537 c 1
 484 -537 l 1
 299 -389 192 -186 167 0 c 1
 0 0 l 2
 -13 0 -20 11 -20 30 c 0
 -20 48 -13 60 0 60 c 2
 160 60 l 1
 129 500 293 738 520 738 c 0
213 61 m 1
 509 73 708 231 708 454 c 0
 708 588 627 678 520 678 c 0
 326 678 183 461 213 61 c 1
EndSplineSet
Colour: ffff
EndChar

StartChar: uniE062
Encoding: 57442 57442 1283
Width: 919
GlyphClass: 2
Flags: HMW
LayerCount: 2
Back
SplineSet
762 59 m 1
 753 273.391941392 690 606 467 606 c 0
 291 606 213 428 213 264 c 0
 213 106 314 59 474 59 c 1
 569 59 665 59 762 59 c 1
767 -6 m 1
 762 0 l 1
 664 0 569 0 474 0 c 1
 283 0 153 71 153 264 c 0
 153 462 255 666 467 666 c 0
 732 666 811 313 819 60 c 1
 2967 60 l 1
 2967 0 l 1
 819 0 l 1
 806 -260 539 -429 119 -527 c 1
 104 -467 l 1
 522 -373.203463203 752 -217.541125541 767 -6 c 1
EndSplineSet
Fore
SplineSet
762 59 m 1
 753 273.391941392 690 606 467 606 c 0
 291 606 213 428 213 264 c 0
 213 106 314 59 474 59 c 1
 569 59 665 59 762 59 c 1
767 -6 m 1
 762 0 l 1
 664 0 569 0 474 0 c 1
 283 0 153 71 153 264 c 0
 153 462 255 666 467 666 c 0
 732 666 811 313 819 60 c 1
 919 60 l 1
 919 0 l 1
 819 0 l 1
 806 -260 539 -429 119 -527 c 1
 104 -467 l 1
 522 -373.203463203 752 -217.541125541 767 -6 c 1
EndSplineSet
Colour: ffff
EndChar

StartChar: uniE063
Encoding: 57443 57443 1284
Width: 1163
GlyphClass: 2
Flags: HMW
LayerCount: 2
Fore
SplineSet
708 571 m 1
 234 226 l 1
 234 88 l 1
 352 62.6842105263 464 51 571 51 c 0
 798 51 914 125.170212766 914 219 c 0
 914 296.790055249 853 412.502762431 708 571 c 1
713 641 m 1
 854 775.081081082 914 920.063063064 914 1125 c 2
 914 1258 l 1
 974 1258 l 1
 974 1125 l 2
 974 908.402489626 903 744.871369294 748 603 c 1
 898 446.086294416 974 323.284263959 974 219 c 0
 974 70.9317269076 802 -10 571 -10 c 0
 444 -10 305 11.2666666667 173 45 c 1
 173 256 l 1
 674 609 l 1
 130 1197 l 1
 174 1237 l 1
 713 641 l 1
EndSplineSet
EndChar

StartChar: uniE064
Encoding: 57444 57444 1285
Width: 1431
GlyphClass: 2
Flags: HMW
LayerCount: 2
Back
SplineSet
187 1259 m 1
 241 1282 l 1
 385 957.493013972 447 670.429141717 447 320 c 1
 388 319 l 1
 388 663.346938776 328 944.387755102 187 1259 c 1
1045 1258 m 1
 1105 1258 l 1
 1105 382 l 2
 1105 146 1192 60 1430 60 c 2
 3479 60 l 1
 3479 0 l 1
 1430 0 l 2
 1169 0 1045 123 1045 382 c 2
 1045 454 l 1
 844 149 538 0 110 0 c 1
 110 60 l 1
 540 60 822 203 1045 536 c 1
 1045 1258 l 1
EndSplineSet
Fore
SplineSet
187 1259 m 1
 241 1282 l 1
 385 956.532934132 447 669.469061876 447 320 c 1
 388 319 l 1
 388 663.346938776 328 944.387755102 187 1259 c 1
1045 1258 m 1
 1105 1258 l 1
 1105 382 l 2
 1105 146 1192 60 1430 60 c 2
 1431 60 l 1
 1431 0 l 1
 1430 0 l 2
 1169 0 1045 123 1045 382 c 2
 1045 454 l 1
 844 149 538 0 110 0 c 1
 110 60 l 1
 541 60 822 203 1045 536 c 1
 1045 1258 l 1
EndSplineSet
Colour: ffff
EndChar

StartChar: uniE065
Encoding: 57445 57445 1286
Width: 1938
GlyphClass: 2
Flags: HMW
LayerCount: 2
Back
SplineSet
1643 563 m 1
 1628 480 1616 410 1616 322 c 0
 1616 175 1666 60 1937 60 c 2
 3986 60 l 1
 3986 0 l 1
 1937 0 l 2
 1704 0 1583 99 1569 288 c 1
 1559 288 l 1
 1445 70 1165 0 782 0 c 0
 316 0 133 159 133 431 c 0
 133 519 154 622 190 720 c 1
 248 697 l 1
 212 599 192 508 192 426 c 0
 192 185 371 60 796 60 c 0
 1376 60 1537 216 1585 570 c 1
 1643 563 l 1
EndSplineSet
Fore
SplineSet
1643 563 m 1
 1628 480 1616 410 1616 322 c 0
 1616 175 1666 60 1937 60 c 2
 1938 60 l 1
 1938 0 l 1
 1937 0 l 2
 1704 0 1583 99 1569 288 c 1
 1559 288 l 1
 1445 70 1165 0 782 0 c 0
 316 0 133 159 133 431 c 0
 133 519 154 621 190 720 c 1
 248 697 l 1
 212 599 192 508 192 426 c 0
 192 185 371 60 796 60 c 0
 1376 60 1537 216 1585 570 c 1
 1643 563 l 1
EndSplineSet
Colour: ffff
EndChar

StartChar: uniE066
Encoding: 57446 57446 1287
Width: 959
GlyphClass: 2
Flags: HMW
LayerCount: 2
Fore
SplineSet
765 474 m 1
 749 792 640 981 474 981 c 0
 333 981 228 830 228 625 c 0
 228 494 306 433 471 433 c 0
 549 433 655 448 765 474 c 1
0 60 m 2
 357 60 l 2
 647 60 766 162 766 411 c 1
 668 386 561 372 473 372 c 0
 268 372 168 455 168 623 c 0
 168 865 297 1041 476 1041 c 0
 691 1041 827 795 827 406 c 0
 827 124 674 0 329 0 c 2
 0 0 l 2
 -14 0 -20 9 -20 30 c 0
 -20 50 -14 60 0 60 c 2
EndSplineSet
EndChar

StartChar: uniE067
Encoding: 57447 57447 1288
Width: 1936
GlyphClass: 2
Flags: HMW
LayerCount: 2
Back
SplineSet
1435 73 m 1
 1284 17 1096 0 913 0 c 0
 466 0 133 37 133 379 c 0
 133 488 164 596 195 687 c 1
 251 666 l 1
 220 575 191 476 191 371 c 0
 191 110 443 60 913 60 c 0
 1065 60 1230 74 1364 109 c 1
 1364 118 l 1
 1222 189 1115 307 1115 488 c 0
 1115 707 1249 829 1435 829 c 0
 1618 829 1755 706 1755 487 c 0
 1755 305 1640 186 1497 115 c 1
 1497 105 l 1
 1583 75 1686 60 1788 60 c 2
 3984 60 l 1
 3984 0 l 1
 1771 0 l 2
 1644 0 1550 23 1435 73 c 1
1435 141 m 1
 1588 208 1694 314 1694 491 c 0
 1694 665 1586 775 1435 775 c 0
 1282 775 1175 665 1175 491 c 0
 1175 315 1282 209 1435 141 c 1
EndSplineSet
Fore
SplineSet
1435 73 m 1
 1284 17 1096 0 913 0 c 0
 466 0 133 37 133 379 c 0
 133 488 164 596 195 687 c 1
 251 666 l 1
 220 575 191 476 191 371 c 0
 191 110 443 60 913 60 c 0
 1065 60 1230 74 1364 109 c 1
 1364 118 l 1
 1222 189 1115 306 1115 488 c 0
 1115 707 1249 829 1435 829 c 0
 1618 829 1755 706 1755 487 c 0
 1755 305 1640 186 1497 115 c 1
 1497 105 l 1
 1583 75 1686 60 1788 60 c 2
 1936 60 l 1
 1936 0 l 1
 1771 0 l 2
 1644 0 1550 23 1435 73 c 1
1435 141 m 1
 1588 208 1694 314 1694 491 c 0
 1694 665 1586 775 1435 775 c 0
 1282 775 1175 665 1175 491 c 0
 1175 315 1282 209 1435 141 c 1
EndSplineSet
Colour: ffff
EndChar

StartChar: uniE068
Encoding: 57448 57448 1289
Width: 958
GlyphClass: 2
Flags: HMW
LayerCount: 2
Back
SplineSet
159 488 m 0
 159 707 293 829 479 829 c 0
 662 829 799 706 799 487 c 0
 799 306 684 186 542 115 c 1
 542 105 l 1
 625 75 724 60 822 60 c 2
 3006 60 l 1
 3006 0 l 1
 805 0 l 2
 681 0 590 23 479 73 c 1
 368 23 273 0 146 0 c 2
 0 0 l 2
 -17 0 -20 13 -20 30 c 0
 -20 47 -17 60 0 60 c 2
 137 60 l 2
 237 60 330 75 418 105 c 1
 419 115 l 1
 275 186 159 307 159 488 c 0
479 136 m 1
 631 205 738 313 738 491 c 0
 738 665 630 775 479 775 c 0
 326 775 219 665 219 491 c 0
 219 314 326 205 479 136 c 1
EndSplineSet
Fore
SplineSet
159 488 m 0
 159 707 293 829 479 829 c 0
 662 829 799 706 799 487 c 0
 799 305 684 186 542 115 c 1
 542 105 l 1
 625 75 724 60 822 60 c 2
 958 60 l 1
 958 0 l 1
 805 0 l 2
 681 0 590 23 479 73 c 1
 368 23 273 0 146 0 c 2
 0 0 l 2
 -17 0 -20 13 -20 30 c 0
 -20 47 -17 60 0 60 c 2
 137 60 l 2
 237 60 330 75 418 105 c 1
 419 115 l 1
 275 186 159 306 159 488 c 0
479 136 m 1
 631 205 738 313 738 491 c 0
 738 665 630 775 479 775 c 0
 326 775 219 665 219 491 c 0
 219 313 326 205 479 136 c 1
EndSplineSet
Colour: ffff
EndChar

StartChar: uniE069
Encoding: 57449 57449 1290
Width: 1474
GlyphClass: 2
Flags: HMW
LayerCount: 2
Back
SplineSet
1022 606 m 0
 846 606 767 427 767 263 c 0
 767 105 869 59 1029 59 c 0
 1125 59 1221 59 1317 59 c 1
 1308 273.391941392 1245 606 1022 606 c 0
1022 666 m 0
 1287 666 1365 316 1374 60 c 1
 3522 60 l 1
 3522 0 l 1
 1374 0 l 1
 1371 -360 1152 -559 742 -559 c 0
 339 -559 133 -394 133 -58 c 0
 133 35 149 174 180 352 c 1
 239 339 l 1
 207 155 192 24 192 -64 c 0
 192 -373 380 -497 747 -497 c 0
 1107 -497 1317 -328.343495935 1322 -6 c 1
 1317 0 l 1
 1219 0 1125 0 1029 0 c 0
 838 0 708 70 708 263 c 0
 708 464 811 666 1022 666 c 0
EndSplineSet
Fore
SplineSet
1022 606 m 0
 846 606 767 427 767 263 c 0
 767 105 869 59 1029 59 c 0
 1125 59 1221 59 1317 59 c 1
 1308 273.391941392 1245 606 1022 606 c 0
1022 666 m 0
 1287 666 1365 316 1374 60 c 1
 1474 60 l 1
 1474 0 l 1
 1374 0 l 1
 1371 -360 1152 -559 742 -559 c 0
 339 -559 133 -394 133 -58 c 0
 133 35 149 174 180 352 c 1
 239 339 l 1
 207 155 192 24 192 -64 c 0
 192 -373 380 -497 747 -497 c 0
 1107 -497 1317 -328.343495935 1322 -6 c 1
 1317 0 l 1
 1219 0 1125 0 1029 0 c 0
 838 0 708 70 708 263 c 0
 708 464 811 666 1022 666 c 0
EndSplineSet
Colour: ffff
EndChar

StartChar: uniE06E
Encoding: 57454 57454 1291
Width: 0
GlyphClass: 2
Flags: HMW
LayerCount: 2
Fore
SplineSet
-120 1178 m 1
 27 1178 l 2
 165 1178 226 1209 226 1283 c 0
 226 1337 189 1372 133 1372 c 0
 59 1372 2 1322 -120 1178 c 1
-159 1178 m 1
 -159 1610 l 1
 -110 1610 l 1
 -110 1264 l 1
 -100 1264 l 1
 -8 1367 62 1421 136 1421 c 0
 218 1421 275 1364 275 1282 c 0
 275 1180 191 1129 27 1129 c 2
 -304 1129 l 1
 -304 1178 l 1
 -159 1178 l 1
EndSplineSet
EndChar

StartChar: uniE06F
Encoding: 57455 57455 1292
Width: 0
GlyphClass: 2
Flags: HMW
LayerCount: 2
Fore
SplineSet
10 1241 m 1
 65 1215 100 1204 133 1204 c 0
 203 1204 250 1241 250 1296 c 0
 250 1340 223 1370 181 1370 c 0
 136 1370 100 1344 10 1241 c 1
-29 1260 m 1
 69 1378 124 1416 185 1416 c 0
 252 1416 297 1369 297 1297 c 0
 297 1213 225 1152 129 1152 c 0
 87 1152 43 1165 -27 1199 c 0
 -78 1223 -103 1232 -123 1232 c 0
 -164 1232 -200 1198 -254 1111 c 1
 -293 1137 l 1
 -233 1244 -185 1287 -126 1287 c 0
 -101 1287 -73 1280 -29 1260 c 1
EndSplineSet
EndChar

StartChar: uniE070
Encoding: 57456 57456 1293
Width: 0
GlyphClass: 2
Flags: HMW
LayerCount: 2
Fore
SplineSet
230 1379 m 1
 230 1247 159 1146 0 1146 c 0
 -159 1146 -230 1248 -230 1379 c 1
 -175 1379 l 1
 -175 1278 -133 1201 0 1201 c 0
 129 1201 175 1282 175 1379 c 1
 230 1379 l 1
EndSplineSet
EndChar

StartChar: uniE071
Encoding: 57457 57457 1294
Width: 0
GlyphClass: 2
Flags: HMW
LayerCount: 2
Fore
SplineSet
230 1186 m 1
 -230 1186 l 1
 -230 1243 l 1
 230 1243 l 1
 230 1186 l 1
EndSplineSet
EndChar

StartChar: uniE072
Encoding: 57458 57458 1295
Width: 0
GlyphClass: 2
Flags: HMW
LayerCount: 2
Fore
SplineSet
-84 1580 m 0
 -143 1580 -170 1523 -170 1461 c 0
 -170 1412 -153 1371 -119 1330 c 1
 -55 1341 38 1374 38 1450 c 0
 38 1519 -23 1580 -84 1580 c 0
-87 1628 m 0
 12 1628 88 1530 88 1448 c 0
 88 1351 -8 1310 -81 1290 c 1
 -5 1237 120 1185 220 1158 c 1
 203 1111 l 1
 -41 1181 -220 1283 -220 1464 c 0
 -220 1560 -168 1628 -87 1628 c 0
EndSplineSet
EndChar

StartChar: uniE073
Encoding: 57459 57459 1296
Width: 0
GlyphClass: 2
Flags: HMW
LayerCount: 2
Fore
SplineSet
-195 1129 m 1
 -217 1173 l 1
 197 1370 l 1
 219 1326 l 1
 -195 1129 l 1
-179 1420 m 1
 -111 1488 l 1
 -43 1420 l 1
 -111 1353 l 1
 -179 1420 l 1
17 1063 m 1
 85 1131 l 1
 153 1063 l 1
 85 996 l 1
 17 1063 l 1
EndSplineSet
EndChar

StartChar: uniE075
Encoding: 57461 57461 1297
Width: 2086
GlyphClass: 2
Flags: HMW
LayerCount: 2
Fore
SplineSet
919 1081 m 1
 949 1031 l 1
 580 812 425 669 425 544 c 1
 1497 544 l 2
 1845 544 1954 498 1954 349 c 0
 1954 138 1729 0 1385 0 c 2
 133 0 l 1
 133 60 l 1
 1393 60 l 2
 1694 60 1893 178 1893 345 c 0
 1893 459 1804 484 1481 484 c 2
 413 484 l 1
 370 532 l 1
 370 694 518 842 919 1081 c 1
EndSplineSet
EndChar

StartChar: uniE076
Encoding: 57462 57462 1298
Width: 1785
GlyphClass: 2
Flags: HMW
LayerCount: 2
Fore
SplineSet
561 321 m 1
 546 302 l 1
 390.598632812 254 238.205078125 202 159 170 c 1
 137 231 l 1
 379.67578125 321 441.849609375 340 496 340 c 0
 520 340 538 335 561 321 c 1
EndSplineSet
Refer: 1247 57406 N 1 0 0 1 323 0 2
EndChar

StartChar: uniE077
Encoding: 57463 57463 1299
Width: 1666
GlyphClass: 2
Flags: HMW
LayerCount: 2
Fore
SplineSet
1300 825 m 1
 1271 948 1239 1071 1121 1071 c 0
 1033 1071 985 976 946 896 c 0
 840 678 704 555 518 506 c 0
 343 460 193 387 193 222 c 0
 193 93 303 60 443 60 c 2
 1534 60 l 1
 1534 0 l 1
 443 0 l 2
 277 0 133 51 133 222 c 0
 133 435 331 519 504 565 c 0
 686 614 797 732 887 912 c 0
 934 1007 997 1131 1121 1131 c 0
 1285 1131 1323 985 1358 838 c 1
 1300 825 l 1
EndSplineSet
EndChar

StartChar: uniE078
Encoding: 57464 57464 1300
Width: 0
GlyphClass: 2
Flags: HMW
LayerCount: 2
Fore
SplineSet
296 1341 m 0
 259 1341 209 1311 150 1226 c 1
 172 1220 198 1215 228 1215 c 0
 288 1215 357 1225 357 1284 c 0
 357 1317 334 1341 296 1341 c 0
299 1386 m 0
 358 1386 400 1344 400 1283 c 0
 400 1196 317 1169 228 1169 c 0
 153 1169 103 1188 74 1229 c 1
 64 1229 l 1
 44 1189 13 1169 -42 1169 c 0
 -93 1169 -130 1190 -146 1222 c 1
 -156 1222 l 1
 -172 1190 -203 1169 -251 1169 c 2
 -270 1169 l 2
 -356 1169 -428 1139 -428 1078 c 0
 -428 1049 -405 1042 -373 1042 c 2
 38 1042 l 1
 38 998 l 1
 -372 998 l 2
 -428 998 -475 1017 -475 1075 c 0
 -475 1157 -390 1215 -270 1215 c 2
 -251 1215 l 2
 -184 1215 -174 1243 -174 1302 c 2
 -174 1522 l 1
 -129 1522 l 1
 -129 1304 l 2
 -129 1245 -114 1215 -43 1215 c 0
 25 1215 44 1239 44 1311 c 2
 44 1355 l 1
 89 1355 l 1
 89 1312 l 2
 89 1272 93 1258 112 1243 c 1
 183 1345 245 1386 299 1386 c 0
EndSplineSet
EndChar

StartChar: uniE079
Encoding: 57465 57465 1301
Width: 0
GlyphClass: 2
Flags: HMW
LayerCount: 2
Fore
SplineSet
86 1460 m 0
 44 1460 26 1413 26 1372 c 0
 26 1335 49 1327 88 1327 c 0
 113 1327 134 1330 154 1335 c 1
 150 1386 136 1460 86 1460 c 0
181 1584 m 1
 144 1546 l 1
 107 1584 l 1
 144 1621 l 1
 181 1584 l 1
86 1584 m 1
 49 1546 l 1
 12 1584 l 1
 49 1621 l 1
 86 1584 l 1
87 1503 m 0
 172 1503 201 1391 201 1302 c 0
 201 1194 143 1171 37 1171 c 2
 -40 1171 l 2
 -87 1171 -119 1191 -135 1223 c 1
 -145 1223 l 1
 -161 1191 -190 1171 -238 1171 c 2
 -257 1171 l 2
 -343 1171 -416 1139 -416 1078 c 0
 -416 1049 -391 1042 -359 1042 c 2
 48 1042 l 1
 48 996 l 1
 -359 996 l 2
 -415 996 -462 1017 -462 1075 c 0
 -462 1157 -377 1216 -257 1216 c 2
 -238 1216 l 2
 -171 1216 -162 1243 -162 1302 c 2
 -162 1523 l 1
 -118 1523 l 1
 -118 1306 l 2
 -118 1247 -104 1216 -40 1216 c 2
 42 1216 l 2
 118 1216 156 1222 158 1291 c 1
 137 1286 112 1282 86 1282 c 0
 25 1282 -13 1309 -13 1368 c 0
 -13 1437 20 1503 87 1503 c 0
EndSplineSet
EndChar

StartChar: uniE07A
Encoding: 57466 57466 1302
Width: 0
GlyphClass: 2
Flags: HMW
LayerCount: 2
Fore
SplineSet
-44 1257 m 1
 -7 1212 32 1187 81 1187 c 0
 133 1187 165 1222 165 1272 c 0
 165 1324 126 1390 72 1390 c 0
 19 1390 -3 1344 -28 1291 c 2
 -44 1257 l 1
-197 1192 m 2
 -122 1192 -94 1249 -62 1316 c 0
 -28.8482264869 1385.41152579 3 1438 73 1438 c 0
 151 1438 207 1356 207 1273 c 0
 207 1192 158 1139 81 1139 c 0
 21 1139 -26 1170 -67 1220 c 1
 -96 1174 -131 1144 -197 1144 c 2
 -244 1144 l 1
 -244 1192 l 1
 -197 1192 l 2
EndSplineSet
EndChar

StartChar: uniE07B
Encoding: 57467 57467 1303
Width: 0
GlyphClass: 2
Flags: HMW
LayerCount: 2
Fore
SplineSet
-102 1284 m 1
 -170 1650 l 1
 -122 1661 l 1
 -54 1294 l 1
 -102 1284 l 1
210 1659 m 1
 210 1332 l 2
 210 1139 65 1128 -33 1128 c 2
 -210 1128 l 1
 -210 1179 l 1
 -33 1179 l 2
 96 1179 158 1203 158 1332 c 2
 158 1659 l 1
 210 1659 l 1
EndSplineSet
EndChar

StartChar: uniE07C
Encoding: 57468 57468 1304
Width: 0
GlyphClass: 2
Flags: HMW
LayerCount: 2
Fore
SplineSet
-86 1507 m 0
 -62 1507 -31 1501 37 1470 c 0
 102 1440 148 1422 195 1410 c 1
 189 1343 l 1
 -42 1295 -166 1213 -166 1107 c 0
 -166 1029 -90 979 29 979 c 0
 83 979 142 990 197 1010 c 1
 215 962 l 1
 152 938 88 923 27 923 c 0
 -121 923 -216 995 -216 1103 c 0
 -216 1220 -115 1315 128 1372 c 1
 128 1382 l 1
 94 1391 60 1404 11 1424 c 0
 -41 1446 -68 1454 -86 1454 c 0
 -120 1454 -143 1436 -161 1382 c 2
 -164 1374 l 1
 -203 1388 l 1
 -200 1395 l 2
 -175 1476 -140 1507 -86 1507 c 0
20 1192 m 1
 77 1136 l 1
 20 1082 l 1
 -34 1136 l 1
 20 1192 l 1
EndSplineSet
EndChar

StartChar: uniE07D
Encoding: 57469 57469 1305
Width: 0
GlyphClass: 2
Flags: HMW
LayerCount: 2
Fore
SplineSet
-106 1250 m 1
 -46 1189 l 1
 -106 1129 l 1
 -166 1189 l 1
 -106 1250 l 1
106 1250 m 1
 166 1189 l 1
 106 1129 l 1
 45 1189 l 1
 106 1250 l 1
0 1425 m 1
 61 1365 l 1
 0 1304 l 1
 -60 1365 l 1
 0 1425 l 1
EndSplineSet
EndChar

StartChar: uniE07E
Encoding: 57470 57470 1306
Width: 0
GlyphClass: 2
Flags: HMW
LayerCount: 2
Fore
SplineSet
229 1195 m 1
 212.323809524 1147 172.104761905 1124 126 1124 c 0
 90.4615384615 1124 68.7435897436 1135.37931034 49 1154 c 1
 40 1150 l 1
 48.0690557761 1014.92699759 -30.1174293577 927 -202 927 c 0
 -368 927 -449 999 -449 1140 c 0
 -449 1185 -438 1255 -422 1341 c 1
 -374 1331 l 1
 -390 1244 -400 1176 -400 1138 c 0
 -400 1028 -346 976 -205 976 c 0
 -61 976 0 1031 0 1134 c 0
 0 1176 -14 1251 -42 1351 c 1
 2 1367 l 1
 23 1290 l 2
 43.4230769231 1215.11538462 64 1172 130 1172 c 0
 181 1172 207.27154213 1198.0645469 214 1274 c 2
 221 1353 l 1
 268 1348 l 1
 262 1266 l 2
 257.09704142 1198.99289941 291 1172 344 1172 c 0
 394 1172 417 1201 417 1264 c 0
 417 1296 411 1348 405 1375 c 1
 453 1387 l 1
 460 1353 466 1300 466 1264 c 0
 466 1174 423 1124 344 1124 c 0
 293.444444444 1124 253.583333333 1148 239 1195 c 1
 229 1195 l 1
EndSplineSet
EndChar

StartChar: uniE07F
Encoding: 57471 57471 1307
Width: 0
GlyphClass: 2
Flags: HMW
LayerCount: 2
Fore
SplineSet
-84 1413 m 0
 -84 1460 -47 1496 0 1496 c 0
 47 1496 84 1460 84 1413 c 0
 84 1366 47 1329 0 1329 c 0
 -47 1329 -84 1366 -84 1413 c 0
EndSplineSet
EndChar

StartChar: uniE080
Encoding: 57472 57472 1308
Width: 0
GlyphClass: 2
Flags: HMW
LayerCount: 2
Fore
SplineSet
-84 1329 m 1
 -84 1496 l 1
 84 1496 l 1
 84 1329 l 1
 -84 1329 l 1
EndSplineSet
EndChar

StartChar: uniE081
Encoding: 57473 57473 1309
Width: 0
GlyphClass: 2
Flags: HMW
LayerCount: 2
Fore
SplineSet
-105 1430 m 0
 -52 1430 36 1400 156 1342 c 1
 156 1300 l 1
 42 1205 -100 1145 -246 1130 c 1
 -252 1179 l 1
 -126.838776942 1194.30484091 -3.62446802106 1240.44685682 96 1309 c 1
 96 1319 l 1
 21 1352.27272727 -72 1380 -105 1380 c 0
 -151 1380 -176 1357 -205 1289 c 1
 -249 1305 l 1
 -216 1393 -173 1430 -105 1430 c 0
EndSplineSet
EndChar

StartChar: uniE082
Encoding: 57474 57474 1310
Width: 0
GlyphClass: 2
Flags: HMW
LayerCount: 2
Fore
SplineSet
162 1264 m 0
 162 1333 134 1391 70 1391 c 0
 -8 1391 -32 1291 -46 1221 c 1
 1 1207 75 1188 104 1188 c 0
 150 1188 162 1218 162 1264 c 0
-113 1178 m 0
 -154 1178 -161 1151 -161 1110 c 2
 -161 922 l 1
 -210 922 l 1
 -210 1111 l 2
 -210 1190 -176 1235 -96 1229 c 1
 -77 1321 -40 1439 69 1439 c 0
 169 1439 212 1354 212 1260 c 0
 212 1187 175 1139 106 1139 c 0
 74 1139 35 1148 -6 1159 c 0
 -44 1169 -83 1178 -113 1178 c 0
EndSplineSet
EndChar

StartChar: uniE083
Encoding: 57475 57475 1311
Width: 0
GlyphClass: 2
Flags: HMW
LayerCount: 2
Fore
SplineSet
60 1378 m 0
 89 1378 101 1396 121 1426 c 1
 163 1401 l 1
 141 1362 114 1328 63 1328 c 0
 39 1328 14 1339 -8 1351 c 0
 -27 1362 -43 1370 -59 1370 c 0
 -87 1370 -104 1347 -120 1321 c 1
 -163 1345 l 1
 -139 1384 -110 1422 -58 1422 c 0
 -32 1422 -8 1410 13 1397 c 0
 29 1387 45 1378 60 1378 c 0
EndSplineSet
EndChar

StartChar: uniE084
Encoding: 57476 57476 1312
Width: 0
GlyphClass: 2
Flags: HMW
LayerCount: 2
Fore
SplineSet
99 1144 m 1
 70.4705882353 1135.92307692 38.137254902 1129 2 1129 c 0
 -80 1129 -137 1164 -137 1247 c 0
 -137 1335 -95 1433 0 1433 c 0
 124 1433 154 1263 154 1155 c 0
 154 1034.43824701 38 965.414342629 -139 924 c 1
 -153 973 l 1
 10.9112330659 1010.19487357 95.3254610572 1061.51325292 108 1141 c 1
 99 1144 l 1
-89 1248 m 0
 -89 1190 -52 1180 3 1180 c 0
 41 1180 76 1185 105 1192 c 1
 99 1267 78 1385 -0 1385 c 0
 -58 1385 -89 1316 -89 1248 c 0
EndSplineSet
EndChar

StartChar: uniE085
Encoding: 57477 57477 1313
Width: 1022
GlyphClass: 2
Flags: HMW
LayerCount: 2
Fore
SplineSet
892 1177 m 1
 892 1129 l 1
 264 1129 l 2
 196 1129 127 1151 127 1229 c 0
 127 1325 216 1363 286 1381 c 0
 354 1400 397 1443 431 1514 c 0
 449 1553 477 1607 536 1607 c 0
 616 1607 635 1534 649 1468 c 1
 603 1457 l 1
 590 1510 575 1558 536 1558 c 0
 510 1558 494 1528 478 1496 c 0
 435 1405 377 1351 297 1330 c 0
 227 1312 178 1286 178 1230 c 0
 178 1191 211 1177 267 1177 c 2
 892 1177 l 1
EndSplineSet
EndChar

StartChar: uniE086
Encoding: 57478 57478 1314
Width: 0
GlyphClass: 2
Flags: HMW
LayerCount: 2
Fore
SplineSet
166 1431 m 1
 209 1447 l 1
 237 1365 258 1287 258 1221 c 0
 258 1070 156 998 -2 998 c 0
 -165 998 -257 1073 -257 1230 c 0
 -257 1284 -244 1355 -228 1422 c 1
 -181 1410 l 1
 -197 1346 -208 1277 -208 1230 c 0
 -208 1099 -137 1048 -1 1048 c 0
 128 1048 210 1101 210 1222 c 0
 210 1279 192 1353 166 1431 c 1
-2 1381 m 1
 51 1329 l 1
 -2 1275 l 1
 -55 1329 l 1
 -2 1381 l 1
EndSplineSet
EndChar

StartChar: uniE087
Encoding: 57479 57479 1315
Width: 0
GlyphClass: 2
Flags: HMW
LayerCount: 2
Fore
SplineSet
-108 1306 m 1
 0 1198 l 1
 108 1308 l 1
 0 1413 l 1
 -108 1306 l 1
-176 1306 m 1
 0 1481 l 1
 176 1308 l 1
 0 1131 l 1
 -176 1306 l 1
EndSplineSet
EndChar

StartChar: uniE088
Encoding: 57480 57480 1316
Width: 596
GlyphClass: 2
Flags: HMW
LayerCount: 2
Fore
SplineSet
133 378 m 1
 193 378 l 1
 193 0 l 1
 133 0 l 1
 133 378 l 1
408 378 m 1
 468 378 l 1
 468 0 l 1
 408 0 l 1
 408 378 l 1
EndSplineSet
EndChar

StartChar: uniE089
Encoding: 57481 57481 1317
Width: 669
GlyphClass: 2
Flags: HMW
LayerCount: 2
Fore
SplineSet
542 45 m 1
 542 0 l 1
 128 0 l 1
 128 45 l 1
 542 45 l 1
EndSplineSet
EndChar

StartChar: uniE08A
Encoding: 57482 57482 1318
Width: 589
GlyphClass: 2
Flags: HMW
LayerCount: 2
Fore
SplineSet
181 483 m 1
 201 429 l 2
 235 337 259 302 315 302 c 0
 380 302 396 362 402 430 c 2
 407 476 l 1
 458 473 l 1
 450 355 428 254 312 254 c 0
 290 254 269 261 255 273 c 1
 247 269 l 1
 262 184 274 99 274 0 c 1
 220 0 l 1
 220 176 197 306 133 460 c 1
 181 483 l 1
EndSplineSet
EndChar

StartChar: uniE08B
Encoding: 57483 57483 1319
Width: 701
GlyphClass: 2
Flags: HMW
LayerCount: 2
Fore
SplineSet
181 483 m 1
 205 416 l 2
 239 319 259 303 296 303 c 0
 345 303 354 347 358 420 c 2
 361 471 l 1
 413 466 l 1
 409 431 405 394 405 371 c 0
 405 325 420 303 464 303 c 0
 510 303 522 333 522 376 c 0
 522 404 518 442 512 473 c 1
 561 480 l 1
 566 449 569 412 569 385 c 0
 569 305 538 252 462 252 c 0
 425 252 397 274 380 302 c 1
 370 302 l 1
 355 276 329 260 299 260 c 0
 285 260 272 263 257 270 c 1
 248 267 l 1
 264 185 271 98 271 0 c 1
 220 0 l 1
 220 175 197 308 133 460 c 1
 181 483 l 1
EndSplineSet
EndChar

StartChar: uniE08C
Encoding: 57484 57484 1320
Width: 602
GlyphClass: 2
Flags: HMW
LayerCount: 2
Fore
SplineSet
229 488 m 0
 261 488 291 470 313 439 c 1
 335 411 l 1
 447 497 l 1
 479 452 l 1
 347 350 l 1
 319 352 l 1
 276 408 l 2
 261 428 246 438 230 438 c 0
 204 438 182 418 182 392 c 0
 182 383 188 370 195 358 c 2
 321 141 l 1
 343 102 356 55 356 0 c 1
 308 0 l 1
 308 39 299 83 279 116 c 2
 152 333 l 1
 138 351 133 373 133 392 c 0
 133 444 178 488 229 488 c 0
EndSplineSet
EndChar

StartChar: uniE08D
Encoding: 57485 57485 1321
Width: 1329
GlyphClass: 2
Flags: HMW
LayerCount: 2
Fore
SplineSet
932 -50 m 1
 969 90 920 342 857 534 c 1
 914 553 l 1
 969 388 1006 212 1006 54 c 0
 1006 10 1000 -32 990 -73 c 1
 1063 -104 1131 -142 1197 -186 c 1
 1165 -236 l 1
 1103 -195 1039 -160 972 -131 c 1
 898 -332 683 -544 434 -544 c 0
 266 -544 133 -464 133 -291 c 0
 133 -80 340 14 543 14 c 0
 691 14 817 -8 932 -50 c 1
916 -109 m 1
 806 -69 685 -46 543 -46 c 0
 370 -46 193 -119 193 -291 c 0
 193 -428 298 -484 434 -484 c 0
 653 -484 850 -289 916 -109 c 1
EndSplineSet
EndChar

